<svg width="1408" height="841" viewBox="0 0 1408 841" fill="none" xmlns="http://www.w3.org/2000/svg">
<path d="M749.232 186.726C749.552 186.652 749.313 187.133 749.313 187.133C748.526 187.502 734.667 192.211 734.704 198.163C734.717 200.273 734.743 201.595 736.647 203.188C740.093 206.069 746.189 205.359 753.122 205.828C760.977 206.361 766.646 204.62 774.376 205.31C780.485 205.856 785.589 205.518 788.675 208.098C791.047 210.082 792.327 211.69 790.832 214.434C788.835 218.099 784.198 220.195 777.786 222.504C772.983 224.234 769.011 225.069 763.816 225.956C737.074 230.523 728.365 214.637 701.849 220.461C691.217 222.795 683.154 223.713 676.098 229.187C670.155 233.798 669.195 236.825 670.491 241.366C671.89 246.268 678.441 247.184 684.717 250.308C692.644 254.254 701.028 254.243 707.742 258.797C711.611 261.421 714.66 262.807 715.487 266.416C716.059 268.91 715.417 270.521 714.185 273.226C711.486 279.155 698.193 288.877 698.193 288.877L696.578 287.788C696.578 287.788 709.252 279.281 712.007 273.444C713.203 270.911 713.911 269.391 713.394 267.053C712.605 263.489 709.167 262.276 705.263 259.73C698.447 255.285 690.417 255.13 682.665 251.155C676.272 247.878 669.692 246.83 668.315 241.751C667.057 237.112 668.607 233.451 674.629 228.749C681.666 223.254 690.955 221.71 702.493 219.24C729.047 213.554 737.766 229.726 764.46 224.736C769.487 223.796 772.604 223.497 777.191 221.75C782.744 219.635 786.979 217.874 788.654 214.652C789.84 212.372 789.251 211.005 787.571 209.244C784.793 206.331 779.522 206.375 773.101 205.758C766.084 205.084 760.899 206.746 753.638 206.389C746.159 206.022 739.545 206.885 735.839 203.831C733.747 202.107 733.783 200.641 733.85 198.334C734.025 192.326 746.83 187.63 749.232 186.726Z" fill="#DDDDDD"/>
<path d="M749.232 186.726C748.921 186.821 749.313 187.133 749.313 187.133C749.313 187.133 773.344 177.866 784.555 180.723C788.528 181.736 791.011 182.382 793.105 184.416C796.897 188.096 792.647 191.843 790.223 196.712C787.477 202.228 781.487 205.198 779.101 210.706C777.214 215.06 774.139 218.318 777.534 221.614C780.144 224.147 782.567 225.771 788.457 226.075C796.323 226.48 802.492 224.371 809.907 221.173C815.463 218.778 818.935 216.514 823.088 213.455C844.468 197.71 818.657 184.315 842.3 169.319C851.779 163.306 857.358 158.34 871.052 156.217C882.587 154.429 888.756 155.227 896.704 158.256C905.283 161.526 903.885 166.351 906.781 172.043C910.44 179.232 906.42 184.845 911.805 191.51C914.908 195.351 916.068 198.054 922.48 200.326C926.911 201.896 930.258 202.232 935.949 202.694C948.422 203.707 973.107 199.426 973.107 199.426L971.822 197.825C971.822 197.825 949.725 202.27 937.399 201.338C932.05 200.934 928.845 200.685 924.682 199.226C918.335 197.002 917.687 194.121 914.748 190.293C909.617 183.611 913.156 178.157 909.359 171.071C906.228 165.228 907.393 160.321 898.468 156.981C890.318 153.931 882.673 153.227 870.926 155.025C857.202 157.125 849.857 162.614 839.69 169.17C816.289 184.257 842.633 197.794 820.478 213.306C816.306 216.227 814.254 218.174 808.769 220.416C802.128 223.13 796.785 225.13 789.907 224.719C785.04 224.428 782.743 223.384 780.222 221.42C776.053 218.172 778.653 214.662 780.554 210.065C782.632 205.043 788.242 202.359 791.035 197.325C793.912 192.138 798.696 188.117 794.704 184.181C792.451 181.958 789.669 181.285 785.285 180.232C773.867 177.491 751.261 186.108 749.232 186.726Z" fill="#DDDDDD"/>
<path d="M970.555 211.97C970.555 211.97 976.258 214.467 977.34 223.287C977.63 225.88 976.346 227.796 974.508 229.618C972.628 231.558 969.843 231.564 968.16 233.549C969.323 231.67 968.983 229.433 970.972 227.934C968.003 228.891 966.471 231.198 966.074 234.211C965.719 237.106 964.436 239.021 961.245 239.336C962.871 238.026 962.321 236.221 962.249 234.429C962.074 236.533 960.457 237.525 958.616 237.954C956.373 238.532 955.402 239.143 953.686 240.848C954.563 237.768 953.055 236.098 956.793 234.644C958.842 233.862 961.108 232.41 959.464 229.861C958.909 234.341 955.167 232.931 952.147 234.323C950.011 235.342 950.445 237.024 949.249 238.624C948.054 240.224 945.978 240.487 944.108 240.478C947.234 239.605 946.451 236.084 947.193 233.597C948.024 230.715 951.821 230.058 953.4 227.474C951.988 225.169 950.603 227.958 950.021 228.897C949.068 230.344 947.838 231.744 945.789 230.974C950.604 229.43 947.335 223.615 950.816 221.319C952.152 220.439 955.538 221.801 956.216 220.228C957.273 217.828 953.103 219.072 952.212 219.685C952.445 218.378 953.473 217.092 954.762 216.49C956.414 215.697 957.579 216.762 959.019 216.482C960.938 216.134 961.12 213.712 958.973 213.656C958.178 213.635 956.512 214.984 955.549 215.277C956.727 212.841 959.611 210.57 962.252 210.002C965.533 209.292 967.801 210.784 970.555 211.97Z" fill="url(#paint0_linear_403_108)"/>
<path d="M972.144 215.053C972.717 215.697 972.676 215.735 973.203 216.572C974.329 218.325 974.552 220.861 972.866 222.312C971.903 223.115 970.771 222.89 969.741 223.459C968.652 224.047 968.601 225.246 968.021 226.168C967.971 225.51 967.974 224.987 967.826 224.348C967.765 223.96 967.667 223.534 967.817 223.168C967.401 223.86 967.329 224.671 966.874 225.363C966.297 226.207 965.434 226.469 964.493 226.768C963.533 227.048 962.599 227.155 961.554 227.143C961.129 227.139 960.572 227.036 960.178 227.187C959.666 227.414 959.471 227.895 959.07 228.239C959.3 226.907 959.386 226.231 960.795 225.859C962.243 225.488 962.315 224.231 963.262 223.332C962.447 223.846 961.411 224.086 960.856 223.017C962.574 223.577 963.286 222.308 963.522 220.821C963.775 219.393 963.731 218.135 964.895 217.142C964.18 217.115 963.82 217.865 963.376 218.286C962.854 218.745 962.265 218.932 961.583 219.06C961.663 218.984 961.783 218.907 961.824 218.831C962.096 218.35 962.594 218.026 962.865 217.546C963.117 217.084 963.271 216.641 963.465 216.16C963.854 215.197 964.857 214.357 965.73 213.824C967.181 212.931 969.839 213.23 971.566 214.524L971.734 214.662C971.884 214.779 972.014 214.916 972.144 215.053Z" fill="#FFC929"/>
<path d="M972.639 215.578C973.259 216.315 973.348 216.913 973.327 217.876C973.293 218.952 972.302 219.712 971.6 220.419C971.771 220.096 971.726 219.776 971.765 219.418C971.387 219.838 971.031 219.673 970.606 219.917C970.159 220.18 969.921 220.727 969.505 221.001C969.7 220.535 969.177 220.047 969.515 219.627C969.06 219.798 969.222 220.367 968.908 220.644C968.636 220.882 968.039 220.987 967.738 221.152C967.771 221.041 968.565 219.926 967.963 220.236C967.849 220.304 967.747 220.722 967.58 220.86C967.434 220.959 967.218 221.024 967.042 221.07C966.64 221.17 966.232 221.076 965.869 221.26C965.454 221.473 965.251 221.867 965.037 222.27C965.268 221.529 965.125 221.042 965.772 220.549C966.085 220.292 966.213 220.07 966.435 219.759C966.625 219.498 966.874 219.382 967.125 219.144C966.33 218.935 966.178 219.802 965.517 219.987C965.893 219.691 965.78 219.257 965.901 218.86C966.033 218.475 966.359 218.105 966.742 217.942C967.021 217.817 967.747 217.932 967.706 217.469C967.666 216.924 966.891 217.219 966.661 217.396C966.803 217 967.13 216.61 967.593 216.512C967.995 216.432 968.401 216.649 968.595 216.183C968.257 215.701 967.775 216.179 967.314 216.154C967.972 215.631 968.273 214.501 969.305 214.707C969.58 214.767 970.243 215.402 970.284 214.922C970.313 214.533 969.622 214.245 969.324 214.287C970.327 213.918 971.758 214.587 972.509 215.441L972.639 215.578Z" fill="#F9F079"/>
<path d="M966.949 204.743C966.118 206.138 965.345 207.487 964.621 208.781C963.897 210.074 966.592 214.36 969.374 217.286C972.135 220.188 977.297 224.197 978.627 223.542C979.958 222.886 981.344 222.184 982.781 221.429L966.949 204.743Z" fill="url(#paint1_linear_403_108)"/>
<path d="M1007.72 207.215C1024.67 196.349 1041.67 181.903 1049.6 161.433L1030.37 141.165C1009.51 148.01 994.19 164.222 982.452 180.585L971.181 197.763C970.146 199.453 969.155 201.085 968.192 202.685L984.903 220.296C986.549 219.416 988.235 218.514 989.974 217.569L1007.72 207.215ZM1028.67 162.034C1030.85 164.429 1030.77 168.099 1028.45 170.299C1026.14 172.497 1022.46 172.391 1020.19 170.083C1018 167.689 1018.09 164.015 1020.4 161.817C1022.72 159.616 1026.39 159.726 1028.67 162.034Z" fill="url(#paint2_linear_403_108)"/>
<path d="M991.676 222.206L989.974 217.57L1007.72 207.216C1007.08 210.589 1006.07 223.992 1006.07 223.992L985.891 240.864L982.183 236.955L991.676 222.206Z" fill="url(#paint3_linear_403_108)"/>
<path d="M965.613 181.354C965.613 181.354 979.048 181.041 982.451 180.586L971.181 197.764L966.64 195.821L951.413 204.528L947.706 200.62L965.613 181.354Z" fill="url(#paint4_linear_403_108)"/>
<path d="M1050.46 158.973C1052.64 152.451 1055.2 137.244 1054.99 137.019C1054.77 136.793 1039.5 138.598 1032.87 140.432L1050.46 158.973Z" fill="url(#paint5_linear_403_108)"/>
<path d="M966.949 204.743L982.781 221.429L984.903 220.296L968.192 202.685L966.949 204.743Z" fill="url(#paint6_linear_403_108)"/>
<path d="M1030.37 141.166L1049.6 161.433L1050.46 158.973L1032.87 140.432L1030.37 141.166Z" fill="url(#paint7_linear_403_108)"/>
<path d="M1028.45 170.299C1030.77 168.098 1030.85 164.428 1028.67 162.034C1026.39 159.726 1022.72 159.616 1020.41 161.816C1018.09 164.014 1018 167.688 1020.19 170.083C1022.46 172.391 1026.14 172.497 1028.45 170.299Z" fill="url(#paint8_linear_403_108)"/>
<path d="M562.999 513.133V480.315H491.968L485 462.557L536.025 346.345H575.587L531.08 447.272H562.999V418.95L570.417 398.495H601.886V447.272H616.946V474.246L601.886 480.315V513.133H562.999Z" fill="#FEECFC"/>
<g filter="url(#filter0_d_403_108)">
<path d="M760.522 401.504C779.614 445.151 759.708 496.01 716.062 515.101C672.415 534.192 621.556 514.287 602.465 470.64C583.374 426.994 603.279 376.135 646.926 357.043C690.572 337.952 741.431 357.858 760.522 401.504Z" fill="#D8EA10"/>
<path d="M647.158 410.853C650.096 417.568 647.034 425.392 640.32 428.33C633.605 431.268 625.78 428.206 622.843 421.492C619.905 414.777 622.967 406.952 629.681 404.015C636.396 401.077 644.221 404.139 647.158 410.853Z" fill="url(#paint9_linear_403_108)"/>
<path d="M728.205 375.717C729.891 377.673 729.573 380.232 727.493 381.431C725.413 382.631 722.36 382.017 720.673 380.061C718.987 378.104 719.305 375.546 721.385 374.346C723.465 373.147 726.518 373.76 728.205 375.717Z" fill="url(#paint10_linear_403_108)"/>
<path d="M758.681 437.712C761.307 438.627 762.41 442.312 761.145 445.945C759.881 449.577 756.727 451.781 754.101 450.866C751.476 449.952 750.373 446.267 751.637 442.634C752.902 439.002 756.056 436.798 758.681 437.712Z" fill="url(#paint11_linear_403_108)"/>
<path d="M678.974 352.932C679.144 354.413 676.183 355.968 672.362 356.405C668.541 356.843 665.306 355.997 665.136 354.516C664.967 353.035 667.927 351.48 671.748 351.043C675.57 350.606 678.805 351.452 678.974 352.932Z" fill="url(#paint12_linear_403_108)"/>
<path d="M711.351 485.63C713.204 495.281 705.425 504.887 693.975 507.086C682.524 509.285 671.74 503.245 669.886 493.594C668.033 483.943 675.812 474.337 687.263 472.138C698.713 469.939 709.497 475.98 711.351 485.63Z" fill="url(#paint13_linear_403_108)"/>
<path d="M652.389 353.589C652.965 354.767 649.534 357.626 644.727 359.974C639.92 362.323 635.557 363.272 634.981 362.094C634.406 360.916 637.836 358.058 642.643 355.709C647.45 353.361 651.814 352.412 652.389 353.589Z" fill="#D8EA10"/>
<path d="M653.145 355.137C654.138 357.169 651.046 360.72 646.239 363.069C641.432 365.418 636.73 365.674 635.737 363.642C634.744 361.609 637.836 358.058 642.643 355.71C647.45 353.361 652.152 353.105 653.145 355.137Z" fill="#D8EA10"/>
<path d="M649.638 353.833C649.805 354.176 647.212 355.787 643.845 357.432C640.479 359.077 637.614 360.132 637.446 359.789C637.279 359.447 639.872 357.836 643.239 356.191C646.606 354.546 649.47 353.49 649.638 353.833Z" fill="#313502"/>
<path d="M592.249 448.788C594.289 448.167 597.999 454.415 600.536 462.744C603.072 471.073 603.474 478.329 601.433 478.95C599.392 479.572 595.682 473.323 593.146 464.994C590.61 456.665 590.208 449.41 592.249 448.788Z" fill="#D8EA10"/>
<path d="M594.929 447.972C598.45 446.899 603.361 452.782 605.897 461.111C608.433 469.44 607.635 477.061 604.113 478.133C600.592 479.206 595.682 473.323 593.145 464.994C590.609 456.665 591.408 449.044 594.929 447.972Z" fill="#D8EA10"/>
<path d="M591.932 453.272C592.526 453.091 594.447 457.673 596.223 463.506C597.999 469.34 598.958 474.215 598.364 474.396C597.771 474.577 595.849 469.994 594.073 464.161C592.297 458.328 591.338 453.452 591.932 453.272Z" fill="#2E3202"/>
<path d="M665.109 517.845C665.247 515.896 672.412 514.455 681.112 514.628C689.813 514.801 696.754 516.521 696.616 518.471C696.478 520.42 689.313 521.86 680.613 521.688C671.913 521.515 664.971 519.794 665.109 517.845Z" fill="url(#paint14_linear_403_108)"/>
<path d="M754.63 484.47C752.934 483.698 754.114 477.461 757.267 470.539C760.419 463.618 764.349 458.632 766.045 459.405C767.741 460.177 766.56 466.414 763.408 473.336C760.256 480.258 756.326 485.243 754.63 484.47Z" fill="#D8EA10"/>
<path d="M752.401 483.457C749.475 482.124 749.658 475.433 752.81 468.511C755.962 461.589 760.89 457.058 763.816 458.391C766.742 459.724 766.559 466.415 763.407 473.337C760.255 480.258 755.327 484.789 752.401 483.457Z" fill="#D8EA10"/>
<path d="M757.427 481.718C756.934 481.493 758.324 477.381 760.531 472.533C762.739 467.685 764.929 463.938 765.422 464.162C765.916 464.387 764.526 468.499 762.318 473.347C760.111 478.195 757.921 481.942 757.427 481.718Z" fill="#130406"/>
<path d="M755.089 388.407C754.129 389.061 751.188 386.417 748.519 382.501C745.849 378.586 744.463 374.881 745.422 374.227C746.382 373.573 749.323 376.217 751.993 380.133C754.662 384.049 756.048 387.753 755.089 388.407Z" fill="url(#paint15_linear_403_108)"/>
<path d="M753.829 389.266C752.173 390.394 748.667 388.135 745.998 384.22C743.329 380.304 742.507 376.215 744.162 375.087C745.818 373.958 749.324 376.217 751.993 380.133C754.662 384.048 755.484 388.137 753.829 389.266Z" fill="#D8EA10"/>
<path d="M754.526 386.026C754.247 386.216 752.505 384.147 750.635 381.405C748.766 378.663 747.477 376.286 747.756 376.095C748.035 375.905 749.777 377.974 751.646 380.716C753.516 383.458 754.805 385.836 754.526 386.026Z" fill="#2B2F01"/>
<path d="M701.353 424.466C701.353 429.047 697.64 432.761 693.059 432.761C688.478 432.761 684.765 429.047 684.765 424.466C684.765 419.886 688.478 416.172 693.059 416.172C697.64 416.172 701.353 419.886 701.353 424.466Z" fill="#A6B316"/>
<path d="M629.692 485.07C627.61 486.864 623.498 485.504 620.509 482.034C617.519 478.563 616.783 474.296 618.865 472.502C620.948 470.708 625.059 472.067 628.049 475.538C631.039 479.008 631.775 483.276 629.692 485.07Z" fill="#636B0D"/>
<path d="M694.718 368.067C694.718 370.815 691.005 373.043 686.424 373.043C681.844 373.043 678.13 370.815 678.13 368.067C678.13 365.318 681.844 363.09 686.424 363.09C691.005 363.09 694.718 365.318 694.718 368.067Z" fill="#D8EA10"/>
<path d="M743.665 473.004C745.472 475.075 744.139 479.195 740.687 482.207C737.235 485.218 732.972 485.981 731.165 483.91C729.358 481.839 730.692 477.719 734.143 474.707C737.595 471.696 741.858 470.933 743.665 473.004Z" fill="#575F06"/>
</g>
<g filter="url(#filter1_d_403_108)">
<path d="M1354.36 697.469C1364.87 721.498 1353.91 749.498 1329.88 760.008C1305.85 770.518 1277.85 759.56 1267.34 735.531C1256.83 711.502 1267.79 683.502 1291.82 672.992C1315.85 662.482 1343.85 673.44 1354.36 697.469Z" fill="#D8EA10"/>
<path d="M1291.95 702.616C1293.56 706.313 1291.88 710.62 1288.18 712.238C1284.48 713.855 1280.18 712.169 1278.56 708.473C1276.94 704.776 1278.63 700.468 1282.32 698.851C1286.02 697.234 1290.33 698.919 1291.95 702.616Z" fill="url(#paint16_linear_403_108)"/>
<path d="M1336.57 683.272C1337.49 684.35 1337.32 685.758 1336.17 686.418C1335.03 687.079 1333.35 686.741 1332.42 685.664C1331.49 684.587 1331.67 683.178 1332.81 682.518C1333.96 681.857 1335.64 682.195 1336.57 683.272Z" fill="url(#paint17_linear_403_108)"/>
<path d="M1353.34 717.403C1354.79 717.906 1355.4 719.935 1354.7 721.935C1354 723.935 1352.27 725.148 1350.82 724.645C1349.38 724.141 1348.77 722.112 1349.47 720.113C1350.16 718.113 1351.9 716.9 1353.34 717.403Z" fill="url(#paint18_linear_403_108)"/>
<path d="M1309.46 670.729C1309.56 671.544 1307.93 672.4 1305.82 672.641C1303.72 672.882 1301.94 672.416 1301.84 671.601C1301.75 670.785 1303.38 669.929 1305.48 669.689C1307.59 669.448 1309.37 669.914 1309.46 670.729Z" fill="url(#paint19_linear_403_108)"/>
<path d="M1327.29 743.783C1328.31 749.096 1324.02 754.385 1317.72 755.596C1311.42 756.806 1305.48 753.481 1304.46 748.168C1303.44 742.854 1307.72 737.566 1314.03 736.355C1320.33 735.145 1326.27 738.47 1327.29 743.783Z" fill="url(#paint20_linear_403_108)"/>
<path d="M1294.83 671.09C1295.14 671.739 1293.25 673.313 1290.61 674.606C1287.96 675.898 1285.56 676.421 1285.24 675.773C1284.93 675.124 1286.81 673.551 1289.46 672.258C1292.11 670.965 1294.51 670.442 1294.83 671.09Z" fill="#D8EA10"/>
<path d="M1295.24 671.942C1295.79 673.061 1294.09 675.016 1291.44 676.309C1288.79 677.602 1286.21 677.743 1285.66 676.625C1285.11 675.506 1286.81 673.551 1289.46 672.258C1292.11 670.965 1294.7 670.824 1295.24 671.942Z" fill="#D8EA10"/>
<path d="M1293.31 671.225C1293.4 671.413 1291.98 672.3 1290.12 673.206C1288.27 674.111 1286.69 674.692 1286.6 674.504C1286.51 674.315 1287.94 673.428 1289.79 672.523C1291.64 671.617 1293.22 671.036 1293.31 671.225Z" fill="#313502"/>
<path d="M1261.72 723.501C1262.84 723.159 1264.88 726.598 1266.28 731.184C1267.68 735.769 1267.9 739.764 1266.77 740.106C1265.65 740.448 1263.61 737.008 1262.21 732.423C1260.81 727.837 1260.59 723.843 1261.72 723.501Z" fill="#D8EA10"/>
<path d="M1263.19 723.051C1265.13 722.461 1267.83 725.699 1269.23 730.285C1270.63 734.87 1270.19 739.066 1268.25 739.656C1266.31 740.246 1263.61 737.008 1262.21 732.422C1260.81 727.837 1261.25 723.641 1263.19 723.051Z" fill="#D8EA10"/>
<path d="M1261.54 725.969C1261.87 725.869 1262.93 728.392 1263.9 731.603C1264.88 734.815 1265.41 737.499 1265.08 737.598C1264.76 737.698 1263.7 735.175 1262.72 731.964C1261.74 728.752 1261.22 726.068 1261.54 725.969Z" fill="#2E3202"/>
<path d="M1301.83 761.519C1301.9 760.445 1305.85 759.652 1310.64 759.748C1315.43 759.843 1319.25 760.79 1319.17 761.863C1319.1 762.936 1315.15 763.729 1310.36 763.634C1305.57 763.539 1301.75 762.592 1301.83 761.519Z" fill="url(#paint21_linear_403_108)"/>
<path d="M1351.11 743.145C1350.18 742.72 1350.83 739.286 1352.56 735.475C1354.3 731.665 1356.46 728.92 1357.4 729.345C1358.33 729.77 1357.68 733.204 1355.95 737.015C1354.21 740.825 1352.05 743.57 1351.11 743.145Z" fill="url(#paint22_linear_403_108)"/>
<path d="M1349.89 742.587C1348.27 741.853 1348.38 738.169 1350.11 734.358C1351.85 730.548 1354.56 728.053 1356.17 728.787C1357.78 729.521 1357.68 733.205 1355.95 737.015C1354.21 740.826 1351.5 743.32 1349.89 742.587Z" fill="#D8EA10"/>
<path d="M1352.65 741.629C1352.38 741.506 1353.15 739.242 1354.36 736.573C1355.58 733.904 1356.78 731.841 1357.05 731.965C1357.33 732.088 1356.56 734.352 1355.35 737.021C1354.13 739.69 1352.92 741.753 1352.65 741.629Z" fill="#2E3202"/>
<path d="M1351.37 690.259C1350.84 690.619 1349.22 689.163 1347.75 687.007C1346.28 684.852 1345.52 682.812 1346.04 682.452C1346.57 682.092 1348.19 683.548 1349.66 685.704C1351.13 687.859 1351.89 689.899 1351.37 690.259Z" fill="#D8EA10"/>
<path d="M1350.67 690.732C1349.76 691.353 1347.83 690.109 1346.36 687.953C1344.89 685.798 1344.44 683.547 1345.35 682.925C1346.26 682.304 1348.19 683.548 1349.66 685.704C1351.13 687.859 1351.58 690.11 1350.67 690.732Z" fill="#D8EA10"/>
<path d="M1351.06 688.948C1350.9 689.053 1349.94 687.914 1348.91 686.404C1347.88 684.894 1347.17 683.586 1347.33 683.481C1347.48 683.376 1348.44 684.515 1349.47 686.025C1350.5 687.534 1351.21 688.843 1351.06 688.948Z" fill="#2B2F01"/>
<path d="M1321.78 710.111C1321.78 712.632 1319.74 714.677 1317.22 714.677C1314.69 714.677 1312.65 712.632 1312.65 710.111C1312.65 707.589 1314.69 705.544 1317.22 705.544C1319.74 705.544 1321.78 707.589 1321.78 710.111Z" fill="#A6B316"/>
<path d="M1282.33 743.475C1281.18 744.462 1278.92 743.714 1277.27 741.803C1275.63 739.893 1275.22 737.543 1276.37 736.556C1277.52 735.568 1279.78 736.316 1281.43 738.227C1283.07 740.138 1283.48 742.487 1282.33 743.475Z" fill="#636B0D"/>
<path d="M1318.13 679.061C1318.13 680.574 1316.09 681.8 1313.56 681.8C1311.04 681.8 1309 680.574 1309 679.061C1309 677.548 1311.04 676.321 1313.56 676.321C1316.09 676.321 1318.13 677.548 1318.13 679.061Z" fill="#D8EA10"/>
<path d="M1345.08 736.832C1346.07 737.972 1345.34 740.241 1343.44 741.899C1341.54 743.557 1339.19 743.976 1338.2 742.836C1337.2 741.696 1337.93 739.428 1339.83 737.77C1341.73 736.112 1344.08 735.692 1345.08 736.832Z" fill="#575F06"/>
</g>
<g filter="url(#filter2_d_403_108)">
<path d="M572.447 814.59C575.987 822.684 572.295 832.115 564.202 835.655C556.108 839.196 546.676 835.504 543.136 827.41C539.596 819.316 543.287 809.885 551.381 806.345C559.475 802.804 568.906 806.496 572.447 814.59Z" fill="#D8EA10"/>
<path d="M551.424 816.323C551.969 817.568 551.401 819.02 550.156 819.564C548.911 820.109 547.46 819.541 546.915 818.296C546.37 817.051 546.938 815.6 548.183 815.055C549.428 814.51 550.879 815.078 551.424 816.323Z" fill="url(#paint23_linear_403_108)"/>
<path d="M566.454 809.808C566.766 810.17 566.707 810.645 566.322 810.867C565.936 811.09 565.37 810.976 565.057 810.613C564.744 810.25 564.803 809.776 565.189 809.553C565.575 809.331 566.141 809.445 566.454 809.808Z" fill="url(#paint24_linear_403_108)"/>
<path d="M572.105 821.304C572.592 821.474 572.797 822.157 572.562 822.831C572.328 823.504 571.743 823.913 571.256 823.743C570.769 823.574 570.564 822.89 570.799 822.217C571.033 821.543 571.618 821.135 572.105 821.304Z" fill="url(#paint25_linear_403_108)"/>
<path d="M557.324 805.582C557.356 805.857 556.807 806.145 556.098 806.226C555.389 806.307 554.789 806.151 554.758 805.876C554.726 805.601 555.275 805.313 555.984 805.232C556.693 805.151 557.293 805.308 557.324 805.582Z" fill="url(#paint26_linear_403_108)"/>
<path d="M563.328 830.19C563.672 831.98 562.229 833.761 560.106 834.169C557.982 834.577 555.982 833.457 555.639 831.667C555.295 829.877 556.738 828.096 558.861 827.688C560.984 827.28 562.984 828.401 563.328 830.19Z" fill="url(#paint27_linear_403_108)"/>
<path d="M552.394 805.704C552.501 805.923 551.865 806.453 550.973 806.888C550.082 807.324 549.273 807.5 549.166 807.281C549.059 807.063 549.695 806.533 550.587 806.097C551.478 805.662 552.287 805.486 552.394 805.704Z" fill="#D8EA10"/>
<path d="M552.534 805.991C552.718 806.368 552.145 807.027 551.254 807.462C550.362 807.898 549.49 807.945 549.306 807.568C549.122 807.191 549.695 806.533 550.587 806.097C551.478 805.662 552.35 805.614 552.534 805.991Z" fill="#D8EA10"/>
<path d="M551.884 805.749C551.915 805.813 551.434 806.112 550.81 806.417C550.185 806.722 549.654 806.917 549.623 806.854C549.592 806.79 550.073 806.492 550.697 806.187C551.322 805.882 551.853 805.686 551.884 805.749Z" fill="#313502"/>
<path d="M541.241 823.358C541.62 823.243 542.308 824.402 542.778 825.946C543.249 827.491 543.323 828.836 542.945 828.951C542.566 829.067 541.878 827.908 541.408 826.363C540.938 824.819 540.863 823.473 541.241 823.358Z" fill="#D8EA10"/>
<path d="M541.739 823.207C542.392 823.008 543.302 824.099 543.772 825.643C544.243 827.188 544.095 828.601 543.442 828.8C542.789 828.999 541.878 827.908 541.408 826.363C540.937 824.819 541.086 823.405 541.739 823.207Z" fill="#D8EA10"/>
<path d="M541.183 824.189C541.293 824.156 541.649 825.006 541.979 826.087C542.308 827.169 542.486 828.073 542.376 828.107C542.266 828.14 541.909 827.291 541.58 826.209C541.25 825.127 541.073 824.223 541.183 824.189Z" fill="#2E3202"/>
<path d="M554.753 836.164C554.779 835.803 556.107 835.536 557.721 835.568C559.334 835.6 560.621 835.919 560.596 836.28C560.57 836.642 559.241 836.909 557.628 836.877C556.015 836.845 554.727 836.526 554.753 836.164Z" fill="url(#paint28_linear_403_108)"/>
<path d="M571.354 829.975C571.039 829.832 571.258 828.675 571.843 827.392C572.427 826.108 573.156 825.184 573.471 825.327C573.785 825.47 573.566 826.627 572.982 827.91C572.397 829.194 571.668 830.118 571.354 829.975Z" fill="url(#paint29_linear_403_108)"/>
<path d="M570.94 829.787C570.398 829.54 570.432 828.299 571.016 827.015C571.601 825.732 572.515 824.892 573.057 825.139C573.6 825.386 573.566 826.627 572.981 827.91C572.397 829.194 571.483 830.034 570.94 829.787Z" fill="#D8EA10"/>
<path d="M571.873 829.465C571.781 829.423 572.039 828.66 572.448 827.761C572.858 826.862 573.264 826.167 573.355 826.209C573.447 826.251 573.189 827.013 572.78 827.912C572.37 828.811 571.964 829.506 571.873 829.465Z" fill="#2E3202"/>
<path d="M571.439 812.161C571.261 812.282 570.715 811.792 570.221 811.066C569.726 810.34 569.468 809.653 569.646 809.531C569.824 809.41 570.37 809.9 570.865 810.626C571.36 811.353 571.617 812.04 571.439 812.161Z" fill="#D8EA10"/>
<path d="M571.205 812.32C570.898 812.529 570.248 812.11 569.753 811.384C569.258 810.658 569.106 809.9 569.413 809.691C569.72 809.481 570.37 809.9 570.865 810.626C571.36 811.353 571.512 812.111 571.205 812.32Z" fill="#D8EA10"/>
<path d="M571.334 811.719C571.283 811.755 570.96 811.371 570.613 810.862C570.266 810.354 570.027 809.913 570.079 809.878C570.131 809.842 570.454 810.226 570.801 810.735C571.147 811.243 571.386 811.684 571.334 811.719Z" fill="#2B2F01"/>
<path d="M561.474 818.848C561.474 819.697 560.785 820.386 559.936 820.386C559.087 820.386 558.398 819.697 558.398 818.848C558.398 817.998 559.087 817.31 559.936 817.31C560.785 817.31 561.474 817.998 561.474 818.848Z" fill="#A6B316"/>
<path d="M548.185 830.086C547.799 830.419 547.037 830.167 546.482 829.523C545.928 828.88 545.791 828.088 546.177 827.756C546.563 827.423 547.326 827.675 547.88 828.319C548.435 828.962 548.571 829.754 548.185 830.086Z" fill="#636B0D"/>
<path d="M560.244 808.389C560.244 808.899 559.555 809.312 558.706 809.312C557.856 809.312 557.168 808.899 557.168 808.389C557.168 807.879 557.856 807.466 558.706 807.466C559.555 807.466 560.244 807.879 560.244 808.389Z" fill="#D8EA10"/>
<path d="M569.32 827.849C569.656 828.233 569.408 828.997 568.768 829.555C568.128 830.114 567.338 830.255 567.003 829.871C566.667 829.487 566.915 828.723 567.555 828.165C568.195 827.606 568.985 827.465 569.32 827.849Z" fill="#575F06"/>
</g>
<g filter="url(#filter3_d_403_108)">
<path d="M251.956 528.743C271.428 573.259 251.125 625.132 206.609 644.604C162.093 664.076 110.22 643.773 90.748 599.257C71.2761 554.741 91.5787 502.868 136.095 483.396C180.612 463.924 232.484 484.227 251.956 528.743Z" fill="#D8EA10"/>
<path d="M136.332 538.278C139.329 545.127 136.206 553.107 129.357 556.104C122.509 559.1 114.528 555.977 111.532 549.129C108.536 542.28 111.659 534.299 118.507 531.303C125.355 528.307 133.336 531.43 136.332 538.278Z" fill="url(#paint30_linear_403_108)"/>
<path d="M218.994 502.442C220.715 504.437 220.39 507.047 218.269 508.27C216.147 509.493 213.033 508.868 211.313 506.872C209.592 504.877 209.917 502.267 212.039 501.044C214.16 499.82 217.274 500.446 218.994 502.442Z" fill="url(#paint31_linear_403_108)"/>
<path d="M250.078 565.673C252.756 566.605 253.881 570.364 252.591 574.069C251.302 577.774 248.085 580.021 245.407 579.089C242.729 578.157 241.604 574.398 242.894 570.693C244.184 566.988 247.4 564.741 250.078 565.673Z" fill="url(#paint32_linear_403_108)"/>
<path d="M168.783 479.203C168.955 480.713 165.936 482.299 162.038 482.745C158.141 483.191 154.841 482.328 154.668 480.818C154.496 479.308 157.515 477.722 161.413 477.276C165.31 476.83 168.61 477.693 168.783 479.203Z" fill="url(#paint33_linear_403_108)"/>
<path d="M201.804 614.546C203.695 624.389 195.76 634.187 184.082 636.43C172.403 638.672 161.404 632.511 159.513 622.668C157.623 612.825 165.558 603.027 177.236 600.785C188.914 598.542 199.914 604.703 201.804 614.546Z" fill="url(#paint34_linear_403_108)"/>
<path d="M141.667 479.873C142.254 481.074 138.755 483.99 133.853 486.385C128.95 488.78 124.5 489.748 123.913 488.547C123.326 487.346 126.825 484.43 131.727 482.035C136.63 479.64 141.08 478.672 141.667 479.873Z" fill="#D8EA10"/>
<path d="M142.438 481.451C143.451 483.524 140.298 487.146 135.395 489.542C130.492 491.937 125.696 492.198 124.684 490.126C123.671 488.053 126.825 484.431 131.727 482.035C136.63 479.64 141.426 479.378 142.438 481.451Z" fill="#D8EA10"/>
<path d="M138.861 480.121C139.032 480.471 136.387 482.114 132.953 483.792C129.519 485.469 126.597 486.546 126.427 486.197C126.256 485.847 128.901 484.204 132.335 482.526C135.768 480.849 138.691 479.772 138.861 480.121Z" fill="#313502"/>
<path d="M80.3281 576.97C82.4093 576.336 86.1935 582.709 88.7803 591.204C91.367 599.699 91.7768 607.099 89.6955 607.733C87.6142 608.366 83.83 601.994 81.2433 593.499C78.6565 585.004 78.2468 577.603 80.3281 576.97Z" fill="#D8EA10"/>
<path d="M83.0618 576.136C86.6533 575.043 91.6617 581.043 94.2485 589.538C96.8352 598.033 96.0207 605.806 92.4293 606.9C88.8378 607.993 83.8294 601.993 81.2426 593.498C78.6559 585.003 79.4704 577.23 83.0618 576.136Z" fill="#D8EA10"/>
<path d="M80.0049 581.542C80.6105 581.358 82.5701 586.031 84.3818 591.981C86.1934 597.93 87.1712 602.903 86.5656 603.087C85.96 603.272 84.0004 598.598 82.1887 592.649C80.3771 586.699 79.3993 581.726 80.0049 581.542Z" fill="#2E3202"/>
<path d="M154.641 647.403C154.782 645.415 162.089 643.946 170.963 644.122C179.837 644.298 186.917 646.053 186.776 648.041C186.635 650.029 179.328 651.498 170.454 651.322C161.58 651.146 154.5 649.391 154.641 647.403Z" fill="url(#paint35_linear_403_108)"/>
<path d="M245.946 613.363C244.216 612.575 245.42 606.214 248.635 599.154C251.851 592.094 255.859 587.01 257.589 587.798C259.318 588.585 258.114 594.947 254.899 602.006C251.684 609.066 247.676 614.151 245.946 613.363Z" fill="url(#paint36_linear_403_108)"/>
<path d="M243.673 612.329C240.688 610.97 240.875 604.145 244.09 597.085C247.305 590.025 252.331 585.404 255.315 586.764C258.3 588.123 258.113 594.948 254.898 602.007C251.683 609.067 246.658 613.688 243.673 612.329Z" fill="#D8EA10"/>
<path d="M248.799 610.555C248.296 610.326 249.714 606.132 251.965 601.188C254.217 596.243 256.45 592.421 256.954 592.65C257.457 592.879 256.04 597.073 253.788 602.018C251.536 606.962 249.303 610.784 248.799 610.555Z" fill="#2E3202"/>
<path d="M246.414 515.385C245.436 516.052 242.435 513.355 239.713 509.361C236.991 505.368 235.577 501.589 236.555 500.922C237.534 500.255 240.534 502.952 243.256 506.946C245.979 510.939 247.393 514.717 246.414 515.385Z" fill="#D8EA10"/>
<path d="M245.129 516.261C243.441 517.412 239.865 515.107 237.142 511.114C234.42 507.12 233.582 502.95 235.27 501.799C236.958 500.648 240.534 502.952 243.257 506.946C245.979 510.939 246.817 515.11 245.129 516.261Z" fill="#D8EA10"/>
<path d="M245.84 512.956C245.555 513.15 243.779 511.04 241.872 508.243C239.965 505.446 238.65 503.022 238.935 502.827C239.22 502.633 240.996 504.743 242.903 507.54C244.81 510.337 246.125 512.762 245.84 512.956Z" fill="#2B2F01"/>
<path d="M191.607 552.163C191.607 556.835 187.82 560.622 183.148 560.622C178.476 560.622 174.688 556.835 174.688 552.163C174.688 547.491 178.476 543.703 183.148 543.703C187.82 543.703 191.607 547.491 191.607 552.163Z" fill="#A6B316"/>
<path d="M118.518 613.974C116.394 615.804 112.201 614.418 109.151 610.878C106.102 607.338 105.352 602.986 107.475 601.156C109.599 599.326 113.793 600.713 116.842 604.252C119.892 607.792 120.642 612.144 118.518 613.974Z" fill="#636B0D"/>
<path d="M184.84 494.639C184.84 497.442 181.053 499.715 176.381 499.715C171.709 499.715 167.921 497.442 167.921 494.639C167.921 491.836 171.709 489.563 176.381 489.563C181.053 489.563 184.84 491.836 184.84 494.639Z" fill="#D8EA10"/>
<path d="M234.762 601.668C236.605 603.78 235.246 607.983 231.725 611.054C228.205 614.126 223.857 614.904 222.014 612.791C220.171 610.679 221.531 606.477 225.051 603.405C228.572 600.334 232.92 599.556 234.762 601.668Z" fill="#575F06"/>
</g>
<path d="M418.524 10.528C422.41 19.4139 418.358 29.7682 409.472 33.655C400.586 37.5418 390.232 33.4892 386.345 24.6033C382.458 15.7174 386.511 5.36306 395.397 1.47628C404.283 -2.4105 414.637 1.6421 418.524 10.528Z" fill="#D8EA10"/>
<path d="M395.444 12.4313C396.042 13.7983 395.419 15.3914 394.052 15.9895C392.685 16.5875 391.092 15.9642 390.494 14.5972C389.896 13.2302 390.519 11.6372 391.886 11.0391C393.253 10.441 394.846 11.0643 395.444 12.4313Z" fill="url(#paint37_linear_403_108)"/>
<path d="M411.944 5.27801C412.288 5.67633 412.223 6.1972 411.799 6.44141C411.376 6.68562 410.754 6.56069 410.411 6.16237C410.068 5.76405 410.132 5.24317 410.556 4.99896C410.979 4.75475 411.601 4.87969 411.944 5.27801Z" fill="url(#paint38_linear_403_108)"/>
<path d="M418.149 17.8996C418.683 18.0857 418.908 18.8361 418.651 19.5756C418.393 20.3151 417.751 20.7637 417.216 20.5776C416.682 20.3915 416.457 19.6411 416.715 18.9016C416.972 18.1621 417.614 17.7135 418.149 17.8996Z" fill="url(#paint39_linear_403_108)"/>
<path d="M408.513 27.6551C408.89 29.6199 407.306 31.5756 404.975 32.0233C402.644 32.471 400.449 31.2412 400.071 29.2764C399.694 27.3116 401.278 25.3559 403.609 24.9082C405.94 24.4605 408.136 25.6903 408.513 27.6551Z" fill="url(#paint40_linear_403_108)"/>
<path d="M396.509 0.773072C396.626 1.01284 395.928 1.59482 394.949 2.07296C393.97 2.5511 393.082 2.74433 392.965 2.50456C392.848 2.26479 393.546 1.68281 394.525 1.20468C395.504 0.726538 396.392 0.533302 396.509 0.773072Z" fill="#D8EA10"/>
<path d="M396.663 1.08811C396.865 1.50186 396.236 2.22487 395.257 2.70301C394.278 3.18115 393.321 3.23335 393.119 2.8196C392.917 2.40586 393.546 1.68284 394.525 1.2047C395.504 0.726566 396.461 0.674365 396.663 1.08811Z" fill="#D8EA10"/>
<path d="M395.949 0.822683C395.983 0.892447 395.455 1.22047 394.77 1.55533C394.084 1.8902 393.501 2.10511 393.467 2.03535C393.433 1.96559 393.961 1.63757 394.646 1.3027C395.332 0.967829 395.915 0.752919 395.949 0.822683Z" fill="#313502"/>
<path d="M384.265 20.1545C384.681 20.028 385.436 21.3001 385.952 22.9958C386.469 24.6914 386.55 26.1686 386.135 26.2951C385.719 26.4216 384.964 25.1495 384.448 23.4539C383.931 21.7582 383.85 20.281 384.265 20.1545Z" fill="#D8EA10"/>
<path d="M384.811 19.9882C385.528 19.7699 386.527 20.9676 387.044 22.6632C387.56 24.3589 387.397 25.9105 386.681 26.1288C385.964 26.3471 384.964 25.1494 384.448 23.4538C383.931 21.7581 384.094 20.2065 384.811 19.9882Z" fill="#D8EA10"/>
<path d="M384.201 21.0672C384.321 21.0304 384.713 21.9633 385.074 23.1509C385.436 24.3385 385.631 25.3311 385.51 25.3679C385.389 25.4047 384.998 24.4718 384.637 23.2842C384.275 22.0966 384.08 21.104 384.201 21.0672Z" fill="#2E3202"/>
<path d="M399.099 34.2137C399.127 33.8168 400.585 33.5236 402.357 33.5587C404.128 33.5939 405.541 33.9442 405.513 34.3411C405.485 34.7379 404.026 35.0312 402.255 34.996C400.484 34.9608 399.071 34.6105 399.099 34.2137Z" fill="url(#paint41_linear_403_108)"/>
<path d="M417.324 27.419C416.979 27.2617 417.219 25.9919 417.861 24.5827C418.503 23.1736 419.303 22.1587 419.648 22.3159C419.993 22.4731 419.753 23.7429 419.111 25.1521C418.469 26.5613 417.669 27.5762 417.324 27.419Z" fill="url(#paint42_linear_403_108)"/>
<path d="M416.87 27.2126C416.275 26.9413 416.312 25.5789 416.954 24.1698C417.595 22.7606 418.599 21.8382 419.194 22.1095C419.79 22.3808 419.753 23.7431 419.111 25.1523C418.469 26.5615 417.466 27.4839 416.87 27.2126Z" fill="#D8EA10"/>
<path d="M417.894 26.8585C417.793 26.8128 418.076 25.9756 418.526 24.9887C418.975 24.0017 419.421 23.2387 419.521 23.2845C419.622 23.3302 419.339 24.1674 418.889 25.1543C418.44 26.1413 417.994 26.9043 417.894 26.8585Z" fill="#2E3202"/>
<path d="M417.417 7.86152C417.222 7.99466 416.623 7.45636 416.08 6.6592C415.536 5.86203 415.254 5.10787 415.449 4.97472C415.645 4.84158 416.244 5.37987 416.787 6.17704C417.33 6.97421 417.613 7.72837 417.417 7.86152Z" fill="#D8EA10"/>
<path d="M417.161 8.03641C416.824 8.26615 416.11 7.80618 415.567 7.00904C415.023 6.21189 414.856 5.37943 415.193 5.14969C415.53 4.91994 416.244 5.37991 416.787 6.17705C417.331 6.9742 417.498 7.80666 417.161 8.03641Z" fill="#D8EA10"/>
<path d="M417.303 7.37676C417.246 7.4155 416.891 6.99432 416.511 6.43603C416.13 5.87774 415.868 5.39375 415.925 5.35501C415.981 5.31627 416.336 5.73745 416.717 6.29574C417.097 6.85404 417.36 7.33802 417.303 7.37676Z" fill="#2B2F01"/>
<path d="M406.477 15.2029C406.477 16.1354 405.721 16.8914 404.789 16.8914C403.856 16.8914 403.1 16.1354 403.1 15.2029C403.1 14.2703 403.856 13.5143 404.789 13.5143C405.721 13.5143 406.477 14.2703 406.477 15.2029Z" fill="#A6B316"/>
<path d="M391.888 27.541C391.464 27.9062 390.627 27.6295 390.018 26.9229C389.41 26.2164 389.26 25.3475 389.684 24.9823C390.108 24.6171 390.945 24.8938 391.554 25.6004C392.162 26.3069 392.312 27.1757 391.888 27.541Z" fill="#636B0D"/>
<path d="M405.127 3.72054C405.127 4.28008 404.371 4.73367 403.438 4.73367C402.506 4.73367 401.75 4.28008 401.75 3.72054C401.75 3.161 402.506 2.7074 403.438 2.7074C404.371 2.7074 405.127 3.161 405.127 3.72054Z" fill="#D8EA10"/>
<path d="M415.092 25.0846C415.46 25.5062 415.188 26.345 414.485 26.9581C413.783 27.5712 412.915 27.7265 412.547 27.3049C412.179 26.8832 412.45 26.0444 413.153 25.4313C413.856 24.8182 414.724 24.663 415.092 25.0846Z" fill="#575F06"/>
<path d="M611.384 364.357L615.251 365.86L627.709 361.35C627.709 361.35 630.274 363.493 631.791 365.001C632.927 366.132 633.812 366.604 634.583 368.009C634.891 368.569 635.423 368.904 635.228 369.512C635.063 370.023 634.653 370.174 634.154 370.371C633.529 370.618 633.101 370.458 632.435 370.371C630.872 370.167 628.998 368.653 628.354 369.083C627.709 369.512 627.642 370.535 627.28 371.875C626.918 373.216 629.494 376.906 628.354 379.823C628.039 380.627 628.054 381.374 627.28 381.756C626.678 382.053 626.205 381.944 625.561 381.756C624.364 381.406 624.155 380.396 623.413 379.393C622.03 377.523 620.836 374.023 620.836 374.023C620.836 374.023 621.666 376.74 621.91 378.534C622.08 379.784 622.434 380.533 622.124 381.756C621.968 382.375 622.015 382.911 621.48 383.26C621.122 383.493 620.834 383.475 620.406 383.475C619.978 383.475 619.721 383.438 619.332 383.26C618.629 382.937 618.466 382.404 618.043 381.756C617.447 380.843 617.376 380.19 616.969 379.178C616.068 376.937 614.821 373.379 614.821 373.379C614.821 373.379 615.24 377.341 614.821 379.823C614.692 380.585 615.044 381.341 614.391 381.756C614.1 381.942 613.878 381.971 613.532 381.971C613.186 381.971 612.986 381.904 612.673 381.756C611.853 381.368 611.8 380.629 611.384 379.823C610.739 378.573 610.568 377.768 610.31 376.386C609.91 374.242 609.777 372.986 609.881 370.801C609.945 369.45 609.991 368.679 610.31 367.364C610.604 366.152 611.384 364.357 611.384 364.357Z" fill="#C0C0C0"/>
<path d="M614.821 304.211C614.821 304.211 628.475 289.497 639.739 284.02C651.767 278.17 673.248 276.931 673.248 276.931C673.248 276.931 681.968 289.561 686.137 298.412C692.402 311.714 696.877 334.499 696.877 334.499L649.834 362.209C649.834 362.209 637.056 347.583 630.502 337.077C622.975 325.011 614.821 304.211 614.821 304.211Z" fill="#CACACA"/>
<path d="M631.576 281.442C620.312 286.92 606.658 301.634 606.658 301.634C606.658 301.634 614.813 322.433 622.339 334.499C628.893 345.005 641.671 359.631 641.671 359.631L649.834 362.209C649.834 362.209 637.056 347.583 630.502 337.077C622.975 325.011 614.821 304.211 614.821 304.211C614.821 304.211 628.475 289.497 639.739 284.02C651.767 278.17 673.248 276.931 673.248 276.931C673.248 276.931 681.968 289.561 686.137 298.412C691.925 310.699 696.184 331.078 696.8 334.116L696.877 334.069C696.877 334.069 694.09 313.287 688.714 301.204C684.145 290.935 673.248 276.931 673.248 276.931L665.086 274.353C665.086 274.353 643.605 275.592 631.576 281.442Z" fill="#ACAAAA"/>
<path d="M606.658 301.634C606.658 301.634 614.813 322.433 622.339 334.499C628.893 345.005 641.671 359.631 641.671 359.631L649.834 362.209C649.834 362.209 637.056 347.583 630.502 337.077C622.975 325.011 614.821 304.211 614.821 304.211L606.658 301.634Z" fill="#BBB8B8"/>
<path d="M620.836 374.024C620.836 374.024 622.03 377.523 623.413 379.394C624.155 380.396 624.364 381.407 625.561 381.757C626.205 381.945 626.678 382.053 627.28 381.757C627.882 381.46 627.426 380.829 627.065 380.468C626.705 380.107 626.226 380.494 625.777 380.253C625.015 379.846 625.157 379.054 624.702 378.32C624.163 377.449 623.713 377.057 623.199 376.172C622.822 375.523 622.938 374.906 622.34 374.453C621.852 374.085 620.836 374.024 620.836 374.024Z" fill="#D6D6D6"/>
<path d="M614.82 373.379C614.82 373.379 616.067 376.938 616.968 379.179C617.375 380.19 617.446 380.843 618.043 381.756C618.465 382.404 618.629 382.937 619.331 383.26C619.72 383.438 619.978 383.475 620.405 383.475C620.833 383.475 620.644 382.961 620.621 382.615C620.575 381.962 620.793 381.855 620.406 381.327C619.827 380.538 619.512 380.685 619.05 379.823C618.482 378.764 617.92 377.468 617.398 376.386C616.99 375.542 617.386 374.931 616.754 374.238C616.392 373.841 615.642 373.467 614.82 373.379Z" fill="#D6D6D6"/>
<path d="M610.31 367.365C609.991 368.679 609.945 369.45 609.881 370.801C609.777 372.986 609.91 374.242 610.31 376.386C610.568 377.769 610.739 378.574 611.384 379.823C611.8 380.63 611.853 381.368 612.673 381.757C612.986 381.905 613.186 381.971 613.532 381.971C613.532 381.971 612.585 379.128 612.244 377.246C611.972 375.751 611.718 374.895 611.814 373.379C611.907 371.917 612.116 371.082 612.673 369.727C613.363 368.049 615.251 365.861 615.251 365.861L611.384 364.357C611.384 364.357 610.604 366.153 610.31 367.365Z" fill="#D6D6D6"/>
<path d="M627.996 296.661C627.952 296.346 628.221 296.082 628.537 296.111C630.16 296.258 631.434 296.224 633.295 296.049C637.104 295.689 639.182 294.862 642.746 293.471C644.46 292.802 645.403 292.372 647.042 291.538C650.133 289.965 651.777 288.881 654.56 286.812C657.216 284.839 658.929 283.884 660.96 281.343C661.112 281.153 661.378 281.092 661.585 281.218C664.23 282.82 664.282 285.581 665.515 287.671C665.515 287.671 660.439 289.555 657.568 292.182C654.458 295.028 652.309 296.087 648.331 297.767C644.586 299.35 641.839 300.049 637.806 300.56C634.294 301.005 630.502 303.137 630.502 303.137C629.163 300.563 628.324 299.046 627.996 296.661Z" fill="url(#paint43_linear_403_108)"/>
<path d="M696.233 393.141C696.405 392.149 696.233 390.564 696.233 390.564L711.269 394.43L710.195 398.082C710.195 398.082 715.823 404.141 716.639 409.037C717.069 411.615 715.844 417.414 712.128 417.414C705.47 417.414 702.834 414.402 699.025 409.896C695.626 405.875 692.437 402.504 693.87 397.437C694.391 395.595 695.906 395.028 696.233 393.141Z" fill="#C0C0C0"/>
<path d="M710.195 398.081L711.269 394.43H705.899C705.899 394.43 704.871 396.36 705.04 397.652C705.258 399.315 706.249 400.119 707.617 401.089C709.047 402.101 710.475 401.379 711.914 402.377C713.237 403.296 713.56 404.284 714.491 405.599C715.406 406.891 716.639 409.036 716.639 409.036C715.823 404.14 710.195 398.081 710.195 398.081Z" fill="#9C9C9C"/>
<path d="M696.233 393.141C695.906 395.028 694.391 395.595 693.87 397.437C692.437 402.504 695.626 405.875 699.025 409.896C702.834 414.402 705.47 417.414 712.128 417.414C712.128 417.414 707.501 416.293 705.04 414.622C702.337 412.786 701.187 411.163 699.455 408.392C698.322 406.579 697.53 405.545 697.092 403.452C696.714 401.646 696.501 400.474 697.092 398.726C697.54 397.404 698.468 396.999 699.025 395.719C699.545 394.525 699.885 392.497 699.885 392.497L696.233 390.564C696.233 390.564 696.405 392.149 696.233 393.141Z" fill="#D6D6D6"/>
<path d="M628.225 297.982C629.513 298.412 632.325 298.609 634.412 298.412C638.221 298.052 640.471 297.44 644.035 296.049C645.749 295.38 646.691 294.95 648.331 294.115C651.422 292.543 653.495 291.243 656.279 289.175C659.047 287.118 662.25 284.879 663.325 282.731C663.754 283.16 664.216 284.423 664.7 286.168C664.7 286.168 661.557 291.488 658.685 294.115C655.576 296.961 653.427 298.02 649.449 299.7C645.704 301.283 642.957 301.982 638.923 302.493C635.412 302.938 629.902 301.634 629.902 301.634C629.471 301.634 628.439 299.271 628.225 297.982Z" fill="url(#paint44_linear_403_108)"/>
<path d="M713.417 278.65C713.417 278.65 714.893 278.524 715.78 278.22C716.774 277.879 717.296 277.554 718.143 276.931C719.099 276.229 719.445 275.615 720.291 274.783C722.83 272.286 726.95 268.554 726.95 268.554C726.95 268.554 727.748 268.197 728.239 268.339C728.642 268.455 728.833 268.658 729.098 268.983C729.334 269.275 729.453 269.475 729.528 269.843C729.628 270.343 729.433 270.636 729.313 271.131C728.768 273.369 726.091 275.975 726.52 276.287L726.95 276.502C727.379 276.502 729.437 274.454 731.246 273.494C732.142 273.02 732.627 272.672 733.609 272.42C734.506 272.19 735.192 271.705 735.972 272.205C736.481 272.532 736.672 272.911 736.831 273.494C736.963 273.98 736.889 274.283 736.831 274.783C736.51 277.553 731.224 278.864 731.676 279.724C731.816 279.991 731.835 280.233 732.105 280.368C732.535 280.583 734.219 280.395 735.542 280.153C737.291 279.834 738.067 278.797 739.838 278.65C740.423 278.601 740.786 278.461 741.342 278.65C741.962 278.86 742.497 279.082 742.631 279.724C742.739 280.243 742.449 280.544 742.201 281.012C741.757 281.851 741.232 282.148 740.483 282.731C739.298 283.652 738.436 283.885 737.046 284.449C735.028 285.269 733.583 284.903 731.676 285.953C730.779 286.447 729.528 286.433 729.528 287.457C729.528 288.96 733.816 289.609 734.253 292.182C734.38 292.927 734.694 293.503 734.253 294.116C733.834 294.697 733.242 294.643 732.535 294.76C730.781 295.05 729.946 293.751 728.239 293.256C726.421 292.73 725.395 292.386 723.513 292.182C721.762 291.993 719.002 292.182 719.002 292.182L718.358 281.872L713.417 278.65Z" fill="#C0C0C0"/>
<path d="M739.838 278.65C738.066 278.797 737.29 279.834 735.542 280.153C735.112 280.368 735.111 280.369 734.897 280.583L734.897 280.583C734.683 280.797 734.408 280.931 734.468 281.227C734.527 281.524 734.827 281.555 735.112 281.657C735.764 281.89 736.184 281.475 736.831 281.227C737.356 281.026 737.583 280.753 738.119 280.583C738.606 280.429 738.903 280.443 739.408 280.368C740.077 280.269 740.465 280.291 741.127 280.153C741.725 280.029 742.764 280.365 742.63 279.724C742.497 279.082 741.962 278.86 741.341 278.65C740.785 278.461 740.423 278.601 739.838 278.65Z" fill="#D6D6D6"/>
<path d="M731.246 273.494C729.527 274.568 728.453 275.428 728.453 275.428C728.453 275.428 727.979 275.824 728.238 276.287C728.577 276.89 729.297 276.921 729.957 276.716C730.472 276.488 730.736 276.31 731.246 276.072C731.825 275.802 732.201 275.754 732.75 275.428C733.517 274.972 733.714 274.399 734.468 273.924C734.944 273.624 735.446 273.748 735.757 273.28C735.994 272.923 736.752 272.706 735.972 272.206C735.192 271.705 734.507 272.19 733.609 272.42C732.627 272.672 732.106 272.957 731.246 273.494Z" fill="#D6D6D6"/>
<path d="M715.78 278.22C714.893 278.524 714.213 278.153 713.417 278.65C711.463 279.869 716.086 282.252 718.358 281.872C719.621 281.66 719.985 280.685 721.15 280.153C721.802 279.856 722.289 279.931 722.869 279.509C723.398 279.123 723.725 278.838 723.943 278.22C724.288 277.241 723.14 276.668 723.298 275.642C723.491 274.399 724.484 274.077 725.231 273.065C725.909 272.147 726.159 271.524 726.95 270.702C727.695 269.928 729.362 269.309 729.098 268.983C728.833 268.658 728.642 268.455 728.239 268.339C727.748 268.197 726.95 268.554 726.95 268.554C726.95 268.554 722.83 272.286 720.291 274.783C719.445 275.615 719.099 276.229 718.143 276.931C717.296 277.554 716.774 277.879 715.78 278.22Z" fill="#D6D6D6"/>
<path d="M671.052 418.405C671.791 417.365 673.017 415.795 673.017 415.795L680.875 417.1L685.922 415.266L689.389 407.748C689.389 407.748 690.226 409.855 690.698 411.228C691.162 412.574 691.573 413.3 691.79 414.708C692.222 417.51 691.652 419.214 690.698 421.885C689.287 425.839 687.317 427.588 684.368 430.585C681.515 433.484 676.073 436.892 676.073 436.892C676.073 436.892 670.13 439.747 667.341 437.762C665.841 436.694 665.259 435.605 664.722 433.847C663.807 430.851 665.328 428.936 666.468 426.018C667.731 422.787 669.042 421.235 671.052 418.405Z" fill="#C0C0C0"/>
<path d="M690.698 411.228C690.225 409.855 689.388 407.748 689.388 407.748C689.388 407.748 684.778 412.242 685.922 415.266C686.531 416.876 688.341 416.87 688.929 418.488C689.827 420.957 688.227 422.611 686.996 424.932C686.014 426.785 685.178 427.67 683.774 429.228C682.184 430.993 681.467 431.764 679.907 433.31C678.452 434.752 676.073 436.892 676.073 436.892C676.073 436.892 681.515 433.484 684.368 430.585C687.316 427.588 689.286 425.839 690.698 421.885C691.652 419.214 692.222 417.51 691.79 414.708C691.573 413.3 691.162 412.574 690.698 411.228Z" fill="#9C9C9C"/>
<path d="M671.053 418.405C669.043 421.235 667.731 422.787 666.469 426.018C665.328 428.937 663.808 430.851 664.722 433.848C665.259 435.607 666.16 437.176 667.342 437.763C667.235 437.089 667.018 437.444 666.805 436.102C666.591 434.761 666.299 433.48 666.469 431.806C666.673 429.785 667.239 428.708 668.093 426.866C669.01 424.89 669.478 423.644 671.053 422.14C671.751 421.472 672.221 421.183 673.017 420.636C675.791 418.73 681.409 419.775 680.876 417.1C680.267 414.049 673.017 415.795 673.017 415.795C673.017 415.795 671.791 417.365 671.053 418.405Z" fill="#D6D6D6"/>
<path d="M628.845 300.058C634.215 300.058 635.615 300.108 639.739 299.271C643.898 298.427 646.23 297.685 650.049 295.834C653.546 294.139 655.468 292.983 658.427 290.464C660.957 288.309 662.938 286.168 664.226 284.234C665.086 285.308 665.043 285.799 665.945 286.383C666.26 286.586 666.448 286.695 666.804 286.812C668.344 287.316 669.098 285.698 670.671 285.308C672.632 284.822 673.811 285.03 675.826 284.879C680.183 284.551 682.638 284.553 686.996 284.234C690.859 283.952 693.058 284.025 696.877 283.375C703.024 282.329 705.901 278.961 712.128 278.65C713.385 278.587 714.122 278.376 715.35 278.65C718.077 279.256 719.064 281.126 720.72 283.375C721.899 284.977 722.766 285.923 723.083 287.886C723.453 290.177 723.341 291.956 721.794 293.686C720.059 295.628 717.757 294.409 715.35 295.404C712.638 296.526 711.716 298.424 708.906 299.271C707.043 299.833 705.849 299.429 703.965 299.915C700.587 300.787 699.26 302.707 696.018 303.997C693.725 304.909 692.428 305.476 690.003 305.93C688.264 306.256 687.258 306.249 685.492 306.359C682.143 306.568 681.84 305.5 677.759 306.359C677.759 307.433 677.782 307.822 678.404 308.722C679.758 310.685 680.804 311.568 682.27 313.448C687.563 320.237 688.236 325.81 694.299 331.921C695.046 332.674 695.666 332.922 696.259 333.801C697.081 335.019 696.596 336.144 697.36 337.399C698.611 339.455 700.299 339.782 702.422 340.916C703.996 341.758 705.1 341.786 706.624 342.715C708.444 343.826 709.213 344.816 710.732 346.313C711.989 347.553 712.54 348.397 713.793 349.643C715.553 351.393 717.063 351.861 718.572 353.832C719.896 355.559 720.519 356.689 721.15 358.772C721.666 360.475 721.889 361.506 721.794 363.283C721.683 365.377 720.87 366.423 720.291 368.438C718.992 372.957 718.669 375.617 717.069 380.038C715.471 384.451 713.471 386.496 712.128 390.993C711.487 393.138 712.415 394.988 710.839 396.578C709.419 398.01 707.915 398.044 705.899 398.081C703.905 398.118 702.739 397.69 700.958 396.793C699.722 396.169 699.002 395.766 698.058 394.752C696.921 393.529 695.357 392.651 695.158 390.993C694.514 385.623 695.488 383.776 696.662 379.393C697.243 377.226 698.605 376.265 698.703 374.023C698.782 372.223 698.52 371.134 697.736 369.512C693.655 367.149 691.292 367.149 683.559 365.646C683.129 365.646 681.84 365.646 680.981 369.727C680.552 372.52 681.315 375.259 682.27 378.964C683.154 382.392 683.402 384.38 684.418 387.771C685.782 392.323 687.119 394.679 688.714 399.155C689.489 401.33 690.325 402.455 690.648 404.74C690.882 406.402 690.923 407.382 690.648 409.037C690.154 411.997 689.449 413.841 687.64 416.34C686.7 417.638 686.271 418.611 684.848 419.347C683.276 420.161 682.106 419.74 680.337 419.777C678.657 419.811 677.691 419.875 676.041 419.562C674.659 419.3 673.765 419.282 672.604 418.488C671.522 417.748 671.233 416.966 670.456 415.91C668.032 412.616 667.123 410.301 665.515 406.459C663.456 401.537 662.805 398.564 661.649 393.356C661.167 391.188 661.055 389.939 660.575 387.771C659.633 383.518 660.059 382.585 657.997 378.749C656.801 376.524 654.795 374.093 653.808 371.768C652.857 369.526 653.272 367.831 652.197 365.646C650.809 362.824 650.909 365.646 647.686 359.202C644.797 353.422 641.242 351.039 639.524 344.81C639.226 343.731 639.111 343.112 638.879 342.017C638.597 340.681 638.5 339.92 638.235 338.58C637.5 334.867 637.161 330.632 636.087 329.129C635.67 329.085 635.432 329.108 635.013 329.129C631.576 329.303 634.426 341.992 631.146 349.321C630.533 350.69 629.83 351.312 629.428 352.757C628.867 354.778 629.869 356.077 629.428 358.128C628.939 360.402 628.385 361.75 626.85 363.498C625.499 365.037 624.501 365.87 622.554 366.505C620.481 367.181 619.14 366.716 616.969 366.505C615.102 366.324 613.865 366.59 612.243 365.646C610.858 364.839 610.064 364.119 609.451 362.639C608.777 361.011 609.641 359.879 609.451 358.128C609.276 356.508 608.85 355.654 608.592 354.046C608.364 352.629 607.968 351.817 608.162 350.395C608.306 349.343 608.774 348.849 609.021 347.817C609.395 346.258 609.416 345.338 609.451 343.736C609.495 341.716 608.922 340.598 609.021 338.58C609.084 337.312 609.287 336.617 609.451 335.358C609.899 331.922 609.552 329.877 610.525 326.551C610.875 325.354 611.061 324.669 611.599 323.544C612.151 322.389 612.607 321.817 613.318 320.751C614.183 319.453 614.826 318.835 615.68 317.529C617.529 314.704 617.761 312.662 619.547 309.796C620.408 308.414 620.85 307.596 621.91 306.359C623.734 304.23 624.773 302.521 627.495 301.849C627.99 301.726 628.407 301.979 628.784 301.634C629.221 301.233 628.684 300.629 628.845 300.058Z" fill="#260323"/>
<path d="M696.261 333.801C695.667 332.922 695.047 332.674 694.3 331.921C688.237 325.81 687.565 320.237 682.271 313.448C680.805 311.568 679.759 310.685 678.405 308.722C677.784 307.822 677.76 306.36 677.76 306.36C677.76 306.36 675.61 305.9 674.538 305.071C672.14 303.216 673.034 297.552 672.604 297.552C668.037 297.553 673.278 304.66 674.109 309.152C674.608 311.854 674.811 313.397 675.612 316.026C677.046 320.728 678.302 323.29 680.982 327.41C684.059 332.141 685.714 335.413 690.649 338.151C694.779 340.442 704.546 342.051 702.423 340.916C700.3 339.782 698.613 339.455 697.361 337.399C696.598 336.144 697.083 335.019 696.261 333.801Z" fill="#260323"/>
<path d="M677.759 306.359C681.84 305.5 682.143 306.568 685.492 306.359C688.841 306.151 681.851 305.509 679.907 304.211C678.476 303.256 677.828 302.491 676.685 301.204C675.448 299.812 672.604 297.552 672.604 297.552C672.604 297.552 672.516 299.957 672.819 301.204C673.17 302.649 673.018 303.765 674.108 304.856C675.143 305.892 677.759 306.359 677.759 306.359Z" fill="#260323"/>
<path d="M683.559 365.646C691.292 367.15 693.655 367.15 697.736 369.512C698.52 371.135 698.782 372.224 698.703 374.023C698.605 376.265 697.243 377.226 696.662 379.394C695.489 383.776 694.514 385.623 695.159 390.993C695.358 392.651 696.921 393.529 698.059 394.752C699.197 395.975 699.643 393.877 699.67 392.926C699.697 391.944 698.545 391.847 698.059 390.993C697.052 389.225 697.167 387.867 697.307 385.838C697.491 383.164 698.819 381.935 699.67 379.394C700.698 376.323 702.574 374.638 702.033 371.446C701.592 368.85 700.584 367.372 698.596 365.646C696.132 363.507 693.909 362.954 690.648 363.068C687.704 363.172 684.203 364.142 683.559 365.646Z" fill="#D8EA10"/>
<path d="M651.111 315.596L651.97 314.952C651.97 314.952 652.268 318.356 652.185 320.537C652.101 322.731 652.163 324.016 651.54 326.122C650.72 328.896 649.028 329.907 647.889 332.566C647.189 334.2 646.385 336.862 646.385 336.862C646.385 336.862 645.041 331.193 645.741 329.559C646.88 326.9 648.572 325.888 649.392 323.114C650.015 321.009 649.953 319.724 650.037 317.53C651.111 315.596 651.111 315.596 651.111 315.596Z" fill="#260323"/>
<path d="M628.784 301.634C628.407 301.979 627.99 301.726 627.495 301.849C624.773 302.521 623.734 304.23 621.91 306.359C620.85 307.597 620.408 308.414 619.547 309.796C617.761 312.662 617.529 314.704 615.68 317.529C614.826 318.835 614.183 319.453 613.318 320.751C612.607 321.817 612.151 322.389 611.599 323.544C611.061 324.669 610.875 325.354 610.525 326.551C609.552 329.877 609.899 331.922 609.451 335.358C609.287 336.617 609.084 337.312 609.021 338.58C608.922 340.598 609.495 341.716 609.451 343.736C609.416 345.338 609.395 346.259 609.021 347.817C608.774 348.849 608.306 349.343 608.162 350.395C607.968 351.817 608.364 352.629 608.592 354.046C608.85 355.654 609.276 356.508 609.451 358.128C609.641 359.879 608.777 361.011 609.451 362.639C610.064 364.119 610.858 364.839 612.243 365.646C613.865 366.59 615.102 366.324 616.969 366.505C618.836 366.686 617.276 357.957 618.043 352.543C619.008 345.732 620.035 341.977 621.91 335.358C623.746 328.875 624.903 325.253 627.495 319.033C630.424 312.003 643.332 304.562 636.302 301.634H628.784Z" fill="#260323"/>
<path d="M676.041 419.562C677.691 419.875 680.337 419.777 680.337 419.777C684.61 418.311 677.617 413.27 676.041 409.036C674.615 405.208 673.78 403.068 672.604 399.155C671.655 395.999 671.966 393.923 670.456 390.993C669.249 388.651 667.609 387.949 666.375 385.623C664.208 381.539 664.439 378.626 664.012 374.023C663.648 370.097 664.012 367.87 664.012 363.927C664.012 360.823 664.28 359.072 664.012 355.979C663.784 353.355 664.677 351.298 662.938 349.32C661.548 347.741 660.098 333.802 657.997 333.686C655.586 333.552 654.142 334.401 652.197 335.834C648.783 338.35 644.464 352.757 647.687 359.202C650.909 365.646 650.809 362.824 652.197 365.646C653.272 367.831 652.857 369.526 653.808 371.768C654.795 374.093 656.801 376.524 657.997 378.749C660.06 382.585 659.633 383.518 660.575 387.771C661.055 389.939 661.168 391.187 661.649 393.356L661.682 393.507C662.818 398.622 663.476 401.585 665.515 406.459C667.123 410.301 667.956 412.579 670.456 415.91C671.243 416.958 671.522 417.748 672.604 418.488C673.765 419.282 674.659 419.3 676.041 419.562Z" fill="#260323"/>
<path d="M653.221 300.785L653.952 300.334C653.952 300.334 657.805 305.232 659.969 308.581C664.008 314.833 664.969 319.075 668.562 325.593C670.507 329.121 671.778 330.997 673.718 334.528C676.564 339.711 678.903 342.352 680.592 348.018C682.109 353.107 682.311 361.508 682.311 361.508L681.58 361.959C681.58 361.959 681.378 353.559 679.861 348.47C678.172 342.803 675.833 340.162 672.987 334.98C671.047 331.449 669.776 329.573 667.831 326.044C664.238 319.526 663.277 315.284 659.238 309.033C657.074 305.684 653.221 300.785 653.221 300.785Z" fill="#D8EA10"/>
<path d="M665.515 286.168C665.515 286.168 666.163 286.577 666.589 286.726C667.449 287.027 667.415 286.897 667.878 286.812C668.738 286.597 669.117 285.885 670.026 285.523C670.594 285.297 670.932 285.219 671.53 285.094C672.601 284.87 673.231 284.949 674.322 284.879C676.333 284.749 677.465 284.754 679.478 284.664C681.24 284.585 682.228 284.551 683.989 284.449C686.34 284.313 687.653 284.169 690.003 284.02C691.429 283.929 693.655 283.805 693.655 283.805C694.046 284.21 694.13 284.557 694.299 285.094C694.978 287.248 693.766 288.885 692.151 290.464C690.33 292.245 688.452 292.106 685.922 292.397C682.645 292.774 680.826 291.659 677.545 291.323C671.61 290.715 662.293 290.464 662.293 290.464L664.227 288.316L665.515 286.168Z" fill="#260323"/>
<path d="M628.999 301.204C628.999 301.204 642.223 301.933 649.941 298.841C657.371 295.866 665.644 286.168 665.644 286.168C665.836 286.319 665.948 286.397 666.159 286.524C666.159 286.524 657.785 296.38 650.479 299.486C642.559 302.853 628.783 301.634 628.783 301.634C628.936 301.491 628.968 301.394 628.999 301.204Z" fill="url(#paint45_linear_403_108)"/>
<path d="M628.999 301.204C628.999 301.204 642.223 301.933 649.941 298.841C657.371 295.866 665.644 286.168 665.644 286.168C665.836 286.319 665.948 286.397 666.159 286.524C666.159 286.524 657.785 296.38 650.479 299.486C642.559 302.853 628.783 301.634 628.783 301.634C628.936 301.491 628.968 301.394 628.999 301.204Z" fill="#D8EA10"/>
<path d="M634.369 314.952H634.799C634.799 314.952 636.674 319.573 636.732 322.685C636.779 325.226 635.658 329.103 635.658 329.103C635.241 329.117 635.411 329.116 635.228 329.116C635.228 329.116 636.383 325.098 636.302 322.47C636.209 319.44 634.369 314.952 634.369 314.952Z" fill="#260323"/>
<path d="M601.928 260.433C602.524 257.621 603.217 256.077 604.684 253.559C606.067 251.188 607.115 249.981 609.049 247.975C611.78 245.143 613.624 243.754 617.09 241.745C620.435 239.806 622.533 239.005 626.279 237.879C630.366 236.65 632.787 236.106 637.077 235.945C640.494 235.818 642.452 235.967 645.807 236.59C647.813 236.963 648.975 237.137 650.861 237.879C652.676 238.592 653.654 239.132 655.226 240.242C659.237 243.075 660.335 245.915 662.577 250.123C663.744 252.312 664.259 253.608 665.104 255.922C665.976 258.311 666.516 259.66 666.942 262.152C667.551 265.714 667.947 267.906 666.942 271.388C666.127 274.214 665.074 275.658 663.266 278.047C661.652 280.18 660.573 281.298 658.442 282.988C655.801 285.081 653.906 285.744 650.861 287.284C647.118 289.176 645.032 290.361 640.982 291.58C635.124 293.343 631.366 294.77 625.36 293.513C622.222 292.857 620.504 292.103 617.779 290.506C615.619 289.239 614.555 288.3 612.725 286.64C608.848 283.122 606.865 280.736 604.684 276.114C602.006 270.436 600.636 266.521 601.928 260.433Z" fill="url(#paint46_linear_403_108)"/>
<path d="M605.762 273.321L616.287 290.506C616.287 290.506 613.12 290.663 611.347 289.861C609.346 288.957 608.553 287.773 607.265 285.995C606.011 284.263 605.436 283.125 604.903 281.054C604.212 278.374 605.762 273.321 605.762 273.321Z" fill="#B7B6B2"/>
<path d="M660.575 251.584C660.575 251.584 664.947 253.114 666.123 253.989C667.123 254.734 667.58 255.314 668.271 256.352C669.359 257.987 669.703 259.135 669.989 261.078C670.197 262.489 670.197 263.319 669.989 264.729C669.703 266.672 666.123 272.635 666.123 272.635L660.575 251.584Z" fill="#B7B7C3"/>
<g filter="url(#filter4_f_403_108)">
<path d="M664.834 255.953L665.788 255.278C665.788 255.278 666.723 256.757 667.22 257.753C667.898 259.112 668.208 259.911 668.651 261.354C668.865 262.05 669.237 262.437 669.128 263.154C669.022 263.856 668.174 264.729 668.174 264.729C668.174 264.729 667.689 262.509 667.22 261.129C666.506 259.03 664.834 255.953 664.834 255.953Z" fill="#62635E" fill-opacity="0.5"/>
</g>
<path d="M605.332 263.87C605.89 261.058 606.538 259.514 607.91 256.996C609.203 254.624 610.183 253.418 611.991 251.411C614.545 248.58 616.269 247.191 619.51 245.182C622.637 243.243 624.599 242.442 628.102 241.316C631.923 240.087 634.187 239.543 638.198 239.382C641.393 239.255 643.224 239.403 646.36 240.027C648.237 240.399 649.323 240.574 651.086 241.316C652.784 242.029 653.698 242.568 655.167 243.678C658.918 246.512 659.944 249.352 662.041 253.559C663.132 255.748 663.614 257.045 664.404 259.359C665.219 261.747 665.724 263.097 666.122 265.589C666.692 269.15 667.062 271.343 666.122 274.825C665.36 277.651 664.376 279.095 662.686 281.484C661.177 283.617 660.168 284.735 658.175 286.425C655.706 288.518 653.933 289.181 651.086 290.721C647.587 292.613 645.636 293.798 641.849 295.017C636.372 296.78 632.858 298.207 627.243 296.95C624.308 296.293 622.702 295.54 620.154 293.943C618.134 292.676 617.14 291.737 615.428 290.076C611.803 286.558 609.949 284.173 607.91 279.551C605.405 273.873 604.125 269.957 605.332 263.87Z" fill="url(#paint47_linear_403_108)"/>
<path d="M613.495 267.737C615.428 264.515 616.19 263.41 618.436 261.078C621.008 258.407 622.78 257.194 625.954 255.278C629.039 253.416 630.945 252.643 634.332 251.411C639.057 249.693 641.42 249.263 645.287 249.263C648.019 249.263 649.85 250.964 651.516 253.13C653.664 255.922 654.15 256.562 655.812 259.789C657.139 262.365 658.605 266.663 658.605 266.663C658.605 266.663 659.613 270.314 658.605 272.248C656.027 277.188 651.453 281.142 645.287 284.706C638.852 288.426 636.909 289.862 627.028 289.432C622.302 288.358 615.078 281.396 613.495 273.107C613.163 271.369 612.585 269.254 613.495 267.737Z" fill="url(#paint48_linear_403_108)"/>
<path d="M622.732 257.211C625.843 254.892 627.972 253.801 631.539 252.271C635.002 250.785 637.036 249.941 640.775 249.478C642.11 249.313 644.212 249.264 644.212 249.264C644.212 249.264 636.222 257.628 633.472 264.3C630.439 271.66 630.68 284.492 630.68 284.492L621.658 285.351C621.658 285.351 613.666 271.634 614.999 266.018C615.428 264.209 616.646 262.822 618.221 261.078C619.77 259.362 620.879 258.593 622.732 257.211Z" fill="url(#paint49_linear_403_108)"/>
<path fill-rule="evenodd" clip-rule="evenodd" d="M617.779 260.723C615.449 263.155 614.659 264.306 612.654 267.666C611.814 269.073 612.196 270.973 612.533 272.651C612.575 272.859 612.616 273.065 612.654 273.266C614.296 281.909 621.79 289.168 626.692 290.288C636.454 290.715 638.746 289.377 644.709 285.898L645.632 285.36C652.028 281.644 656.773 277.521 659.446 272.37C660.493 270.353 659.446 266.546 659.446 266.546C659.446 266.546 657.926 262.065 656.55 259.379C654.826 256.014 654.322 255.347 652.094 252.436C650.366 250.177 648.466 248.404 645.632 248.404C641.621 248.404 639.17 248.852 634.268 250.644C630.755 251.928 628.778 252.734 625.578 254.675C622.285 256.674 620.448 257.938 617.779 260.723ZM618.435 261.078C616.189 263.41 615.428 264.514 613.495 267.736C612.686 269.086 613.053 270.907 613.378 272.516C613.418 272.716 613.458 272.914 613.495 273.107C615.078 281.396 622.302 288.358 627.028 289.432C636.438 289.841 638.649 288.558 644.397 285.222C644.684 285.055 644.98 284.883 645.286 284.706C651.452 281.142 656.026 277.188 658.604 272.247C659.613 270.314 658.604 266.662 658.604 266.662C658.604 266.662 657.138 262.365 655.812 259.789C654.15 256.562 653.664 255.922 651.515 253.13C649.849 250.964 648.019 249.263 645.286 249.263C641.42 249.263 639.057 249.693 634.331 251.411C630.945 252.643 629.038 253.416 625.954 255.278C622.779 257.194 621.008 258.407 618.435 261.078Z" fill="url(#paint50_linear_403_108)"/>
<path d="M710.598 369.956C712.405 368.253 714.424 364.787 714.424 364.787C714.424 364.787 713.999 366.131 713.659 366.963C712.874 368.885 712.165 369.781 710.598 371.045C709.037 372.304 706.261 372.949 706.261 372.949C706.261 372.949 709.086 371.381 710.598 369.956Z" fill="#260323"/>
<g filter="url(#filter5_d_403_108)">
<path d="M823.744 513.133V480.315H752.714L745.745 462.557L796.771 346.345H836.332L791.825 447.272H823.744V418.95L831.162 398.495H862.631V447.272H877.691V474.246L862.631 480.315V513.133H823.744Z" fill="#FEECFC"/>
</g>
<path d="M628.25 592.3C625.85 592.3 623.733 592.067 621.9 591.6C620.1 591.133 618.583 590.267 617.35 589C616.15 587.733 615.25 585.867 614.65 583.4C614.05 580.933 613.75 577.7 613.75 573.7C613.75 569.7 614.05 566.467 614.65 564C615.25 561.5 616.167 559.6 617.4 558.3C618.633 556.967 620.15 556.067 621.95 555.6C623.75 555.1 625.85 554.85 628.25 554.85C630.717 554.85 632.85 555.1 634.65 555.6C636.483 556.067 638 556.967 639.2 558.3C640.4 559.6 641.3 561.5 641.9 564C642.5 566.467 642.8 569.7 642.8 573.7C642.8 577.7 642.5 580.933 641.9 583.4C641.3 585.867 640.383 587.733 639.15 589C637.95 590.267 636.433 591.133 634.6 591.6C632.8 592.067 630.683 592.3 628.25 592.3ZM628.25 587.8C629.983 587.8 631.45 587.617 632.65 587.25C633.883 586.883 634.867 586.217 635.6 585.25C636.367 584.25 636.917 582.833 637.25 581C637.583 579.133 637.75 576.7 637.75 573.7C637.75 570.533 637.567 568 637.2 566.1C636.867 564.2 636.333 562.767 635.6 561.8C634.867 560.833 633.883 560.183 632.65 559.85C631.45 559.517 629.983 559.35 628.25 559.35C626.617 559.35 625.2 559.517 624 559.85C622.8 560.183 621.817 560.833 621.05 561.8C620.283 562.767 619.7 564.2 619.3 566.1C618.933 568 618.75 570.533 618.75 573.7C618.75 576.7 618.9 579.133 619.2 581C619.533 582.833 620.067 584.25 620.8 585.25C621.567 586.217 622.55 586.883 623.75 587.25C624.983 587.617 626.483 587.8 628.25 587.8ZM662.771 592.3C660.371 592.3 658.255 592.067 656.421 591.6C654.621 591.133 653.105 590.267 651.871 589C650.671 587.733 649.771 585.867 649.171 583.4C648.571 580.933 648.271 577.7 648.271 573.7C648.271 569.7 648.571 566.467 649.171 564C649.771 561.5 650.688 559.6 651.921 558.3C653.155 556.967 654.671 556.067 656.471 555.6C658.271 555.1 660.371 554.85 662.771 554.85C665.238 554.85 667.371 555.1 669.171 555.6C671.005 556.067 672.521 556.967 673.721 558.3C674.921 559.6 675.821 561.5 676.421 564C677.021 566.467 677.321 569.7 677.321 573.7C677.321 577.7 677.021 580.933 676.421 583.4C675.821 585.867 674.905 587.733 673.671 589C672.471 590.267 670.955 591.133 669.121 591.6C667.321 592.067 665.205 592.3 662.771 592.3ZM662.771 587.8C664.505 587.8 665.971 587.617 667.171 587.25C668.405 586.883 669.388 586.217 670.121 585.25C670.888 584.25 671.438 582.833 671.771 581C672.105 579.133 672.271 576.7 672.271 573.7C672.271 570.533 672.088 568 671.721 566.1C671.388 564.2 670.855 562.767 670.121 561.8C669.388 560.833 668.405 560.183 667.171 559.85C665.971 559.517 664.505 559.35 662.771 559.35C661.138 559.35 659.721 559.517 658.521 559.85C657.321 560.183 656.338 560.833 655.571 561.8C654.805 562.767 654.221 564.2 653.821 566.1C653.455 568 653.271 570.533 653.271 573.7C653.271 576.7 653.421 579.133 653.721 581C654.055 582.833 654.588 584.25 655.321 585.25C656.088 586.217 657.071 586.883 658.271 587.25C659.505 587.617 661.005 587.8 662.771 587.8ZM683.693 592V555.15H698.643C699.743 555.15 700.876 555.3 702.043 555.6C703.21 555.867 704.276 556.417 705.243 557.25C706.243 558.05 707.043 559.25 707.643 560.85C708.243 562.45 708.543 564.567 708.543 567.2C708.543 569.833 708.226 571.967 707.593 573.6C706.993 575.233 706.193 576.483 705.193 577.35C704.193 578.217 703.11 578.8 701.943 579.1C700.776 579.4 699.66 579.55 698.593 579.55C698.06 579.55 697.326 579.533 696.393 579.5C695.493 579.467 694.543 579.417 693.543 579.35C692.543 579.283 691.61 579.217 690.743 579.15C689.876 579.083 689.21 579.017 688.743 578.95V592H683.693ZM688.743 575.05H697.893C698.96 575.05 699.91 574.817 700.743 574.35C701.61 573.85 702.276 573.05 702.743 571.95C703.243 570.817 703.493 569.25 703.493 567.25C703.493 565.283 703.243 563.75 702.743 562.65C702.276 561.55 701.643 560.783 700.843 560.35C700.043 559.883 699.16 559.65 698.193 559.65H688.743V575.05ZM724.812 592.3C724.012 592.3 723.095 592.267 722.062 592.2C721.062 592.167 720.028 592.1 718.962 592C717.928 591.9 716.928 591.8 715.962 591.7C715.028 591.6 714.228 591.467 713.562 591.3V587.4C714.428 587.467 715.462 587.533 716.662 587.6C717.895 587.667 719.195 587.717 720.562 587.75C721.962 587.783 723.312 587.8 724.612 587.8C726.045 587.8 727.312 587.667 728.412 587.4C729.545 587.133 730.428 586.633 731.062 585.9C731.728 585.167 732.062 584.133 732.062 582.8V580.65C732.062 579.15 731.645 578 730.812 577.2C730.012 576.4 728.778 576 727.112 576H723.362C720.162 576 717.678 575.3 715.912 573.9C714.178 572.5 713.312 570.1 713.312 566.7V564.7C713.312 561.167 714.262 558.65 716.162 557.15C718.095 555.617 720.828 554.85 724.362 554.85C725.528 554.85 726.778 554.917 728.112 555.05C729.445 555.15 730.745 555.283 732.012 555.45C733.278 555.617 734.328 555.783 735.162 555.95V559.85C733.662 559.75 731.978 559.65 730.112 559.55C728.278 559.417 726.545 559.35 724.912 559.35C723.512 559.35 722.295 559.517 721.262 559.85C720.262 560.15 719.478 560.7 718.912 561.5C718.378 562.3 718.112 563.433 718.112 564.9V566.4C718.112 568.2 718.595 569.45 719.562 570.15C720.528 570.85 721.878 571.2 723.612 571.2H727.662C729.762 571.2 731.478 571.583 732.812 572.35C734.178 573.117 735.195 574.167 735.862 575.5C736.528 576.833 736.862 578.35 736.862 580.05V582.65C736.862 585.25 736.328 587.25 735.262 588.65C734.195 590.05 732.762 591.017 730.962 591.55C729.162 592.05 727.112 592.3 724.812 592.3ZM744.363 581.95L743.713 555.2H748.763L748.013 581.95H744.363ZM744.763 592.05C744.163 592.05 743.863 591.767 743.863 591.2V586.85C743.863 586.25 744.163 585.95 744.763 585.95H747.613C748.213 585.95 748.513 586.25 748.513 586.85V591.2C748.513 591.5 748.413 591.717 748.213 591.85C748.047 591.983 747.847 592.05 747.613 592.05H744.763Z" fill="#FEECFC"/>
<path d="M561.43 639V616.98H570.01C570.65 616.98 571.29 617.07 571.93 617.25C572.59 617.41 573.2 617.73 573.76 618.21C574.32 618.67 574.76 619.36 575.08 620.28C575.42 621.18 575.59 622.37 575.59 623.85C575.59 625.35 575.41 626.57 575.05 627.51C574.69 628.43 574.22 629.14 573.64 629.64C573.06 630.14 572.43 630.48 571.75 630.66C571.09 630.84 570.46 630.93 569.86 630.93C569.56 630.93 569.1 630.93 568.48 630.93C567.88 630.91 567.23 630.89 566.53 630.87C565.83 630.83 565.17 630.8 564.55 630.78C563.95 630.74 563.49 630.7 563.17 630.66V639H561.43ZM563.17 629.37H569.65C570.41 629.37 571.11 629.21 571.75 628.89C572.39 628.57 572.9 628.02 573.28 627.24C573.66 626.44 573.85 625.31 573.85 623.85C573.85 622.43 573.66 621.34 573.28 620.58C572.9 619.8 572.41 619.27 571.81 618.99C571.23 618.69 570.59 618.54 569.89 618.54H563.17V629.37ZM576.488 639L584.258 616.98H586.508L594.278 639H592.448L590.018 632.16H580.718L578.318 639H576.488ZM581.168 630.6H589.508L585.368 618.54L581.168 630.6ZM604.212 639.15C602.812 639.17 601.642 638.97 600.702 638.55C599.782 638.13 599.052 637.47 598.512 636.57C597.972 635.65 597.592 634.48 597.372 633.06C597.152 631.62 597.042 629.9 597.042 627.9C597.042 626 597.152 624.35 597.372 622.95C597.612 621.55 598.002 620.4 598.542 619.5C599.102 618.58 599.852 617.9 600.792 617.46C601.732 617.02 602.902 616.8 604.302 616.8C605.002 616.8 605.762 616.83 606.582 616.89C607.422 616.93 608.252 617.01 609.072 617.13C609.892 617.23 610.632 617.35 611.292 617.49V618.78C610.912 618.74 610.352 618.69 609.612 618.63C608.872 618.55 608.052 618.49 607.152 618.45C606.272 618.39 605.392 618.36 604.512 618.36C603.032 618.36 601.872 618.69 601.032 619.35C600.192 619.99 599.602 621.01 599.262 622.41C598.942 623.81 598.782 625.66 598.782 627.96C598.782 629.8 598.872 631.34 599.052 632.58C599.232 633.8 599.532 634.78 599.952 635.52C600.392 636.26 600.982 636.79 601.722 637.11C602.482 637.41 603.442 637.56 604.602 637.56C605.602 637.56 606.632 637.42 607.692 637.14C608.772 636.86 609.702 636.56 610.482 636.24V629.07H604.722V627.81C605.102 627.75 605.552 627.7 606.072 627.66C606.592 627.62 607.152 627.59 607.752 627.57C608.352 627.53 608.972 627.51 609.612 627.51C610.112 627.51 610.582 627.52 611.022 627.54C611.462 627.56 611.842 627.59 612.162 627.63V639H610.902L610.602 637.44C609.862 637.8 608.922 638.17 607.782 638.55C606.642 638.93 605.452 639.13 604.212 639.15ZM621.535 639.12C621.035 639.12 620.525 639.08 620.005 639C619.505 638.9 619.025 638.72 618.565 638.46C618.125 638.18 617.765 637.77 617.485 637.23C617.205 636.67 617.065 635.93 617.065 635.01V621.21C617.065 620.39 617.185 619.71 617.425 619.17C617.665 618.63 617.985 618.2 618.385 617.88C618.785 617.56 619.225 617.33 619.705 617.19C620.205 617.05 620.705 616.98 621.205 616.98C622.345 617 623.425 617.02 624.445 617.04C625.485 617.06 626.485 617.09 627.445 617.13C628.425 617.15 629.375 617.18 630.295 617.22V618.57H621.565C620.725 618.57 620.055 618.8 619.555 619.26C619.055 619.7 618.805 620.42 618.805 621.42V627.27L629.035 627.42V628.71L618.805 628.86V634.68C618.805 635.5 618.945 636.11 619.225 636.51C619.525 636.91 619.905 637.18 620.365 637.32C620.825 637.44 621.295 637.5 621.775 637.5H630.295V638.85C629.375 638.89 628.415 638.93 627.415 638.97C626.435 638.99 625.455 639.01 624.475 639.03C623.495 639.07 622.515 639.1 621.535 639.12ZM643.297 639V616.98H644.767L656.947 635.97V616.98H658.687V639H657.247L645.037 620.01V639H643.297ZM670.89 639.18C669.51 639.18 668.29 639.05 667.23 638.79C666.19 638.53 665.32 638.03 664.62 637.29C663.94 636.53 663.42 635.41 663.06 633.93C662.72 632.45 662.55 630.51 662.55 628.11C662.55 625.69 662.72 623.74 663.06 622.26C663.42 620.76 663.95 619.62 664.65 618.84C665.37 618.04 666.25 617.5 667.29 617.22C668.33 616.94 669.53 616.8 670.89 616.8C672.31 616.8 673.54 616.94 674.58 617.22C675.64 617.5 676.51 618.04 677.19 618.84C677.89 619.62 678.4 620.76 678.72 622.26C679.06 623.74 679.23 625.69 679.23 628.11C679.23 630.51 679.06 632.45 678.72 633.93C678.38 635.41 677.86 636.53 677.16 637.29C676.46 638.03 675.59 638.53 674.55 638.79C673.51 639.05 672.29 639.18 670.89 639.18ZM670.89 637.62C672.07 637.62 673.08 637.51 673.92 637.29C674.76 637.05 675.44 636.6 675.96 635.94C676.5 635.28 676.89 634.33 677.13 633.09C677.37 631.83 677.49 630.17 677.49 628.11C677.49 625.95 677.36 624.22 677.1 622.92C676.86 621.62 676.47 620.65 675.93 620.01C675.41 619.35 674.73 618.91 673.89 618.69C673.07 618.47 672.07 618.36 670.89 618.36C669.81 618.36 668.85 618.47 668.01 618.69C667.19 618.91 666.5 619.35 665.94 620.01C665.4 620.65 664.99 621.62 664.71 622.92C664.43 624.22 664.29 625.95 664.29 628.11C664.29 630.17 664.4 631.83 664.62 633.09C664.86 634.33 665.24 635.28 665.76 635.94C666.28 636.6 666.96 637.05 667.8 637.29C668.64 637.51 669.67 637.62 670.89 637.62ZM688.493 639V618.54H681.443V616.98H697.283V618.54H690.233V639H688.493ZM708.412 639V621.21C708.412 620.39 708.532 619.71 708.772 619.17C709.012 618.63 709.332 618.2 709.732 617.88C710.132 617.56 710.572 617.33 711.052 617.19C711.552 617.05 712.052 616.98 712.552 616.98C713.472 617 714.442 617.02 715.462 617.04C716.482 617.04 717.512 617.06 718.552 617.1C719.612 617.12 720.642 617.16 721.642 617.22V618.57H712.882C712.062 618.57 711.402 618.81 710.902 619.29C710.402 619.75 710.152 620.46 710.152 621.42V627.72L720.382 627.87V629.16L710.152 629.31V639H708.412ZM733.117 639.18C731.737 639.18 730.517 639.05 729.457 638.79C728.417 638.53 727.547 638.03 726.847 637.29C726.167 636.53 725.647 635.41 725.287 633.93C724.947 632.45 724.777 630.51 724.777 628.11C724.777 625.69 724.947 623.74 725.287 622.26C725.647 620.76 726.177 619.62 726.877 618.84C727.597 618.04 728.477 617.5 729.517 617.22C730.557 616.94 731.757 616.8 733.117 616.8C734.537 616.8 735.767 616.94 736.807 617.22C737.867 617.5 738.737 618.04 739.417 618.84C740.117 619.62 740.627 620.76 740.947 622.26C741.287 623.74 741.457 625.69 741.457 628.11C741.457 630.51 741.287 632.45 740.947 633.93C740.607 635.41 740.087 636.53 739.387 637.29C738.687 638.03 737.817 638.53 736.777 638.79C735.737 639.05 734.517 639.18 733.117 639.18ZM733.117 637.62C734.297 637.62 735.307 637.51 736.147 637.29C736.987 637.05 737.667 636.6 738.187 635.94C738.727 635.28 739.117 634.33 739.357 633.09C739.597 631.83 739.717 630.17 739.717 628.11C739.717 625.95 739.587 624.22 739.327 622.92C739.087 621.62 738.697 620.65 738.157 620.01C737.637 619.35 736.957 618.91 736.117 618.69C735.297 618.47 734.297 618.36 733.117 618.36C732.037 618.36 731.077 618.47 730.237 618.69C729.417 618.91 728.727 619.35 728.167 620.01C727.627 620.65 727.217 621.62 726.937 622.92C726.657 624.22 726.517 625.95 726.517 628.11C726.517 630.17 726.627 631.83 726.847 633.09C727.087 634.33 727.467 635.28 727.987 635.94C728.507 636.6 729.187 637.05 730.027 637.29C730.867 637.51 731.897 637.62 733.117 637.62ZM753.416 639.18C752.196 639.18 751.086 639.07 750.086 638.85C749.106 638.61 748.266 638.23 747.566 637.71C746.886 637.19 746.366 636.49 746.006 635.61C745.646 634.71 745.466 633.59 745.466 632.25V616.98H747.206V632.25C747.206 633.65 747.446 634.74 747.926 635.52C748.426 636.28 749.136 636.82 750.056 637.14C750.996 637.44 752.116 637.59 753.416 637.59C754.736 637.59 755.856 637.44 756.776 637.14C757.696 636.82 758.396 636.28 758.876 635.52C759.376 634.74 759.626 633.65 759.626 632.25V616.98H761.366V632.25C761.366 633.59 761.186 634.71 760.826 635.61C760.486 636.49 759.966 637.19 759.266 637.71C758.586 638.23 757.746 638.61 756.746 638.85C755.766 639.07 754.656 639.18 753.416 639.18ZM766.431 639V616.98H767.901L780.081 635.97V616.98H781.821V639H780.381L768.171 620.01V639H766.431ZM786.225 639V616.98H794.745C796.045 616.98 797.135 617.21 798.015 617.67C798.915 618.13 799.645 618.83 800.205 619.77C800.785 620.69 801.205 621.84 801.465 623.22C801.725 624.58 801.855 626.17 801.855 627.99C801.855 630.25 801.585 632.2 801.045 633.84C800.525 635.48 799.735 636.75 798.675 637.65C797.635 638.55 796.325 639 794.745 639H786.225ZM787.965 637.44H794.625C795.905 637.44 796.945 637.05 797.745 636.27C798.545 635.47 799.135 634.36 799.515 632.94C799.915 631.52 800.115 629.87 800.115 627.99C800.115 626.29 800.005 624.84 799.785 623.64C799.585 622.44 799.265 621.47 798.825 620.73C798.385 619.97 797.815 619.42 797.115 619.08C796.435 618.72 795.605 618.54 794.625 618.54H787.965V637.44Z" fill="#FEECFC"/>
<defs>
<filter id="filter0_d_403_108" x="579.947" y="345.792" width="187.827" height="180.56" filterUnits="userSpaceOnUse" color-interpolation-filters="sRGB">
<feFlood flood-opacity="0" result="BackgroundImageFix"/>
<feColorMatrix in="SourceAlpha" type="matrix" values="0 0 0 0 0 0 0 0 0 0 0 0 0 0 0 0 0 0 127 0" result="hardAlpha"/>
<feOffset dx="-7"/>
<feGaussianBlur stdDeviation="2"/>
<feColorMatrix type="matrix" values="0 0 0 0 0 0 0 0 0 0 0 0 0 0 0 0 0 0 0.4 0"/>
<feBlend mode="normal" in2="BackgroundImageFix" result="effect1_dropShadow_403_108"/>
<feBlend mode="normal" in="SourceGraphic" in2="effect1_dropShadow_403_108" result="shape"/>
</filter>
<filter id="filter1_d_403_108" x="1250" y="665" width="108.349" height="103" filterUnits="userSpaceOnUse" color-interpolation-filters="sRGB">
<feFlood flood-opacity="0" result="BackgroundImageFix"/>
<feColorMatrix in="SourceAlpha" type="matrix" values="0 0 0 0 0 0 0 0 0 0 0 0 0 0 0 0 0 0 127 0" result="hardAlpha"/>
<feOffset dx="-7"/>
<feGaussianBlur stdDeviation="2"/>
<feColorMatrix type="matrix" values="0 0 0 0 0 0 0 0 0 0 0 0 0 0 0 0 0 0 0.4 0"/>
<feBlend mode="normal" in2="BackgroundImageFix" result="effect1_dropShadow_403_108"/>
<feBlend mode="normal" in="SourceGraphic" in2="effect1_dropShadow_403_108" result="shape"/>
</filter>
<filter id="filter2_d_403_108" x="530" y="801" width="43.7913" height="40" filterUnits="userSpaceOnUse" color-interpolation-filters="sRGB">
<feFlood flood-opacity="0" result="BackgroundImageFix"/>
<feColorMatrix in="SourceAlpha" type="matrix" values="0 0 0 0 0 0 0 0 0 0 0 0 0 0 0 0 0 0 127 0" result="hardAlpha"/>
<feOffset dx="-7"/>
<feGaussianBlur stdDeviation="2"/>
<feColorMatrix type="matrix" values="0 0 0 0 0 0 0 0 0 0 0 0 0 0 0 0 0 0 0.4 0"/>
<feBlend mode="normal" in2="BackgroundImageFix" result="effect1_dropShadow_403_108"/>
<feBlend mode="normal" in="SourceGraphic" in2="effect1_dropShadow_403_108" result="shape"/>
</filter>
<filter id="filter3_d_403_108" x="68" y="472" width="191.352" height="184" filterUnits="userSpaceOnUse" color-interpolation-filters="sRGB">
<feFlood flood-opacity="0" result="BackgroundImageFix"/>
<feColorMatrix in="SourceAlpha" type="matrix" values="0 0 0 0 0 0 0 0 0 0 0 0 0 0 0 0 0 0 127 0" result="hardAlpha"/>
<feOffset dx="-7"/>
<feGaussianBlur stdDeviation="2"/>
<feColorMatrix type="matrix" values="0 0 0 0 0 0 0 0 0 0 0 0 0 0 0 0 0 0 0.4 0"/>
<feBlend mode="normal" in2="BackgroundImageFix" result="effect1_dropShadow_403_108"/>
<feBlend mode="normal" in="SourceGraphic" in2="effect1_dropShadow_403_108" result="shape"/>
</filter>
<filter id="filter4_f_403_108" x="660.834" y="251.278" width="12.3136" height="17.4515" filterUnits="userSpaceOnUse" color-interpolation-filters="sRGB">
<feFlood flood-opacity="0" result="BackgroundImageFix"/>
<feBlend mode="normal" in="SourceGraphic" in2="BackgroundImageFix" result="shape"/>
<feGaussianBlur stdDeviation="2" result="effect1_foregroundBlur_403_108"/>
</filter>
<filter id="filter5_d_403_108" x="734.745" y="342.345" width="142.946" height="174.787" filterUnits="userSpaceOnUse" color-interpolation-filters="sRGB">
<feFlood flood-opacity="0" result="BackgroundImageFix"/>
<feColorMatrix in="SourceAlpha" type="matrix" values="0 0 0 0 0 0 0 0 0 0 0 0 0 0 0 0 0 0 127 0" result="hardAlpha"/>
<feOffset dx="-7"/>
<feGaussianBlur stdDeviation="2"/>
<feColorMatrix type="matrix" values="0 0 0 0 0 0 0 0 0 0 0 0 0 0 0 0 0 0 0.4 0"/>
<feBlend mode="normal" in2="BackgroundImageFix" result="effect1_dropShadow_403_108"/>
<feBlend mode="normal" in="SourceGraphic" in2="effect1_dropShadow_403_108" result="shape"/>
</filter>
<linearGradient id="paint0_linear_403_108" x1="944.108" y1="240.486" x2="977.291" y2="209.552" gradientUnits="userSpaceOnUse">
<stop stop-color="#F67C01"/>
<stop offset="1" stop-color="#BB5E00"/>
</linearGradient>
<linearGradient id="paint1_linear_403_108" x1="999.49" y1="159.852" x2="1031.38" y2="193.456" gradientUnits="userSpaceOnUse">
<stop offset="0.213542" stop-color="#D2CECE"/>
<stop offset="1" stop-color="#393535"/>
</linearGradient>
<linearGradient id="paint2_linear_403_108" x1="999.49" y1="159.852" x2="1031.38" y2="193.456" gradientUnits="userSpaceOnUse">
<stop offset="0.213542" stop-color="#D2CECE"/>
<stop offset="1" stop-color="#393535"/>
</linearGradient>
<linearGradient id="paint3_linear_403_108" x1="987.807" y1="214.841" x2="1003.09" y2="230.943" gradientUnits="userSpaceOnUse">
<stop stop-color="#404040"/>
<stop offset="1"/>
</linearGradient>
<linearGradient id="paint4_linear_403_108" x1="973.857" y1="200.139" x2="957.25" y2="182.637" gradientUnits="userSpaceOnUse">
<stop/>
<stop offset="1" stop-color="#7A7A7A"/>
</linearGradient>
<linearGradient id="paint5_linear_403_108" x1="1034.21" y1="137.553" x2="1054.8" y2="159.256" gradientUnits="userSpaceOnUse">
<stop stop-color="#8C8B8B"/>
<stop offset="1"/>
</linearGradient>
<linearGradient id="paint6_linear_403_108" x1="963.014" y1="197.124" x2="990.914" y2="226.527" gradientUnits="userSpaceOnUse">
<stop offset="0.1875" stop-color="white"/>
<stop offset="1" stop-color="#393535"/>
</linearGradient>
<linearGradient id="paint7_linear_403_108" x1="1028.09" y1="136.71" x2="1055.99" y2="166.113" gradientUnits="userSpaceOnUse">
<stop offset="0.135417" stop-color="white"/>
<stop offset="1" stop-color="#393535"/>
</linearGradient>
<linearGradient id="paint8_linear_403_108" x1="1028.56" y1="170.855" x2="1019.92" y2="161.754" gradientUnits="userSpaceOnUse">
<stop offset="0.0885417" stop-color="#212121"/>
<stop offset="1" stop-color="#606060"/>
</linearGradient>
<linearGradient id="paint9_linear_403_108" x1="629.681" y1="404.014" x2="640.32" y2="428.33" gradientUnits="userSpaceOnUse">
<stop stop-color="#2A2E06"/>
<stop offset="1" stop-color="#D8EA10"/>
</linearGradient>
<linearGradient id="paint10_linear_403_108" x1="721.385" y1="374.346" x2="725.976" y2="382.306" gradientUnits="userSpaceOnUse">
<stop stop-color="#190306"/>
<stop offset="1" stop-color="#D8EA10"/>
</linearGradient>
<linearGradient id="paint11_linear_403_108" x1="751.637" y1="442.634" x2="761.145" y2="445.945" gradientUnits="userSpaceOnUse">
<stop stop-color="#424705"/>
<stop offset="1" stop-color="#D8EA10"/>
</linearGradient>
<linearGradient id="paint12_linear_403_108" x1="671.748" y1="351.043" x2="672.362" y2="356.405" gradientUnits="userSpaceOnUse">
<stop stop-color="#420609"/>
<stop offset="1" stop-color="#DF131E"/>
</linearGradient>
<linearGradient id="paint13_linear_403_108" x1="685.5" y1="476.5" x2="693.975" y2="507.086" gradientUnits="userSpaceOnUse">
<stop stop-color="#1E1E1B"/>
<stop offset="1" stop-color="#D8EA10"/>
</linearGradient>
<linearGradient id="paint14_linear_403_108" x1="698.176" y1="517.305" x2="664.966" y2="517.298" gradientUnits="userSpaceOnUse">
<stop stop-color="#6A730C"/>
<stop offset="1" stop-color="#D8EA10"/>
</linearGradient>
<linearGradient id="paint15_linear_403_108" x1="744.482" y1="373.043" x2="756.094" y2="387.972" gradientUnits="userSpaceOnUse">
<stop stop-color="#92090E"/>
<stop offset="1" stop-color="#82070C"/>
</linearGradient>
<linearGradient id="paint16_linear_403_108" x1="1282.32" y1="698.851" x2="1288.18" y2="712.238" gradientUnits="userSpaceOnUse">
<stop stop-color="#292D05"/>
<stop offset="1" stop-color="#D8EA10"/>
</linearGradient>
<linearGradient id="paint17_linear_403_108" x1="1332.81" y1="682.518" x2="1335.34" y2="686.9" gradientUnits="userSpaceOnUse">
<stop stop-color="#1B1D05"/>
<stop offset="1" stop-color="#D8EA10"/>
</linearGradient>
<linearGradient id="paint18_linear_403_108" x1="1349.47" y1="720.113" x2="1354.7" y2="721.935" gradientUnits="userSpaceOnUse">
<stop stop-color="#222406"/>
<stop offset="1" stop-color="#D8EA10"/>
</linearGradient>
<linearGradient id="paint19_linear_403_108" x1="1305.48" y1="669.688" x2="1305.82" y2="672.641" gradientUnits="userSpaceOnUse">
<stop stop-color="#444905"/>
<stop offset="1" stop-color="#D8EA10"/>
</linearGradient>
<linearGradient id="paint20_linear_403_108" x1="1313.05" y1="738.757" x2="1317.72" y2="755.595" gradientUnits="userSpaceOnUse">
<stop stop-color="#1E1E1B"/>
<stop offset="1" stop-color="#D8EA10"/>
</linearGradient>
<linearGradient id="paint21_linear_403_108" x1="1320.03" y1="761.222" x2="1301.75" y2="761.217" gradientUnits="userSpaceOnUse">
<stop stop-color="#6A730C"/>
<stop offset="1" stop-color="#D8EA10"/>
</linearGradient>
<linearGradient id="paint22_linear_403_108" x1="1351.01" y1="742.986" x2="1357.4" y2="729.288" gradientUnits="userSpaceOnUse">
<stop stop-color="#380103"/>
<stop offset="1" stop-color="#470205"/>
</linearGradient>
<linearGradient id="paint23_linear_403_108" x1="548.183" y1="815.055" x2="550.156" y2="819.564" gradientUnits="userSpaceOnUse">
<stop stop-color="#292D05"/>
<stop offset="1" stop-color="#D8EA10"/>
</linearGradient>
<linearGradient id="paint24_linear_403_108" x1="565.189" y1="809.553" x2="566.04" y2="811.029" gradientUnits="userSpaceOnUse">
<stop stop-color="#1B1D05"/>
<stop offset="1" stop-color="#D8EA10"/>
</linearGradient>
<linearGradient id="paint25_linear_403_108" x1="570.799" y1="822.217" x2="572.562" y2="822.831" gradientUnits="userSpaceOnUse">
<stop stop-color="#222406"/>
<stop offset="1" stop-color="#D8EA10"/>
</linearGradient>
<linearGradient id="paint26_linear_403_108" x1="555.984" y1="805.232" x2="556.098" y2="806.226" gradientUnits="userSpaceOnUse">
<stop stop-color="#444905"/>
<stop offset="1" stop-color="#D8EA10"/>
</linearGradient>
<linearGradient id="paint27_linear_403_108" x1="558.534" y1="828.497" x2="560.106" y2="834.169" gradientUnits="userSpaceOnUse">
<stop stop-color="#1E1E1B"/>
<stop offset="1" stop-color="#D8EA10"/>
</linearGradient>
<linearGradient id="paint28_linear_403_108" x1="560.885" y1="836.064" x2="554.726" y2="836.063" gradientUnits="userSpaceOnUse">
<stop stop-color="#6A730C"/>
<stop offset="1" stop-color="#D8EA10"/>
</linearGradient>
<linearGradient id="paint29_linear_403_108" x1="571.318" y1="829.922" x2="573.471" y2="825.308" gradientUnits="userSpaceOnUse">
<stop stop-color="#380103"/>
<stop offset="1" stop-color="#470205"/>
</linearGradient>
<linearGradient id="paint30_linear_403_108" x1="118.507" y1="531.303" x2="129.357" y2="556.103" gradientUnits="userSpaceOnUse">
<stop stop-color="#292D05"/>
<stop offset="1" stop-color="#D8EA10"/>
</linearGradient>
<linearGradient id="paint31_linear_403_108" x1="212.039" y1="501.043" x2="216.721" y2="509.162" gradientUnits="userSpaceOnUse">
<stop stop-color="#1B1D05"/>
<stop offset="1" stop-color="#D8EA10"/>
</linearGradient>
<linearGradient id="paint32_linear_403_108" x1="242.894" y1="570.693" x2="252.591" y2="574.069" gradientUnits="userSpaceOnUse">
<stop stop-color="#222406"/>
<stop offset="1" stop-color="#D8EA10"/>
</linearGradient>
<linearGradient id="paint33_linear_403_108" x1="161.413" y1="477.276" x2="162.038" y2="482.745" gradientUnits="userSpaceOnUse">
<stop stop-color="#444905"/>
<stop offset="1" stop-color="#D8EA10"/>
</linearGradient>
<linearGradient id="paint34_linear_403_108" x1="175.438" y1="605.234" x2="184.082" y2="636.43" gradientUnits="userSpaceOnUse">
<stop stop-color="#1E1E1B"/>
<stop offset="1" stop-color="#D8EA10"/>
</linearGradient>
<linearGradient id="paint35_linear_403_108" x1="188.367" y1="646.852" x2="154.495" y2="646.845" gradientUnits="userSpaceOnUse">
<stop stop-color="#6A730C"/>
<stop offset="1" stop-color="#D8EA10"/>
</linearGradient>
<linearGradient id="paint36_linear_403_108" x1="245.748" y1="613.069" x2="257.591" y2="587.691" gradientUnits="userSpaceOnUse">
<stop stop-color="#380103"/>
<stop offset="1" stop-color="#470205"/>
</linearGradient>
<linearGradient id="paint37_linear_403_108" x1="391.886" y1="11.0391" x2="394.052" y2="15.9894" gradientUnits="userSpaceOnUse">
<stop stop-color="#292D05"/>
<stop offset="1" stop-color="#D8EA10"/>
</linearGradient>
<linearGradient id="paint38_linear_403_108" x1="410.556" y1="4.99893" x2="411.49" y2="6.61952" gradientUnits="userSpaceOnUse">
<stop stop-color="#1B1D05"/>
<stop offset="1" stop-color="#D8EA10"/>
</linearGradient>
<linearGradient id="paint39_linear_403_108" x1="416.715" y1="18.9016" x2="418.651" y2="19.5756" gradientUnits="userSpaceOnUse">
<stop stop-color="#222406"/>
<stop offset="1" stop-color="#D8EA10"/>
</linearGradient>
<linearGradient id="paint40_linear_403_108" x1="403.25" y1="25.7963" x2="404.975" y2="32.0233" gradientUnits="userSpaceOnUse">
<stop stop-color="#1E1E1B"/>
<stop offset="1" stop-color="#D8EA10"/>
</linearGradient>
<linearGradient id="paint41_linear_403_108" x1="405.831" y1="34.1038" x2="399.07" y2="34.1022" gradientUnits="userSpaceOnUse">
<stop stop-color="#6A730C"/>
<stop offset="1" stop-color="#D8EA10"/>
</linearGradient>
<linearGradient id="paint42_linear_403_108" x1="417.285" y1="27.3604" x2="419.648" y2="22.2947" gradientUnits="userSpaceOnUse">
<stop stop-color="#380103"/>
<stop offset="1" stop-color="#470205"/>
</linearGradient>
<linearGradient id="paint43_linear_403_108" x1="656.923" y1="283.59" x2="627.924" y2="299.486" gradientUnits="userSpaceOnUse">
<stop stop-color="#778186"/>
<stop offset="1" stop-color="#474B4C"/>
</linearGradient>
<linearGradient id="paint44_linear_403_108" x1="657.353" y1="284.879" x2="629.428" y2="299.915" gradientUnits="userSpaceOnUse">
<stop stop-color="#C1C1C1"/>
<stop offset="1" stop-color="#929292"/>
</linearGradient>
<linearGradient id="paint45_linear_403_108" x1="643.82" y1="297.338" x2="645.109" y2="301.419" gradientUnits="userSpaceOnUse">
<stop stop-color="#D48845"/>
<stop offset="1" stop-color="#4E3219"/>
</linearGradient>
<linearGradient id="paint46_linear_403_108" x1="604.014" y1="256.954" x2="654.923" y2="265.117" gradientUnits="userSpaceOnUse">
<stop stop-color="#9F9F9F"/>
<stop offset="1" stop-color="#787877"/>
</linearGradient>
<linearGradient id="paint47_linear_403_108" x1="604.873" y1="264.687" x2="644.182" y2="265.761" gradientUnits="userSpaceOnUse">
<stop stop-color="#CBCBCB"/>
<stop offset="1" stop-color="#828380"/>
</linearGradient>
<linearGradient id="paint48_linear_403_108" x1="614.354" y1="269.885" x2="658.175" y2="270.959" gradientUnits="userSpaceOnUse">
<stop stop-color="#1B0A5D"/>
<stop offset="0.390625" stop-color="#1B0A5D"/>
<stop offset="0.970597" stop-color="#010005"/>
</linearGradient>
<linearGradient id="paint49_linear_403_108" x1="644.427" y1="251.626" x2="621.228" y2="268.381" gradientUnits="userSpaceOnUse">
<stop stop-color="#FFF9FF" stop-opacity="0.36"/>
<stop offset="1" stop-color="#1B0A5D" stop-opacity="0"/>
</linearGradient>
<linearGradient id="paint50_linear_403_108" x1="612.176" y1="269.413" x2="659.863" y2="269.413" gradientUnits="userSpaceOnUse">
<stop stop-color="#5B5C59"/>
<stop offset="1" stop-color="#3F403E"/>
</linearGradient>
</defs>
</svg>
