<svg width="327" height="302" viewBox="0 0 327 302" fill="none" xmlns="http://www.w3.org/2000/svg">
<g opacity="0.4">
<path d="M154.167 118.476L151.487 63H172.925L170.246 118.476H154.167Z" fill="url(#paint0_linear_458_481)"/>
<path d="M179.242 134.335L233.131 159.951L222.412 176.925L171.203 147.066L179.242 134.335Z" fill="url(#paint1_linear_458_481)"/>
<path d="M169.863 148.051L172.542 203.527H151.104L153.784 148.051H169.863Z" fill="url(#paint2_linear_458_481)"/>
<path d="M152.929 147.242L101.719 177.102L91 160.127L144.889 134.511L152.929 147.242Z" fill="url(#paint3_linear_458_481)"/>
<path d="M179.242 132.279L233.131 106.663L222.412 89.6889L171.203 119.549L179.242 132.279Z" fill="url(#paint4_linear_458_481)"/>
<path d="M152.929 119.372L101.719 89.5128L91 106.487L144.889 132.103L152.929 119.372Z" fill="url(#paint5_linear_458_481)"/>
<g filter="url(#filter0_dd_458_481)">
<path d="M144.035 122.94H182.16V197.774C182.16 200.503 179.174 202.18 176.844 200.76L164.462 193.213C163.624 192.702 162.571 192.702 161.733 193.213L149.351 200.76C147.021 202.18 144.035 200.503 144.035 197.774V122.94Z" fill="#D8EA10"/>
<path fill-rule="evenodd" clip-rule="evenodd" d="M168.861 195.894L164.462 193.213C163.624 192.702 162.571 192.702 161.733 193.213L157.334 195.894V122.94H168.861V195.894Z" fill="#260323"/>
<path fill-rule="evenodd" clip-rule="evenodd" d="M155.856 196.795L154.674 197.515V122.94H155.856V196.795Z" fill="#260323"/>
<path fill-rule="evenodd" clip-rule="evenodd" d="M171.52 197.515L170.338 196.794V122.94H171.52V197.515Z" fill="#260323"/>
<path fill-rule="evenodd" clip-rule="evenodd" d="M182.16 197.881V195.719C182.16 198.448 179.174 200.125 176.844 198.705L164.462 191.158C163.624 190.647 162.571 190.647 161.733 191.158L149.351 198.705C147.021 200.125 144.035 198.448 144.035 195.719V197.881C144.035 200.609 147.021 202.286 149.351 200.866L161.733 193.32C162.571 192.809 163.624 192.809 164.462 193.32L176.844 200.866C179.174 202.286 182.16 200.61 182.16 197.881Z" fill="#1D2462" fill-opacity="0.2"/>
<g opacity="0.8" filter="url(#filter1_f_458_481)">
<path d="M163.215 187.241L182.193 177.042V173.218H144.035V177.042L163.215 187.241Z" fill="#1A375E" fill-opacity="0.68"/>
</g>
<path opacity="0.6" d="M154.738 88.4577L126.785 102.36C120.393 105.539 116.352 112.063 116.352 119.201L116.352 148.742C116.352 155.881 120.393 162.404 126.785 165.583L154.738 179.486C160.014 182.11 166.214 182.11 171.49 179.486L199.444 165.583C205.835 162.404 209.877 155.881 209.877 148.742L209.877 119.201C209.877 112.063 205.835 105.539 199.444 102.36L171.49 88.4577C166.214 85.8338 160.014 85.8338 154.738 88.4577Z" fill="#FEECFC"/>
<path opacity="0.3" d="M154.714 95.9667L133.854 106.341C127.486 109.508 123.46 116.007 123.46 123.119L123.46 144.652C123.46 151.764 127.486 158.263 133.854 161.429L154.714 171.804C159.97 174.418 166.147 174.418 171.403 171.804L192.263 161.429C198.631 158.263 202.657 151.764 202.657 144.652L202.657 123.119C202.657 116.007 198.631 109.508 192.263 106.341L171.403 95.9666C166.147 93.3527 159.97 93.3527 154.714 95.9667Z" fill="#FEECFC"/>
<g opacity="0.5" filter="url(#filter2_f_458_481)">
<path d="M154.714 95.9667L133.854 106.341C127.486 109.508 123.46 116.007 123.46 123.119L123.46 144.652C123.46 151.764 127.486 158.263 133.854 161.429L154.714 171.804C159.97 174.418 166.147 174.418 171.403 171.804L192.263 161.429C198.631 158.263 202.657 151.764 202.657 144.652L202.657 123.119C202.657 116.007 198.631 109.508 192.263 106.341L171.403 95.9666C166.147 93.3527 159.97 93.3527 154.714 95.9667Z" fill="#FEECFC"/>
<path d="M154.714 95.9667L133.854 106.341C127.486 109.508 123.46 116.007 123.46 123.119L123.46 144.652C123.46 151.764 127.486 158.263 133.854 161.429L154.714 171.804C159.97 174.418 166.147 174.418 171.403 171.804L192.263 161.429C198.631 158.263 202.657 151.764 202.657 144.652L202.657 123.119C202.657 116.007 198.631 109.508 192.263 106.341L171.403 95.9666C166.147 93.3527 159.97 93.3527 154.714 95.9667Z" stroke="url(#paint6_linear_458_481)" stroke-width="1.10641"/>
</g>
<g opacity="0.5">
<mask id="mask0_458_481" style="mask-type:alpha" maskUnits="userSpaceOnUse" x="126" y="97" width="74" height="74">
<path opacity="0.5" d="M155.37 99.178L136.719 108.445C130.659 111.457 126.827 117.64 126.827 124.408L126.827 143.497C126.827 150.264 130.659 156.447 136.719 159.459L155.37 168.726C160.366 171.209 166.237 171.209 171.233 168.726L189.884 159.459C195.944 156.447 199.776 150.264 199.776 143.497L199.776 124.408C199.776 117.64 195.944 111.457 189.884 108.445L171.233 99.178C166.237 96.6953 160.366 96.6953 155.37 99.178Z" fill="#FEECFC" fill-opacity="0.933333"/>
</mask>
<g mask="url(#mask0_458_481)">
<path d="M155.37 99.178L136.719 108.445C130.659 111.457 126.827 117.64 126.827 124.408L126.827 143.497C126.827 150.264 130.659 156.447 136.719 159.459L155.37 168.726C160.366 171.209 166.237 171.209 171.233 168.726L189.884 159.459C195.944 156.447 199.776 150.264 199.776 143.497L199.776 124.408C199.776 117.64 195.944 111.457 189.884 108.445L171.233 99.178C166.237 96.6953 160.366 96.6953 155.37 99.178Z" fill="#FEECFC"/>
<g opacity="0.5">
<path opacity="0.5" d="M157.204 174.197L155.755 93.7035H170.848L169.399 174.197H157.204Z" fill="white"/>
<path opacity="0.5" d="M157.011 173.483L111.734 104.436L124.805 97.5364L167.572 167.908L157.011 173.483Z" fill="white"/>
<path opacity="0.5" d="M155.752 167.908L198.519 97.5366L211.589 104.436L166.313 173.483L155.752 167.908Z" fill="white"/>
<rect x="126.827" y="129.351" width="72.9496" height="43.3131" fill="url(#paint7_linear_458_481)"/>
</g>
<g filter="url(#filter3_i_458_481)">
<path d="M155.37 99.178L136.719 108.445C130.659 111.457 126.827 117.64 126.827 124.408L126.827 143.497C126.827 150.264 130.659 156.447 136.719 159.459L155.37 168.726C160.366 171.209 166.237 171.209 171.233 168.726L189.884 159.459C195.944 156.447 199.776 150.264 199.776 143.497L199.776 124.408C199.776 117.64 195.944 111.457 189.884 108.445L171.233 99.178C166.237 96.6953 160.366 96.6953 155.37 99.178Z" fill="#FEECFC" fill-opacity="0.01"/>
</g>
</g>
</g>
<g filter="url(#filter4_d_458_481)">
<path d="M222.89 135.032L202.842 140.489L201.375 142.835L222.89 135.032Z" fill="url(#paint8_linear_458_481)"/>
<path opacity="0.4" fill-rule="evenodd" clip-rule="evenodd" d="M201.991 141.745C198.16 147.116 191.91 152.764 182.257 158.353C178.441 160.564 175.173 162.618 172.391 164.525C219.294 165.665 233.527 142.87 234.836 131.098L201.991 141.745Z" fill="#FEECFC"/>
<path opacity="0.4" d="M172.617 164.317C175.35 162.454 178.545 160.451 182.259 158.3C191.869 152.734 198.106 147.111 201.942 141.762L234.837 131.099" stroke="#FEECFC" stroke-width="1.86044"/>
<path d="M203.63 156.33L192.374 151.373L190.202 152.964L203.63 156.33Z" fill="url(#paint9_linear_458_481)"/>
<path opacity="0.5" fill-rule="evenodd" clip-rule="evenodd" d="M191.515 152.173C188.851 154.212 185.781 156.26 182.259 158.3C173.598 163.315 167.764 167.529 164.009 171.038C164.526 172.05 167.184 171.851 171.123 169.57C179.108 164.946 186.293 163.994 199.009 164.224C211.365 164.448 215.139 163.121 217.26 161.034C212.157 159.174 199.403 154.779 191.515 152.173Z" fill="#FEECFC"/>
<path opacity="0.5" d="M182.713 159.091C186.089 157.136 189.06 155.17 191.664 153.206C198.853 155.588 209.704 159.32 215.369 161.346C213.218 162.618 209.107 163.484 199.059 163.302C186.285 163.07 178.885 164.021 170.669 168.779C168.76 169.885 167.223 170.448 166.154 170.63C166.013 170.654 165.883 170.671 165.765 170.682C169.459 167.446 174.917 163.606 182.713 159.091ZM164.836 170.581C164.836 170.581 164.838 170.582 164.84 170.585C164.837 170.582 164.836 170.581 164.836 170.581Z" fill="#FEECFC" stroke="#FEECFC" stroke-width="1.86044"/>
<g filter="url(#filter5_d_458_481)">
<path opacity="0.4" d="M159.616 177.16C163.782 172.789 162.006 173.584 184.788 156.894C194.023 151.793 199.559 145.949 202.956 140.838C202.956 140.384 202.956 140.384 202.078 141.068C199.052 145.332 194.324 150.021 186.309 155.106C171.531 163.451 161.172 172.127 158.492 175.769L159.616 177.16Z" fill="url(#paint10_linear_458_481)"/>
<path opacity="0.4" d="M158.492 177.359C160.014 174.511 168.098 166.51 184.788 157.291C194.233 151.838 199.84 145.669 203.236 140.384C202.956 140.213 202.769 140.384 202.204 140.726C198.639 145.635 192.886 151.263 183.267 156.695C168.489 165.04 160.738 172.325 158.058 175.968L158.492 177.359Z" fill="#C4C4C4"/>
<path opacity="0.4" fill-rule="evenodd" clip-rule="evenodd" d="M183.152 156.526C200.341 146.82 205.134 136.497 207.183 130.804L207.596 130.928C205.523 136.69 200.674 147.099 183.381 156.864C168.617 165.201 160.894 172.468 158.238 176.079L157.877 175.857C160.581 172.182 168.36 164.879 183.152 156.526Z" fill="url(#paint11_linear_458_481)"/>
<path fill-rule="evenodd" clip-rule="evenodd" d="M193.413 151.331C190.967 153.36 188.116 155.37 184.789 157.291C182.279 158.678 179.963 160.037 177.836 161.355L176.825 160.534C178.805 159.287 180.95 158.004 183.267 156.695C186.416 154.917 189.15 153.119 191.529 151.331H193.413Z" fill="url(#paint12_linear_458_481)"/>
</g>
</g>
<g filter="url(#filter6_d_458_481)">
<path d="M104.145 135.031L124.194 140.488L125.66 142.834L104.145 135.031Z" fill="url(#paint13_linear_458_481)"/>
<path opacity="0.4" fill-rule="evenodd" clip-rule="evenodd" d="M125.044 141.745C128.876 147.116 135.126 152.764 144.778 158.353C148.595 160.563 151.862 162.618 154.645 164.525C107.742 165.665 93.5089 142.87 92.1997 131.098L125.044 141.745Z" fill="#FEECFC"/>
<path opacity="0.4" d="M154.419 164.317C151.685 162.453 148.491 160.45 144.777 158.299C135.167 152.734 128.929 147.111 125.093 141.761L92.1988 131.098" stroke="#FEECFC" stroke-width="1.86044"/>
<path d="M123.406 156.33L134.662 151.373L136.834 152.964L123.406 156.33Z" fill="url(#paint14_linear_458_481)"/>
<path fill-rule="evenodd" clip-rule="evenodd" d="M135.521 152.173C138.185 154.212 141.254 156.26 144.777 158.3C153.437 163.315 159.272 167.528 163.026 171.038C162.51 172.05 159.851 171.851 155.912 169.57C147.928 164.946 140.742 163.993 128.027 164.224C115.67 164.447 111.897 163.12 109.776 161.034C114.878 159.174 127.633 154.779 135.521 152.173Z" fill="url(#paint15_linear_458_481)"/>
<path opacity="0.4" d="M144.322 159.09C140.946 157.135 137.976 155.169 135.372 153.206C128.182 155.587 117.331 159.319 111.667 161.345C113.818 162.618 117.928 163.483 127.977 163.301C140.751 163.07 148.15 164.02 156.367 168.779C158.276 169.884 159.813 170.447 160.882 170.63C161.023 170.654 161.153 170.671 161.271 170.682C157.577 167.446 152.119 163.605 144.322 159.09ZM162.2 170.58C162.2 170.58 162.198 170.582 162.195 170.585C162.199 170.582 162.2 170.58 162.2 170.58Z" fill="#FEECFC" stroke="#FEECFC" stroke-width="1.86044"/>
<g filter="url(#filter7_d_458_481)">
<path opacity="0.4" d="M167.42 177.16C163.254 172.789 165.029 173.584 142.248 156.894C133.012 151.793 127.477 145.949 124.079 140.838C124.079 140.384 124.079 140.384 124.958 141.068C127.984 145.332 132.712 150.021 140.726 155.106C155.504 163.451 165.863 172.127 168.543 175.769L167.42 177.16Z" fill="url(#paint16_linear_458_481)"/>
<path opacity="0.4" d="M168.543 177.359C167.022 174.511 158.938 166.51 142.248 157.291C132.803 151.838 127.195 145.669 123.8 140.384C124.079 140.213 124.266 140.384 124.832 140.726C128.396 145.635 134.149 151.263 143.769 156.695C158.547 165.04 166.298 172.325 168.978 175.968L168.543 177.359Z" fill="#C4C4C4"/>
<path opacity="0.4" fill-rule="evenodd" clip-rule="evenodd" d="M143.883 156.526C126.695 146.82 121.901 136.497 119.853 130.804L119.44 130.928C121.513 136.69 126.361 147.099 143.655 156.864C158.419 165.201 166.142 172.468 168.798 176.079L169.159 175.857C166.455 172.182 158.675 164.879 143.883 156.526Z" fill="url(#paint17_linear_458_481)"/>
<path fill-rule="evenodd" clip-rule="evenodd" d="M133.622 151.331C136.068 153.36 138.92 155.37 142.247 157.292C144.757 158.678 147.072 160.037 149.2 161.355L150.21 160.534C148.231 159.287 146.086 158.004 143.769 156.696C140.62 154.918 137.886 153.119 135.507 151.331H133.622Z" fill="url(#paint18_linear_458_481)"/>
</g>
</g>
<g filter="url(#filter8_f_458_481)">
<path d="M163.114 160.221L172.092 180.059H154.135L163.114 160.221Z" fill="url(#paint19_linear_458_481)"/>
</g>
<g opacity="0.5">
<mask id="mask1_458_481" style="mask-type:alpha" maskUnits="userSpaceOnUse" x="155" y="165" width="17" height="19">
<path fill-rule="evenodd" clip-rule="evenodd" d="M163.133 183.8C163.133 183.8 163.134 183.8 163.134 183.8L163.134 183.8C163.134 183.8 163.134 183.8 163.134 183.8C163.134 183.8 163.134 183.8 163.134 183.8L169.016 181.805C170.963 181.145 171.751 178.815 170.605 177.108L163.134 165.98C163.134 165.98 163.134 165.98 163.134 165.98L163.134 165.98C163.134 165.98 163.134 165.98 163.134 165.98C163.134 165.98 163.133 165.98 163.133 165.98C163.133 165.98 163.133 165.98 163.133 165.98L163.133 165.98C163.133 165.98 163.133 165.98 163.133 165.98L155.662 177.108C154.516 178.815 155.304 181.145 157.251 181.805L163.133 183.8C163.133 183.8 163.133 183.8 163.133 183.8C163.133 183.8 163.133 183.8 163.133 183.8L163.133 183.8Z" fill="url(#paint20_linear_458_481)"/>
</mask>
<g mask="url(#mask1_458_481)">
<path d="M163.186 184.173L172.847 180.545L163.186 164.616L163.186 184.173Z" fill="#FEECFC"/>
<path d="M163.186 184.172L153.525 180.545L163.186 164.616L163.186 184.172Z" fill="#FEECFC"/>
</g>
</g>
</g>
<g opacity="0.5" filter="url(#filter9_f_458_481)">
<ellipse cx="162.937" cy="73.4091" rx="2.07012" ry="1.89262" fill="url(#paint21_radial_458_481)"/>
</g>
<g filter="url(#filter10_f_458_481)">
<path d="M162.937 68.6776L163.365 72.7595L167.594 73.1726L163.365 73.5857L162.937 77.6675L162.509 73.5857L158.279 73.1726L162.509 72.7595L162.937 68.6776Z" fill="#E8F2FF"/>
</g>
</g>
<defs>
<filter id="filter0_dd_458_481" x="0.0973969" y="0.775962" width="326.841" height="301.183" filterUnits="userSpaceOnUse" color-interpolation-filters="sRGB">
<feFlood flood-opacity="0" result="BackgroundImageFix"/>
<feColorMatrix in="SourceAlpha" type="matrix" values="0 0 0 0 0 0 0 0 0 0 0 0 0 0 0 0 0 0 127 0" result="hardAlpha"/>
<feOffset/>
<feGaussianBlur stdDeviation="15.306"/>
<feColorMatrix type="matrix" values="0 0 0 0 0.558594 0 0 0 0 0.710156 0 0 0 0 0.9375 0 0 0 1 0"/>
<feBlend mode="normal" in2="BackgroundImageFix" result="effect1_dropShadow_458_481"/>
<feColorMatrix in="SourceAlpha" type="matrix" values="0 0 0 0 0 0 0 0 0 0 0 0 0 0 0 0 0 0 127 0" result="hardAlpha"/>
<feOffset dy="6.12241"/>
<feGaussianBlur stdDeviation="45.9181"/>
<feColorMatrix type="matrix" values="0 0 0 0 0.670833 0 0 0 0 0.8025 0 0 0 0 1 0 0 0 0.6 0"/>
<feBlend mode="normal" in2="effect1_dropShadow_458_481" result="effect2_dropShadow_458_481"/>
<feBlend mode="normal" in="SourceGraphic" in2="effect2_dropShadow_458_481" result="shape"/>
</filter>
<filter id="filter1_f_458_481" x="140.716" y="169.899" width="44.7966" height="20.6614" filterUnits="userSpaceOnUse" color-interpolation-filters="sRGB">
<feFlood flood-opacity="0" result="BackgroundImageFix"/>
<feBlend mode="normal" in="SourceGraphic" in2="BackgroundImageFix" result="shape"/>
<feGaussianBlur stdDeviation="1.65961" result="effect1_foregroundBlur_458_481"/>
</filter>
<filter id="filter2_f_458_481" x="122.575" y="93.1211" width="80.9676" height="81.5288" filterUnits="userSpaceOnUse" color-interpolation-filters="sRGB">
<feFlood flood-opacity="0" result="BackgroundImageFix"/>
<feBlend mode="normal" in="SourceGraphic" in2="BackgroundImageFix" result="shape"/>
<feGaussianBlur stdDeviation="0.165961" result="effect1_foregroundBlur_458_481"/>
</filter>
<filter id="filter3_i_458_481" x="126.827" y="97.316" width="72.9497" height="73.2723" filterUnits="userSpaceOnUse" color-interpolation-filters="sRGB">
<feFlood flood-opacity="0" result="BackgroundImageFix"/>
<feBlend mode="normal" in="SourceGraphic" in2="BackgroundImageFix" result="shape"/>
<feColorMatrix in="SourceAlpha" type="matrix" values="0 0 0 0 0 0 0 0 0 0 0 0 0 0 0 0 0 0 127 0" result="hardAlpha"/>
<feOffset/>
<feGaussianBlur stdDeviation="7.43963"/>
<feComposite in2="hardAlpha" operator="arithmetic" k2="-1" k3="1"/>
<feColorMatrix type="matrix" values="0 0 0 0 0.297222 0 0 0 0 0.329917 0 0 0 0 0.445833 0 0 0 1 0"/>
<feBlend mode="normal" in2="shape" result="effect1_innerShadow_458_481"/>
</filter>
<filter id="filter4_d_458_481" x="152.735" y="130.224" width="87.5088" height="57.4189" filterUnits="userSpaceOnUse" color-interpolation-filters="sRGB">
<feFlood flood-opacity="0" result="BackgroundImageFix"/>
<feColorMatrix in="SourceAlpha" type="matrix" values="0 0 0 0 0 0 0 0 0 0 0 0 0 0 0 0 0 0 127 0" result="hardAlpha"/>
<feOffset dy="5.14185"/>
<feGaussianBlur stdDeviation="2.57092"/>
<feColorMatrix type="matrix" values="0 0 0 0 0.214861 0 0 0 0 0.236708 0 0 0 0 0.433333 0 0 0 0.25 0"/>
<feBlend mode="normal" in2="BackgroundImageFix" result="effect1_dropShadow_458_481"/>
<feBlend mode="normal" in="SourceGraphic" in2="effect1_dropShadow_458_481" result="shape"/>
</filter>
<filter id="filter5_d_458_481" x="154.021" y="129.518" width="57.4315" height="54.2677" filterUnits="userSpaceOnUse" color-interpolation-filters="sRGB">
<feFlood flood-opacity="0" result="BackgroundImageFix"/>
<feColorMatrix in="SourceAlpha" type="matrix" values="0 0 0 0 0 0 0 0 0 0 0 0 0 0 0 0 0 0 127 0" result="hardAlpha"/>
<feOffset dy="2.57092"/>
<feGaussianBlur stdDeviation="1.92819"/>
<feColorMatrix type="matrix" values="0 0 0 0 0.302882 0 0 0 0 0.323427 0 0 0 0 0.508333 0 0 0 0.25 0"/>
<feBlend mode="normal" in2="BackgroundImageFix" result="effect1_dropShadow_458_481"/>
<feBlend mode="normal" in="SourceGraphic" in2="effect1_dropShadow_458_481" result="shape"/>
</filter>
<filter id="filter6_d_458_481" x="86.7917" y="130.223" width="87.5088" height="57.4193" filterUnits="userSpaceOnUse" color-interpolation-filters="sRGB">
<feFlood flood-opacity="0" result="BackgroundImageFix"/>
<feColorMatrix in="SourceAlpha" type="matrix" values="0 0 0 0 0 0 0 0 0 0 0 0 0 0 0 0 0 0 127 0" result="hardAlpha"/>
<feOffset dy="5.14185"/>
<feGaussianBlur stdDeviation="2.57092"/>
<feColorMatrix type="matrix" values="0 0 0 0 0.214861 0 0 0 0 0.236708 0 0 0 0 0.433333 0 0 0 0.25 0"/>
<feBlend mode="normal" in2="BackgroundImageFix" result="effect1_dropShadow_458_481"/>
<feBlend mode="normal" in="SourceGraphic" in2="effect1_dropShadow_458_481" result="shape"/>
</filter>
<filter id="filter7_d_458_481" x="115.584" y="129.518" width="57.4315" height="54.2677" filterUnits="userSpaceOnUse" color-interpolation-filters="sRGB">
<feFlood flood-opacity="0" result="BackgroundImageFix"/>
<feColorMatrix in="SourceAlpha" type="matrix" values="0 0 0 0 0 0 0 0 0 0 0 0 0 0 0 0 0 0 127 0" result="hardAlpha"/>
<feOffset dy="2.57092"/>
<feGaussianBlur stdDeviation="1.92819"/>
<feColorMatrix type="matrix" values="0 0 0 0 0.302882 0 0 0 0 0.323427 0 0 0 0 0.508333 0 0 0 0.25 0"/>
<feBlend mode="normal" in2="BackgroundImageFix" result="effect1_dropShadow_458_481"/>
<feBlend mode="normal" in="SourceGraphic" in2="effect1_dropShadow_458_481" result="shape"/>
</filter>
<filter id="filter8_f_458_481" x="149.71" y="155.796" width="26.8083" height="28.6887" filterUnits="userSpaceOnUse" color-interpolation-filters="sRGB">
<feFlood flood-opacity="0" result="BackgroundImageFix"/>
<feBlend mode="normal" in="SourceGraphic" in2="BackgroundImageFix" result="shape"/>
<feGaussianBlur stdDeviation="2.21281" result="effect1_foregroundBlur_458_481"/>
</filter>
<filter id="filter9_f_458_481" x="157.805" y="68.4553" width="10.2625" height="9.90769" filterUnits="userSpaceOnUse" color-interpolation-filters="sRGB">
<feFlood flood-opacity="0" result="BackgroundImageFix"/>
<feBlend mode="normal" in="SourceGraphic" in2="BackgroundImageFix" result="shape"/>
<feGaussianBlur stdDeviation="1.5306" result="effect1_foregroundBlur_458_481"/>
</filter>
<filter id="filter10_f_458_481" x="157.36" y="67.7593" width="11.1522" height="10.8267" filterUnits="userSpaceOnUse" color-interpolation-filters="sRGB">
<feFlood flood-opacity="0" result="BackgroundImageFix"/>
<feBlend mode="normal" in="SourceGraphic" in2="BackgroundImageFix" result="shape"/>
<feGaussianBlur stdDeviation="0.459181" result="effect1_foregroundBlur_458_481"/>
</filter>
<linearGradient id="paint0_linear_458_481" x1="162.206" y1="63" x2="162.206" y2="118.476" gradientUnits="userSpaceOnUse">
<stop stop-color="#AACCFF" stop-opacity="0"/>
<stop offset="1" stop-color="#AACCFF" stop-opacity="0.3"/>
</linearGradient>
<linearGradient id="paint1_linear_458_481" x1="227.772" y1="168.438" x2="177.682" y2="136.806" gradientUnits="userSpaceOnUse">
<stop stop-color="#AACCFF" stop-opacity="0"/>
<stop offset="1" stop-color="#AACCFF" stop-opacity="0.3"/>
</linearGradient>
<linearGradient id="paint2_linear_458_481" x1="161.823" y1="203.527" x2="161.823" y2="148.051" gradientUnits="userSpaceOnUse">
<stop stop-color="#AACCFF" stop-opacity="0"/>
<stop offset="1" stop-color="#AACCFF" stop-opacity="0.3"/>
</linearGradient>
<linearGradient id="paint3_linear_458_481" x1="96.3596" y1="168.614" x2="146.45" y2="136.983" gradientUnits="userSpaceOnUse">
<stop stop-color="#AACCFF" stop-opacity="0"/>
<stop offset="1" stop-color="#AACCFF" stop-opacity="0.3"/>
</linearGradient>
<linearGradient id="paint4_linear_458_481" x1="227.772" y1="98.176" x2="177.682" y2="129.808" gradientUnits="userSpaceOnUse">
<stop stop-color="#AACCFF" stop-opacity="0"/>
<stop offset="1" stop-color="#AACCFF" stop-opacity="0.3"/>
</linearGradient>
<linearGradient id="paint5_linear_458_481" x1="96.3596" y1="98" x2="146.45" y2="129.632" gradientUnits="userSpaceOnUse">
<stop stop-color="#AACCFF" stop-opacity="0"/>
<stop offset="1" stop-color="#AACCFF" stop-opacity="0.3"/>
</linearGradient>
<linearGradient id="paint6_linear_458_481" x1="147.028" y1="100.367" x2="181.022" y2="167.259" gradientUnits="userSpaceOnUse">
<stop stop-color="#DDDFE2"/>
<stop offset="1" stop-color="white"/>
</linearGradient>
<linearGradient id="paint7_linear_458_481" x1="163.302" y1="148.132" x2="163.118" y2="169.98" gradientUnits="userSpaceOnUse">
<stop stop-color="white" stop-opacity="0"/>
<stop offset="1" stop-color="#D0DBFF"/>
</linearGradient>
<linearGradient id="paint8_linear_458_481" x1="214.961" y1="143.191" x2="201.427" y2="138.441" gradientUnits="userSpaceOnUse">
<stop offset="0.209488" stop-color="#9196AA"/>
<stop offset="0.583159" stop-color="#C9C9DC"/>
<stop offset="0.986946" stop-color="#797D87"/>
</linearGradient>
<linearGradient id="paint9_linear_458_481" x1="199.65" y1="154.986" x2="191.239" y2="149.791" gradientUnits="userSpaceOnUse">
<stop offset="0.209488" stop-color="#717995"/>
<stop offset="0.583159" stop-color="#A4A5BB"/>
<stop offset="0.986946" stop-color="#797D87"/>
</linearGradient>
<linearGradient id="paint10_linear_458_481" x1="183.158" y1="130.667" x2="183.158" y2="177.359" gradientUnits="userSpaceOnUse">
<stop stop-color="#C4C4C4"/>
<stop offset="1" stop-color="#63687B"/>
</linearGradient>
<linearGradient id="paint11_linear_458_481" x1="187.613" y1="152.523" x2="180.626" y2="162.076" gradientUnits="userSpaceOnUse">
<stop stop-color="white" stop-opacity="0"/>
<stop offset="0.445395" stop-color="white"/>
<stop offset="1" stop-color="white" stop-opacity="0"/>
</linearGradient>
<linearGradient id="paint12_linear_458_481" x1="184.571" y1="152.92" x2="185.03" y2="161.359" gradientUnits="userSpaceOnUse">
<stop offset="0.0495744" stop-color="#C4C4C4"/>
<stop offset="0.454268" stop-color="#EDEDED"/>
<stop offset="1" stop-color="#C4C4C4" stop-opacity="0"/>
</linearGradient>
<linearGradient id="paint13_linear_458_481" x1="112.074" y1="143.19" x2="125.608" y2="138.44" gradientUnits="userSpaceOnUse">
<stop offset="0.209488" stop-color="#9196AA"/>
<stop offset="0.583159" stop-color="#C9C9DC"/>
<stop offset="0.986946" stop-color="#797D87"/>
</linearGradient>
<linearGradient id="paint14_linear_458_481" x1="127.386" y1="154.986" x2="135.797" y2="149.791" gradientUnits="userSpaceOnUse">
<stop offset="0.209488" stop-color="#717995"/>
<stop offset="0.583159" stop-color="#A4A5BB"/>
<stop offset="0.986946" stop-color="#797D87"/>
</linearGradient>
<linearGradient id="paint15_linear_458_481" x1="133.954" y1="152.398" x2="131.963" y2="176.681" gradientUnits="userSpaceOnUse">
<stop offset="0.0306468" stop-color="#DBDCE7"/>
<stop offset="0.274204" stop-color="#CBCCD7"/>
<stop offset="0.675444" stop-color="#D1D2D9"/>
</linearGradient>
<linearGradient id="paint16_linear_458_481" x1="143.877" y1="130.667" x2="143.877" y2="177.359" gradientUnits="userSpaceOnUse">
<stop stop-color="#C4C4C4"/>
<stop offset="1" stop-color="#63687B"/>
</linearGradient>
<linearGradient id="paint17_linear_458_481" x1="139.423" y1="152.523" x2="146.41" y2="162.076" gradientUnits="userSpaceOnUse">
<stop stop-color="white" stop-opacity="0"/>
<stop offset="0.445395" stop-color="white"/>
<stop offset="1" stop-color="white" stop-opacity="0"/>
</linearGradient>
<linearGradient id="paint18_linear_458_481" x1="142.464" y1="152.92" x2="142.006" y2="161.36" gradientUnits="userSpaceOnUse">
<stop offset="0.0495744" stop-color="#C4C4C4"/>
<stop offset="0.454268" stop-color="#EDEDED"/>
<stop offset="1" stop-color="#C4C4C4" stop-opacity="0"/>
</linearGradient>
<linearGradient id="paint19_linear_458_481" x1="163.114" y1="180.228" x2="163.114" y2="166.664" gradientUnits="userSpaceOnUse">
<stop stop-color="#585B77" stop-opacity="0.75"/>
<stop offset="1" stop-color="#525787" stop-opacity="0"/>
</linearGradient>
<linearGradient id="paint20_linear_458_481" x1="163.931" y1="170.82" x2="157.902" y2="178.876" gradientUnits="userSpaceOnUse">
<stop stop-color="#D5D7D9"/>
<stop offset="1" stop-color="#E2E3E7"/>
</linearGradient>
<radialGradient id="paint21_radial_458_481" cx="0" cy="0" r="1" gradientUnits="userSpaceOnUse" gradientTransform="translate(162.937 73.4091) rotate(90) scale(3.02819 3.31219)">
<stop stop-color="#E7ECFF"/>
<stop offset="0.979167" stop-color="#ABC3FF" stop-opacity="0.8825"/>
<stop offset="1" stop-color="#AACCFF" stop-opacity="0.88"/>
</radialGradient>
</defs>
</svg>
