<svg width="26" height="26" viewBox="0 0 26 26" fill="none" xmlns="http://www.w3.org/2000/svg">
<path d="M13.0002 2.16669C10.1619 2.16669 7.85437 4.47419 7.85437 7.31252C7.85437 10.0967 10.0319 12.35 12.8702 12.4475C12.9569 12.4367 13.0435 12.4367 13.1085 12.4475H13.1844C14.5162 12.4031 15.7785 11.8425 16.7044 10.8842C17.6304 9.92588 18.1473 8.64506 18.146 7.31252C18.146 4.47419 15.8385 2.16669 13.0002 2.16669ZM18.5035 15.3281C15.481 13.3131 10.5519 13.3131 7.5077 15.3281C6.13187 16.2489 5.37354 17.4948 5.37354 18.8273C5.37354 20.1598 6.13187 21.3948 7.49687 22.3048C9.01354 23.3231 11.0069 23.8323 13.0002 23.8323C14.9935 23.8323 16.9869 23.3231 18.5035 22.3048C19.8685 21.3839 20.6269 20.1489 20.6269 18.8056C20.616 17.4731 19.8685 16.2381 18.5035 15.3281ZM15.1669 19.6398H13.8127V20.9939C13.8127 21.4381 13.4444 21.8064 13.0002 21.8064C12.556 21.8064 12.1877 21.4381 12.1877 20.9939V19.6398H10.8335C10.3894 19.6398 10.021 19.2714 10.021 18.8273C10.021 18.3831 10.3894 18.0148 10.8335 18.0148H12.1877V16.6606C12.1877 16.2164 12.556 15.8481 13.0002 15.8481C13.4444 15.8481 13.8127 16.2164 13.8127 16.6606V18.0148H15.1669C15.611 18.0148 15.9794 18.3831 15.9794 18.8273C15.9794 19.2714 15.611 19.6398 15.1669 19.6398Z" fill="#FEECFC"/>
</svg>
