<svg width="26" height="26" viewBox="0 0 26 26" fill="none" xmlns="http://www.w3.org/2000/svg">
<g clip-path="url(#clip0_563_483)">
<path d="M3.25 13C3.25 14.2804 3.50219 15.5482 3.99217 16.7312C4.48216 17.9141 5.20034 18.9889 6.10571 19.8943C7.01108 20.7997 8.08591 21.5178 9.26884 22.0078C10.4518 22.4978 11.7196 22.75 13 22.75C14.2804 22.75 15.5482 22.4978 16.7312 22.0078C17.9141 21.5178 18.9889 20.7997 19.8943 19.8943C20.7997 18.9889 21.5178 17.9141 22.0078 16.7312C22.4978 15.5482 22.75 14.2804 22.75 13C22.75 11.7196 22.4978 10.4518 22.0078 9.26884C21.5178 8.08591 20.7997 7.01108 19.8943 6.10571C18.9889 5.20034 17.9141 4.48216 16.7312 3.99217C15.5482 3.50219 14.2804 3.25 13 3.25C11.7196 3.25 10.4518 3.50219 9.26884 3.99217C8.08591 4.48216 7.01108 5.20034 6.10571 6.10571C5.20034 7.01108 4.48216 8.08591 3.99217 9.26884C3.50219 10.4518 3.25 11.7196 3.25 13Z" stroke="#FEECFC" stroke-width="3" stroke-linecap="round" stroke-linejoin="round"/>
<path d="M6.1748 6.17499L19.8248 19.825" stroke="#FEECFC" stroke-width="3" stroke-linecap="round" stroke-linejoin="round"/>
</g>
<defs>
<clipPath id="clip0_563_483">
<rect width="26" height="26" fill="white"/>
</clipPath>
</defs>
</svg>
