<svg width="80" height="80" viewBox="0 0 80 80" fill="none" xmlns="http://www.w3.org/2000/svg">
<circle cx="40" cy="40" r="40" fill="#260323"/>
<g clip-path="url(#clip0_601_626)">
<path d="M46.25 21.25C47.3012 21.2497 48.3136 21.6467 49.0844 22.3615C49.8552 23.0762 50.3274 24.0559 50.4062 25.1042L50.4166 25.4167C50.4167 25.9269 50.604 26.4195 50.9431 26.8008C51.2822 27.1821 51.7494 27.4257 52.2562 27.4854L52.5 27.5H54.5833C56.1775 27.4999 57.7114 28.109 58.8713 29.2027C60.0312 30.2963 60.7294 31.7919 60.8229 33.3833L60.8333 33.75V52.5C60.8334 54.0942 60.2243 55.6282 59.1306 56.788C58.037 57.9479 56.5414 58.6461 54.95 58.7396L54.5833 58.75H25.4166C23.8224 58.7501 22.2885 58.141 21.1286 57.0473C19.9687 55.9537 19.2706 54.4581 19.177 52.8667L19.1666 52.5V33.75C19.1665 32.1558 19.7756 30.6218 20.8693 29.462C21.963 28.3021 23.4585 27.6039 25.05 27.5104L25.4166 27.5H27.5C28.0525 27.5 28.5824 27.2805 28.9731 26.8898C29.3638 26.4991 29.5833 25.9692 29.5833 25.4167C29.583 24.3655 29.98 23.353 30.6947 22.5822C31.4095 21.8114 32.3892 21.3393 33.4375 21.2604L33.75 21.25H46.25ZM40 35.8333C38.4512 35.8332 36.9576 36.4081 35.8086 37.4466C34.6596 38.4851 33.9371 39.9133 33.7812 41.4542L33.7583 41.7708L33.75 42.0833L33.7583 42.3958C33.8194 43.6171 34.2375 44.7937 34.9607 45.7798C35.684 46.7658 36.6806 47.518 37.8271 47.9433C38.9736 48.3685 40.2197 48.4481 41.411 48.1721C42.6023 47.8961 43.6865 47.2767 44.5292 46.3907C45.372 45.5046 45.9363 44.3908 46.1522 43.1871C46.3682 41.9835 46.2263 40.743 45.7442 39.6192C45.2621 38.4954 44.4609 37.5377 43.4399 36.8648C42.4188 36.1919 41.2228 35.8332 40 35.8333Z" fill="#FEECFC"/>
</g>
<defs>
<clipPath id="clip0_601_626">
<rect width="50" height="50" fill="white" transform="translate(15 15)"/>
</clipPath>
</defs>
</svg>
