<svg width="24" height="24" viewBox="0 0 24 24" fill="none" xmlns="http://www.w3.org/2000/svg">
<path d="M12.0002 0.333374C5.57183 0.333374 0.333496 5.57171 0.333496 12C0.333496 18.4284 5.57183 23.6667 12.0002 23.6667C18.4285 23.6667 23.6668 18.4284 23.6668 12C23.6668 5.57171 18.4285 0.333374 12.0002 0.333374ZM16.6668 12.875H12.8752V16.6667C12.8752 17.145 12.4785 17.5417 12.0002 17.5417C11.5218 17.5417 11.1252 17.145 11.1252 16.6667V12.875H7.3335C6.85516 12.875 6.4585 12.4784 6.4585 12C6.4585 11.5217 6.85516 11.125 7.3335 11.125H11.1252V7.33337C11.1252 6.85504 11.5218 6.45837 12.0002 6.45837C12.4785 6.45837 12.8752 6.85504 12.8752 7.33337V11.125H16.6668C17.1452 11.125 17.5418 11.5217 17.5418 12C17.5418 12.4784 17.1452 12.875 16.6668 12.875Z" fill="#260323"/>
</svg>
