<svg width="44" height="23" viewBox="0 0 44 23" fill="none" xmlns="http://www.w3.org/2000/svg">
<path d="M17.2917 0.424278L10 7.12836L2.70833 0.420445C2.46307 0.194632 2.16729 0.0531408 1.85511 0.0122906C1.54293 -0.0285597 1.22706 0.0328952 0.943946 0.189567C0.660828 0.346239 0.421989 0.591745 0.254974 0.897773C0.0879579 1.2038 -0.000430756 1.55788 1.57843e-06 1.91918V13.4185C0.000157595 13.7056 0.0564019 13.989 0.16458 14.2477C0.272759 14.5064 0.430107 14.7339 0.625002 14.9134L8.95833 22.5796C9.25394 22.8517 9.62133 23 10 23C10.3787 23 10.7461 22.8517 11.0417 22.5796L19.375 14.9134C19.5699 14.7339 19.7272 14.5064 19.8354 14.2477C19.9436 13.989 19.9998 13.7056 20 13.4185V1.91918C19.9998 1.55821 19.911 1.20464 19.7437 0.899173C19.5764 0.59371 19.3375 0.348776 19.0546 0.192571C18.7716 0.0363658 18.4559 -0.0247594 18.1441 0.016233C17.8322 0.0572255 17.5367 0.198669 17.2917 0.424278Z" fill="#FEECFC"/>
<path d="M32.9583 0.420471L24.625 8.08718C24.4301 8.26663 24.2728 8.49414 24.1646 8.7529C24.0564 9.01166 24.0002 9.29507 24 9.58219V21.0822L24.01 21.2969C24.0432 21.6378 24.1554 21.9621 24.3348 22.2361C24.5141 22.5101 24.7542 22.7237 25.0298 22.8547C25.3054 22.9857 25.6066 23.0292 25.9018 22.9808C26.1971 22.9323 26.4756 22.7936 26.7083 22.5792L34 15.8689L41.2917 22.5773C41.5367 22.8029 41.8322 22.9443 42.1441 22.9853C42.4559 23.0263 42.7716 22.9652 43.0546 22.809C43.3376 22.6528 43.5764 22.4078 43.7437 22.1023C43.911 21.7968 43.9998 21.4432 44 21.0822V9.58219C43.9998 9.29507 43.9436 9.01166 43.8354 8.7529C43.7272 8.49414 43.5699 8.26663 43.375 8.08718L35.0417 0.420471C34.7461 0.148297 34.3787 0 34 0C33.6213 0 33.2539 0.148297 32.9583 0.420471Z" fill="#FEECFC"/>
</svg>
