<svg width="50" height="46" viewBox="0 0 50 46" fill="none" xmlns="http://www.w3.org/2000/svg">
<path d="M32.5 0.5C33.7614 0.499601 34.9764 0.976016 35.9014 1.83374C36.8263 2.69147 37.3929 3.86711 37.4875 5.125L37.5 5.5C37.5001 6.11233 37.7249 6.70334 38.1318 7.16093C38.5387 7.61852 39.0994 7.91086 39.7075 7.9825L40 8H42.5C44.413 7.99989 46.2538 8.73081 47.6456 10.0432C49.0375 11.3556 49.8753 13.1503 49.9875 15.06L50 15.5V38C50.0001 39.913 49.2692 41.7538 47.9568 43.1456C46.6444 44.5375 44.8497 45.3753 42.94 45.4875L42.5 45.5H7.5C5.58697 45.5001 3.74621 44.7692 2.35435 43.4568C0.962483 42.1444 0.124731 40.3497 0.0125003 38.44L1.16511e-08 38V15.5C-0.000106554 13.587 0.730813 11.7462 2.04321 10.3543C3.35561 8.96248 5.15027 8.12473 7.06 8.0125L7.5 8H10C10.663 8 11.2989 7.73661 11.7678 7.26777C12.2366 6.79893 12.5 6.16304 12.5 5.5C12.4996 4.23856 12.976 3.02358 13.8337 2.09863C14.6915 1.17368 15.8671 0.607109 17.125 0.512501L17.5 0.5H32.5ZM25 18C23.1415 17.9999 21.3491 18.6898 19.9703 19.936C18.5916 21.1822 17.7246 22.8959 17.5375 24.745L17.51 25.125L17.5 25.5L17.51 25.875C17.5834 27.3406 18.0851 28.7524 18.9529 29.9357C19.8208 31.119 21.0167 32.0216 22.3925 32.5319C23.7684 33.0422 25.2637 33.1377 26.6932 32.8065C28.1228 32.4753 29.4238 31.7321 30.4351 30.6688C31.4464 29.6055 32.1236 28.2689 32.3827 26.8246C32.6419 25.3802 32.4716 23.8916 31.8931 22.543C31.3146 21.1945 30.3531 20.0453 29.1279 19.2377C27.9026 18.4302 26.4674 17.9999 25 18Z" fill="#FEECFC"/>
</svg>
