<svg width="24" height="24" viewBox="0 0 24 24" fill="none" xmlns="http://www.w3.org/2000/svg">
<path d="M11.665 10.3818C10.9534 10.3818 10.3818 10.9534 10.3818 11.665C10.3818 12.3766 10.9534 12.9481 11.665 12.9481C12.3766 12.9481 12.9481 12.3766 12.9481 11.665C12.9481 10.9534 12.3766 10.3818 11.665 10.3818ZM11.665 0C5.22592 0 0 5.22592 0 11.665C0 18.1041 5.22592 23.33 11.665 23.33C18.1041 23.33 23.33 18.1041 23.33 11.665C23.33 5.22592 18.1041 0 11.665 0ZM14.2196 14.2196L4.666 18.664L9.11036 9.11036L18.664 4.666L14.2196 14.2196Z" fill="#260323"/>
</svg>
