<svg width="24" height="24" viewBox="0 0 24 24" fill="none" xmlns="http://www.w3.org/2000/svg">
<g opacity="0.4">
<path d="M21.27 9.17999C20.98 8.71999 20.67 8.28999 20.35 7.88999C19.98 7.41999 19.28 7.37999 18.86 7.79999L15.86 10.8C16.08 11.46 16.12 12.22 15.92 13.01C15.57 14.42 14.43 15.56 13.02 15.91C12.23 16.11 11.47 16.07 10.81 15.85C10.81 15.85 9.37999 17.28 8.34999 18.31C7.84999 18.81 8.00999 19.69 8.67999 19.95C9.74999 20.36 10.86 20.57 12 20.57C13.78 20.57 15.51 20.05 17.09 19.08C18.7 18.08 20.15 16.61 21.32 14.74C22.27 13.23 22.22 10.69 21.27 9.17999Z" fill="#FEECFC"/>
<path d="M14.02 9.98001L9.98 14.02C9.47 13.5 9.14 12.78 9.14 12C9.14 10.43 10.42 9.14001 12 9.14001C12.78 9.14001 13.5 9.47001 14.02 9.98001Z" fill="#FEECFC"/>
<path d="M18.25 5.74999L14.86 9.13999C14.13 8.39999 13.12 7.95999 12 7.95999C9.76 7.95999 7.96 9.76999 7.96 12C7.96 13.12 8.41 14.13 9.14 14.86L5.76 18.25H5.75C4.64 17.35 3.62 16.2 2.75 14.84C1.75 13.27 1.75 10.72 2.75 9.14999C3.91 7.32999 5.33 5.89999 6.91 4.91999C8.49 3.95999 10.22 3.42999 12 3.42999C14.23 3.42999 16.39 4.24999 18.25 5.74999Z" fill="#FEECFC"/>
<path d="M14.86 12C14.86 13.57 13.58 14.86 12 14.86C11.94 14.86 11.89 14.86 11.83 14.84L14.84 11.83C14.86 11.89 14.86 11.94 14.86 12Z" fill="#FEECFC"/>
<path d="M21.77 2.23C21.47 1.93 20.98 1.93 20.68 2.23L2.23 20.69C1.93 20.99 1.93 21.48 2.23 21.78C2.38 21.92 2.57 22 2.77 22C2.97 22 3.16 21.92 3.31 21.77L21.77 3.31C22.08 3.01 22.08 2.53 21.77 2.23Z" fill="#FEECFC"/>
</g>
</svg>
