<svg width="28" height="28" viewBox="0 0 28 28" fill="none" xmlns="http://www.w3.org/2000/svg">
<path d="M17.4978 5.83331C19.6401 5.83227 21.6971 6.67311 23.2253 8.17458C24.7535 9.67606 25.6305 11.7179 25.6672 13.86C25.704 16.002 24.8975 18.0727 23.4217 19.6257C21.9459 21.1787 19.9189 22.0896 17.7778 22.162L17.4978 22.1666H10.5024C8.36007 22.1677 6.30307 21.3268 4.77489 19.8254C3.2467 18.3239 2.36972 16.2821 2.33299 14.14C2.29626 11.9979 3.10272 9.92723 4.57853 8.37425C6.05434 6.82126 8.08129 5.91039 10.2224 5.83798L10.5013 5.83331H17.4966H17.4978ZM17.2084 14.5833C16.8217 14.5833 16.4507 14.737 16.1772 15.0105C15.9038 15.2839 15.7501 15.6549 15.7501 16.0416C15.7501 16.4284 15.9038 16.7994 16.1772 17.0728C16.4507 17.3463 16.8217 17.5 17.2084 17.5C17.5952 17.5 17.9661 17.3463 18.2396 17.0728C18.5131 16.7994 18.6668 16.4284 18.6668 16.0416C18.6668 15.6549 18.5131 15.2839 18.2396 15.0105C17.9661 14.737 17.5952 14.5833 17.2084 14.5833ZM9.33344 10.5C9.122 10.5 8.91771 10.5766 8.75835 10.7155C8.599 10.8545 8.49536 11.0465 8.46661 11.256L8.45844 11.375V13.1226H6.70844C6.48517 13.1204 6.26947 13.2035 6.10553 13.3551C5.94158 13.5067 5.84178 13.7152 5.82657 13.938C5.81136 14.1608 5.88189 14.3809 6.02372 14.5534C6.16554 14.7258 6.36793 14.8376 6.58944 14.8656L6.70844 14.8738L8.45844 14.8726V16.625C8.45851 16.8467 8.54272 17.0601 8.69407 17.2221C8.84542 17.3841 9.05262 17.4826 9.2738 17.4977C9.49498 17.5128 9.71365 17.4434 9.88562 17.3035C10.0576 17.1636 10.1701 16.9636 10.2003 16.744L10.2084 16.625V14.8726H11.9584C12.1787 14.8706 12.3902 14.7855 12.5505 14.6344C12.7108 14.4832 12.8082 14.2772 12.8232 14.0574C12.8382 13.8376 12.7698 13.6202 12.6315 13.4486C12.4933 13.2771 12.2954 13.164 12.0774 13.132L11.9584 13.1238L10.2084 13.1226V11.375C10.2084 11.1429 10.1163 10.9204 9.95216 10.7563C9.78806 10.5922 9.5655 10.5 9.33344 10.5ZM19.5418 10.5C19.155 10.5 18.7841 10.6536 18.5106 10.9271C18.2371 11.2006 18.0834 11.5715 18.0834 11.9583C18.0834 12.3451 18.2371 12.716 18.5106 12.9895C18.7841 13.263 19.155 13.4166 19.5418 13.4166C19.9285 13.4166 20.2995 13.263 20.573 12.9895C20.8465 12.716 21.0001 12.3451 21.0001 11.9583C21.0001 11.5715 20.8465 11.2006 20.573 10.9271C20.2995 10.6536 19.9285 10.5 19.5418 10.5Z" fill="#FEECFC"/>
</svg>
