<svg width="45" height="72" viewBox="0 0 45 72" fill="none" xmlns="http://www.w3.org/2000/svg">
<path fill-rule="evenodd" clip-rule="evenodd" d="M21.6099 0.199447C20.1148 0.895664 20.1036 2.67047 21.5897 3.39814C22.2889 3.74045 22.2866 3.71198 21.7827 5.67781C20.3588 11.2373 19.0193 13.2544 16.7443 13.2643C14.8593 13.2726 13.0043 11.5971 10.3423 7.48108C9.74076 6.55048 9.74738 6.70442 10.2844 6.1499C10.9425 5.47057 10.9789 4.85049 10.3992 4.19036C9.24781 2.87904 6.82811 3.88281 7.26113 5.49142C7.45712 6.21942 7.90239 6.52366 9.05017 6.71402L9.46598 6.78321L9.65601 7.44864C10.3082 9.73195 10.4651 12.6549 9.99601 13.7831C8.97204 16.2449 6.34244 15.7281 3.06099 12.4201C2.1711 11.5226 2.19825 11.5809 2.47899 11.1681C3.21228 10.0885 1.91486 8.88245 0.692264 9.50716C-0.600189 10.1676 0.0533221 11.8802 1.53084 11.7054C1.9152 11.6597 1.95592 11.6736 2.1774 11.9232C2.3075 12.0699 2.59684 12.3956 2.82064 12.6473C4.26141 14.2665 5.95213 16.8004 7.07044 19.0155L7.88584 20.6311L22.5259 20.6317L37.166 20.6327L37.7629 19.4058C39.013 16.8361 40.614 14.4267 42.3745 12.4655C42.6662 12.1411 42.936 11.8223 42.9741 11.757C43.0274 11.6663 43.1476 11.6521 43.4905 11.6948C44.8856 11.8689 45.5745 10.2113 44.4069 9.48962C43.2734 8.7891 41.8438 10.0964 42.5718 11.1681C42.8552 11.5846 42.8943 11.5114 41.819 12.5837C38.563 15.8304 35.9851 16.1508 34.9446 13.4375C34.5539 12.4195 34.783 9.44327 35.4104 7.38011L35.5905 6.78751L36.1715 6.70011C38.0026 6.42467 38.477 4.61213 36.9233 3.82851C35.0757 2.89691 33.3962 4.80481 34.8115 6.2277L35.2495 6.66767L34.9383 7.26623C33.4909 10.0501 30.0529 13.0425 28.0288 13.2802C26.1219 13.5044 23.8657 9.50915 22.9056 4.2089C22.8076 3.66629 22.8119 3.65669 23.2324 3.49613C24.9307 2.84725 25.0373 0.988361 23.4231 0.179254C22.9308 -0.0670538 22.1644 -0.0587783 21.6099 0.199447ZM2.68689 29.5865V35.7955L8.84227 41.9539L14.9976 48.1119V50.9252C14.9976 52.6279 14.9668 53.7386 14.9192 53.7386C14.8761 53.7386 13.4913 51.9919 11.8417 49.8576L8.84227 45.9763V45.0946V44.213L5.82533 41.1984C4.16573 39.5405 2.78092 38.1838 2.74748 38.1838C2.71404 38.1838 2.68689 40.4045 2.68689 43.1192V48.0546L3.37318 48.9333C3.75059 49.4163 4.806 50.7796 5.7184 51.9625C6.6308 53.145 8.27516 55.2734 9.37262 56.6913C10.4697 58.1095 11.8738 59.9251 12.4925 60.7256C13.1113 61.5264 14.1832 62.9112 14.8745 63.8034C15.5657 64.6956 16.7807 66.2675 17.5746 67.2971C18.3681 68.3263 19.211 69.4119 19.4474 69.7092C19.6834 70.0065 20.1357 70.5855 20.4525 70.9953L21.0282 71.7412L21.0494 58.6022L21.0702 45.4631L14.9354 39.3071L8.80055 33.1514L8.82306 31.3421L8.84558 29.5329H11.9214H14.9976V33.2974V37.0618L18.0338 40.097L21.0699 43.1321V33.255V23.3775H11.8784H2.68689V29.5865ZM23.8978 29.3465V35.3152L29.6374 41.0527C32.794 44.2087 35.3769 46.8204 35.3769 46.8569C35.3769 46.9939 30.1532 53.7386 30.0472 53.7386C30.0009 53.7386 29.9701 51.7327 29.9701 48.6853L29.9698 43.632L26.934 40.5969L23.8978 37.5614V54.6894V71.817L24.4729 71.0751C24.789 70.6669 25.9001 69.2288 26.9412 67.8791C27.9828 66.5297 29.2292 64.9201 29.7112 64.3023C30.1932 63.6849 30.9467 62.7116 31.386 62.1399C31.825 61.5678 32.6407 60.5104 33.1986 59.79C35.1475 57.2713 36.2549 55.8395 38.3277 53.1562C41.1185 49.5434 41.4247 49.1485 41.8859 48.5628L42.2808 48.0609V46.5119V44.9625L36.1255 38.8075L29.9701 32.6528V31.0928V29.5329H33.0479H36.1255V33.0477V36.5626L39.1411 39.5775C40.7997 41.2355 42.1848 42.5925 42.2189 42.5925C42.253 42.5925 42.2808 38.2689 42.2808 32.9848V23.3775H33.0893H23.8978V29.3465Z" fill="#FEECFC" fill-opacity="0.4"/>
</svg>
