<svg width="714" height="752" viewBox="0 0 714 752" fill="none" xmlns="http://www.w3.org/2000/svg">
<g filter="url(#filter0_d_281_63)">
<path fill-rule="evenodd" clip-rule="evenodd" d="M199.755 454.66V644.914L285.633 680.109C286.191 680.338 286.802 679.932 286.802 679.329C286.792 607.886 286.884 525.98 286.884 454.66H199.755Z" fill="#9CB7ED"/>
<path fill-rule="evenodd" clip-rule="evenodd" d="M199.755 454.66V644.914L285.633 680.109C286.191 680.338 286.802 679.932 286.802 679.329C286.792 607.886 286.884 525.98 286.884 454.66H199.755Z" stroke="url(#paint0_linear_281_63)" stroke-width="0.847887"/>
</g>
<path fill-rule="evenodd" clip-rule="evenodd" d="M206.967 636.396V561.735H205.374V637.408L206.04 637.492C208.241 637.772 210.688 638.765 212.687 640.217C214.683 641.667 216.161 643.523 216.528 645.479L216.588 645.804L281 670.952V586.646H279.408V669.043L218.033 644.979C217.509 642.814 215.863 640.847 213.785 639.338C211.791 637.889 209.341 636.819 206.967 636.396Z" fill="url(#paint1_linear_281_63)"/>
<path fill-rule="evenodd" clip-rule="evenodd" d="M279.317 664.599C281.034 662.385 281.132 659.245 280.999 657.217L279.409 657.277C279.541 659.297 279.401 662.106 277.947 663.98C277.242 664.889 276.244 665.558 274.809 665.833C273.348 666.113 271.329 666.004 268.552 665.181L267.975 666.312C270.929 667.189 273.302 667.374 275.196 667.011C277.116 666.643 278.436 665.734 279.317 664.599Z" fill="#E3EFFB"/>
<g filter="url(#filter1_d_281_63)">
<path fill-rule="evenodd" clip-rule="evenodd" d="M185.752 640.631V454.66H84.6239V601.387C84.6239 602.451 85.2861 603.403 86.2837 603.773L185.752 640.631Z" fill="#C6D9FF"/>
<path fill-rule="evenodd" clip-rule="evenodd" d="M185.752 640.631V454.66H84.6239V601.387C84.6239 602.451 85.2861 603.403 86.2837 603.773L185.752 640.631Z" stroke="#91B1E3" stroke-width="0.847887"/>
</g>
<path fill-rule="evenodd" clip-rule="evenodd" d="M92.1183 594.155V506.055H90.2396V595.348L91.0246 595.448C93.6217 595.778 96.5097 596.95 98.8682 598.663C101.224 600.374 102.968 602.564 103.4 604.872L103.472 605.255L179.478 632.403V535.45H177.599V630.15L105.177 604.282C104.559 601.728 102.616 599.406 100.164 597.625C97.8113 595.917 94.9197 594.654 92.1183 594.155Z" fill="#FAFCFF"/>
<path fill-rule="evenodd" clip-rule="evenodd" d="M177.492 624.907C179.518 622.295 179.634 618.59 179.477 616.196L177.6 616.268C177.756 618.65 177.591 621.966 175.875 624.177C175.043 625.25 173.866 626.039 172.172 626.364C170.448 626.694 168.066 626.566 164.789 625.594L164.108 626.929C167.594 627.963 170.395 628.181 172.63 627.753C174.895 627.32 176.453 626.246 177.492 624.907Z" fill="#F2F9FF"/>
<g filter="url(#filter2_d_281_63)">
<path fill-rule="evenodd" clip-rule="evenodd" d="M517.136 454.66V644.914L431.258 680.109C430.7 680.338 430.089 679.932 430.089 679.329C430.099 607.886 430.007 525.98 430.007 454.66H517.136Z" fill="#9CB7ED"/>
<path fill-rule="evenodd" clip-rule="evenodd" d="M517.136 454.66V644.914L431.258 680.109C430.7 680.338 430.089 679.932 430.089 679.329C430.099 607.886 430.007 525.98 430.007 454.66H517.136Z" stroke="url(#paint2_linear_281_63)" stroke-width="0.847887"/>
</g>
<path fill-rule="evenodd" clip-rule="evenodd" d="M509.928 636.396V561.735H511.52V637.408L510.855 637.492C508.654 637.772 506.206 638.765 504.208 640.217C502.211 641.667 500.733 643.523 500.367 645.479L500.306 645.804L435.894 670.952V586.646H437.486V669.043L498.861 644.979C499.385 642.814 501.031 640.847 503.11 639.338C505.103 637.889 507.554 636.819 509.928 636.396Z" fill="url(#paint3_linear_281_63)"/>
<path fill-rule="evenodd" clip-rule="evenodd" d="M437.58 664.599C435.863 662.385 435.765 659.245 435.898 657.217L437.488 657.277C437.356 659.297 437.496 662.106 438.95 663.98C439.655 664.889 440.653 665.558 442.088 665.833C443.549 666.113 445.568 666.004 448.345 665.181L448.922 666.312C445.967 667.189 443.595 667.374 441.7 667.011C439.781 666.643 438.46 665.734 437.58 664.599Z" fill="#E3EFFB"/>
<g filter="url(#filter3_d_281_63)">
<path fill-rule="evenodd" clip-rule="evenodd" d="M531.135 640.631V454.66H632.263V601.387C632.263 602.451 631.601 603.403 630.603 603.773L531.135 640.631Z" fill="#C6D9FF"/>
<path fill-rule="evenodd" clip-rule="evenodd" d="M531.135 640.631V454.66H632.263V601.387C632.263 602.451 631.601 603.403 630.603 603.773L531.135 640.631Z" stroke="#91B1E3" stroke-width="0.847887"/>
</g>
<path fill-rule="evenodd" clip-rule="evenodd" d="M624.769 594.155V506.055H626.648V595.348L625.863 595.448C623.266 595.778 620.378 596.95 618.019 598.663C615.663 600.374 613.92 602.564 613.487 604.872L613.415 605.255L537.41 632.403V535.45H539.288V630.15L611.711 604.282C612.329 601.728 614.271 599.406 616.724 597.625C619.076 595.917 621.968 594.654 624.769 594.155Z" fill="#FAFCFF"/>
<path fill-rule="evenodd" clip-rule="evenodd" d="M539.397 624.907C537.371 622.295 537.255 618.59 537.412 616.196L539.289 616.268C539.132 618.65 539.298 621.966 541.014 624.177C541.845 625.25 543.023 626.039 544.717 626.364C546.441 626.694 548.822 626.566 552.1 625.594L552.78 626.929C549.294 627.963 546.494 628.181 544.259 627.753C541.994 627.32 540.436 626.246 539.397 624.907Z" fill="#F2F9FF"/>
<g filter="url(#filter4_d_281_63)">
<path d="M261.529 398.98H455.281V698.118L358.205 743.282C357.551 743.587 356.795 743.586 356.141 743.281L261.529 699.145V398.98Z" fill="#6A88C4"/>
<path d="M261.529 398.98H455.281V698.118L358.205 743.282C357.551 743.587 356.795 743.586 356.141 743.281L261.529 699.145V398.98Z" stroke="url(#paint4_linear_281_63)" stroke-width="1.69577"/>
</g>
<path fill-rule="evenodd" clip-rule="evenodd" d="M271.359 585.291H274.167V692.839L357.01 731.8L441.243 692.834V585.291H444.051V694.04L356.997 734.31L271.359 694.035V585.291Z" fill="#FAFCFF"/>
<path fill-rule="evenodd" clip-rule="evenodd" d="M358.219 688.082V726.935H355.778V688.082H358.219Z" fill="url(#paint5_linear_281_63)"/>
<path fill-rule="evenodd" clip-rule="evenodd" d="M349.688 713.147C344.83 717.42 338.911 718.371 334.835 717.853L335.237 716.017C338.484 716.43 343.549 715.705 347.844 711.928C352.156 708.135 355.783 701.176 355.783 689.013H358.224C358.224 701.421 354.529 708.889 349.688 713.147Z" fill="url(#paint6_linear_281_63)"/>
<path fill-rule="evenodd" clip-rule="evenodd" d="M364.317 713.147C369.176 717.42 375.094 718.371 379.17 717.853L378.769 716.017C375.522 716.43 370.457 715.705 366.162 711.928C361.85 708.135 358.222 701.176 358.222 689.013H355.781C355.781 701.421 359.476 708.889 364.317 713.147Z" fill="url(#paint7_linear_281_63)"/>
<path fill-rule="evenodd" clip-rule="evenodd" d="M356.486 727.782L328.926 716.005L335.028 716.005L356.997 725.913L378.963 715.922H384.349L357.5 727.783C357.178 727.895 356.808 727.894 356.486 727.782Z" fill="url(#paint8_linear_281_63)"/>
<g filter="url(#filter5_d_281_63)">
<path d="M351.477 2.95169L14.8907 142.591C9.50848 144.824 6.0001 150.078 6.0001 155.905L6 467.533C6 473.36 9.50837 478.614 14.8906 480.847L351.477 620.486C355.013 621.954 358.987 621.954 362.523 620.486L699.109 480.847C704.492 478.614 708 473.36 708 467.533L708 155.905C708 150.078 704.492 144.824 699.109 142.591L362.523 2.95169C358.987 1.48462 355.013 1.48462 351.477 2.95169Z" fill="url(#paint9_linear_281_63)"/>
<path d="M351.078 50.0554L68.2102 167.409C62.8483 169.633 59.3531 174.867 59.3531 180.672L59.353 441.683C59.353 447.488 62.8482 452.722 68.2101 454.946L351.078 572.3C354.6 573.761 358.56 573.761 362.083 572.3L644.95 454.946C650.312 452.722 653.807 447.488 653.807 441.683L653.808 180.672C653.808 174.867 650.312 169.633 644.95 167.409L362.083 50.0554C358.56 48.5938 354.6 48.5938 351.078 50.0554Z" fill="url(#paint10_linear_281_63)"/>
<g filter="url(#filter6_f_281_63)">
<path d="M351.078 50.0554L68.2102 167.409C62.8483 169.633 59.3531 174.867 59.3531 180.672L59.353 441.683C59.353 447.488 62.8482 452.722 68.2101 454.946L351.078 572.3C354.6 573.761 358.56 573.761 362.083 572.3L644.95 454.946C650.312 452.722 653.807 447.488 653.807 441.683L653.808 180.672C653.808 174.867 650.312 169.633 644.95 167.409L362.083 50.0554C358.56 48.5938 354.6 48.5938 351.078 50.0554Z" stroke="url(#paint11_linear_281_63)" stroke-width="0.847887"/>
</g>
<g opacity="0.5">
<mask id="mask0_281_63" style="mask-type:alpha" maskUnits="userSpaceOnUse" x="84" y="70" width="549" height="483">
<path d="M353.175 71.3554L93.0545 179.175C87.952 181.29 84.6254 186.27 84.6254 191.793L84.6254 431.398C84.6254 436.921 87.9519 441.901 93.0545 444.016L353.175 551.835C356.524 553.223 360.287 553.223 363.636 551.835L623.756 444.016C628.859 441.901 632.185 436.921 632.185 431.398L632.185 191.793C632.185 186.27 628.859 181.29 623.756 179.175L363.636 71.3554C360.287 69.9674 356.524 69.9674 353.175 71.3554Z" fill="#A6D3DE"/>
</mask>
<g mask="url(#mask0_281_63)">
<path d="M353.175 71.3554L93.0545 179.175C87.952 181.29 84.6254 186.27 84.6254 191.793L84.6254 431.398C84.6254 436.921 87.9519 441.901 93.0545 444.016L353.175 551.835C356.524 553.223 360.287 553.223 363.636 551.835L623.756 444.016C628.859 441.901 632.185 436.921 632.185 431.398L632.185 191.793C632.185 186.27 628.859 181.29 623.756 179.175L363.636 71.3554C360.287 69.9674 356.524 69.9674 353.175 71.3554Z" fill="url(#paint12_radial_281_63)"/>
<path opacity="0.5" d="M312.639 563.58L301.763 59.5879H415.051L404.176 563.58H312.639Z" fill="url(#paint13_linear_281_63)"/>
<path opacity="0.5" d="M311.184 559.11L-28.6591 126.787L69.4514 83.5878L390.457 524.205L311.184 559.11Z" fill="url(#paint14_linear_281_63)"/>
<path opacity="0.5" d="M301.741 524.204L622.747 83.5874L720.857 126.787L381.015 559.109L301.741 524.204Z" fill="url(#paint15_linear_281_63)"/>
<rect x="84.6292" y="282.787" width="547.56" height="271.196" fill="url(#paint16_linear_281_63)"/>
<g filter="url(#filter7_i_281_63)">
<path d="M353.175 71.3554L93.0545 179.175C87.952 181.29 84.6254 186.27 84.6254 191.793L84.6254 431.398C84.6254 436.921 87.9519 441.901 93.0545 444.016L353.175 551.835C356.524 553.223 360.287 553.223 363.636 551.835L623.756 444.016C628.859 441.901 632.185 436.921 632.185 431.398L632.185 191.793C632.185 186.27 628.859 181.29 623.756 179.175L363.636 71.3554C360.287 69.9674 356.524 69.9674 353.175 71.3554Z" fill="#6052B4" fill-opacity="0.01"/>
</g>
</g>
</g>
</g>
<g filter="url(#filter8_d_281_63)">
<path d="M356.707 151.59V319.39L303.188 247.77L345.066 159.111C347.596 154.238 352.252 151.59 356.707 151.59Z" fill="#E0E1E6"/>
<path d="M514.331 271.52L356.895 319.407L410.399 247.788L503.854 261.985C509.101 262.992 512.779 266.842 514.331 271.52Z" fill="#C5C7D2"/>
<path d="M454.046 464.871L356.726 319.39L443.197 354.087L459.091 451.486C460.24 457.171 457.911 462.028 454.046 464.871Z" fill="#C5C7D2"/>
<path d="M356.709 319.39V419.826L273.141 465.878C268.298 468.509 263.253 467.697 259.373 464.871L356.709 319.39Z" fill="#B3B5C2"/>
<path d="M410.225 247.77L356.707 319.39V151.59C360.199 151.59 363.692 153.003 366.206 155.846C366.594 156.252 366.982 156.853 367.37 157.47C367.758 158.087 368.146 158.688 368.333 159.289L410.225 247.77Z" fill="#C5C7D2"/>
<path d="M513.943 280.649C513.555 281.461 513.167 282.273 512.779 283.086C512.189 283.898 511.615 284.499 511.041 285.311L443.382 354.299L356.911 319.602L514.347 271.715C514.347 271.91 514.533 272.121 514.533 272.332C514.533 272.543 514.735 272.738 514.735 273.144C514.735 273.355 514.735 273.355 514.735 273.355C514.735 273.55 514.735 273.762 514.735 273.957C514.735 274.363 514.735 274.574 514.735 274.964C514.921 276.783 514.719 278.813 513.943 280.649Z" fill="#CFD1D8"/>
<path d="M454.044 464.871C453.082 465.683 451.918 466.284 450.552 466.69C450.365 466.69 450.365 466.69 450.164 466.885C447.059 467.892 443.567 467.697 440.276 465.878L356.708 419.826V319.39L454.044 464.871Z" fill="#B3B5C2"/>
<path d="M356.705 319.39L259.385 464.871C259.198 464.659 258.997 464.464 258.81 464.253C258.624 464.058 258.422 463.847 258.22 463.636C258.034 463.441 257.832 463.23 257.444 462.824C257.243 462.629 257.056 462.418 256.855 462.207C256.653 461.995 256.668 462.012 256.668 461.8C256.482 461.605 256.28 461.394 256.28 461.183C255.892 460.582 255.504 459.965 255.318 459.364C255.132 459.169 255.132 458.747 254.93 458.357C254.744 457.951 254.744 457.739 254.542 457.35C254.356 456.943 254.356 456.342 254.356 455.936C254.356 455.741 254.356 455.319 254.356 455.124C254.356 454.718 254.356 454.312 254.356 453.906C254.356 453.094 254.356 452.281 254.542 451.469L270.436 354.071L356.705 319.39Z" fill="#D3D5DD"/>
<path d="M356.708 319.391L199.272 271.503C199.272 271.308 199.458 271.097 199.458 270.886C199.644 270.48 199.644 270.074 199.846 269.879C200.234 269.067 200.622 268.466 201.01 267.848C201.197 267.442 201.398 267.231 201.786 266.841C201.988 266.646 202.175 266.224 202.563 266.029C202.749 265.834 203.152 265.428 203.339 265.217C203.525 265.006 203.913 264.811 204.115 264.6C204.503 264.405 204.891 263.982 205.279 263.787C205.465 263.592 205.853 263.381 206.241 263.381C206.831 263.186 207.204 262.975 207.793 262.764C207.98 262.764 208.181 262.569 208.569 262.569C208.957 262.374 209.532 262.374 210.122 262.163L303.577 247.966L356.708 319.391Z" fill="#E8EAEC"/>
<path d="M356.708 319.391L270.438 354.283L202.78 285.295C202.003 284.677 201.615 283.881 201.041 283.069C200.653 282.257 200.079 281.445 199.877 280.633C199.691 280.227 199.489 279.82 199.489 279.414C199.101 278.196 198.899 276.783 198.899 275.565C198.899 275.158 198.899 274.752 198.899 274.346C198.899 273.745 198.899 273.339 199.101 272.722C199.101 272.527 199.287 272.316 199.287 271.91C199.287 271.715 199.473 271.504 199.473 271.309L356.708 319.391Z" fill="#D3D5DD"/>
</g>
<defs>
<filter id="filter0_d_281_63" x="192.548" y="447.453" width="101.543" height="239.929" filterUnits="userSpaceOnUse" color-interpolation-filters="sRGB">
<feFlood flood-opacity="0" result="BackgroundImageFix"/>
<feColorMatrix in="SourceAlpha" type="matrix" values="0 0 0 0 0 0 0 0 0 0 0 0 0 0 0 0 0 0 127 0" result="hardAlpha"/>
<feOffset/>
<feGaussianBlur stdDeviation="3.39155"/>
<feColorMatrix type="matrix" values="0 0 0 0 0.288889 0 0 0 0 0.357333 0 0 0 0 0.533333 0 0 0 0.74 0"/>
<feBlend mode="normal" in2="BackgroundImageFix" result="effect1_dropShadow_281_63"/>
<feBlend mode="normal" in="SourceGraphic" in2="effect1_dropShadow_281_63" result="shape"/>
</filter>
<filter id="filter1_d_281_63" x="77.4169" y="447.453" width="115.542" height="200.571" filterUnits="userSpaceOnUse" color-interpolation-filters="sRGB">
<feFlood flood-opacity="0" result="BackgroundImageFix"/>
<feColorMatrix in="SourceAlpha" type="matrix" values="0 0 0 0 0 0 0 0 0 0 0 0 0 0 0 0 0 0 127 0" result="hardAlpha"/>
<feOffset/>
<feGaussianBlur stdDeviation="3.39155"/>
<feColorMatrix type="matrix" values="0 0 0 0 0.288889 0 0 0 0 0.357333 0 0 0 0 0.533333 0 0 0 0.74 0"/>
<feBlend mode="normal" in2="BackgroundImageFix" result="effect1_dropShadow_281_63"/>
<feBlend mode="normal" in="SourceGraphic" in2="effect1_dropShadow_281_63" result="shape"/>
</filter>
<filter id="filter2_d_281_63" x="422.8" y="447.453" width="101.543" height="239.929" filterUnits="userSpaceOnUse" color-interpolation-filters="sRGB">
<feFlood flood-opacity="0" result="BackgroundImageFix"/>
<feColorMatrix in="SourceAlpha" type="matrix" values="0 0 0 0 0 0 0 0 0 0 0 0 0 0 0 0 0 0 127 0" result="hardAlpha"/>
<feOffset/>
<feGaussianBlur stdDeviation="3.39155"/>
<feColorMatrix type="matrix" values="0 0 0 0 0.288889 0 0 0 0 0.357333 0 0 0 0 0.533333 0 0 0 0.74 0"/>
<feBlend mode="normal" in2="BackgroundImageFix" result="effect1_dropShadow_281_63"/>
<feBlend mode="normal" in="SourceGraphic" in2="effect1_dropShadow_281_63" result="shape"/>
</filter>
<filter id="filter3_d_281_63" x="523.928" y="447.453" width="115.542" height="200.571" filterUnits="userSpaceOnUse" color-interpolation-filters="sRGB">
<feFlood flood-opacity="0" result="BackgroundImageFix"/>
<feColorMatrix in="SourceAlpha" type="matrix" values="0 0 0 0 0 0 0 0 0 0 0 0 0 0 0 0 0 0 127 0" result="hardAlpha"/>
<feOffset/>
<feGaussianBlur stdDeviation="3.39155"/>
<feColorMatrix type="matrix" values="0 0 0 0 0.288889 0 0 0 0 0.357333 0 0 0 0 0.533333 0 0 0 0.74 0"/>
<feBlend mode="normal" in2="BackgroundImageFix" result="effect1_dropShadow_281_63"/>
<feBlend mode="normal" in="SourceGraphic" in2="effect1_dropShadow_281_63" result="shape"/>
</filter>
<filter id="filter4_d_281_63" x="253.898" y="391.349" width="209.014" height="359.792" filterUnits="userSpaceOnUse" color-interpolation-filters="sRGB">
<feFlood flood-opacity="0" result="BackgroundImageFix"/>
<feColorMatrix in="SourceAlpha" type="matrix" values="0 0 0 0 0 0 0 0 0 0 0 0 0 0 0 0 0 0 127 0" result="hardAlpha"/>
<feOffset/>
<feGaussianBlur stdDeviation="3.39155"/>
<feColorMatrix type="matrix" values="0 0 0 0 0.288889 0 0 0 0 0.357333 0 0 0 0 0.533333 0 0 0 0.8 0"/>
<feBlend mode="normal" in2="BackgroundImageFix" result="effect1_dropShadow_281_63"/>
<feBlend mode="normal" in="SourceGraphic" in2="effect1_dropShadow_281_63" result="shape"/>
</filter>
<filter id="filter5_d_281_63" x="0.912676" y="1.85156" width="712.175" height="631.606" filterUnits="userSpaceOnUse" color-interpolation-filters="sRGB">
<feFlood flood-opacity="0" result="BackgroundImageFix"/>
<feColorMatrix in="SourceAlpha" type="matrix" values="0 0 0 0 0 0 0 0 0 0 0 0 0 0 0 0 0 0 127 0" result="hardAlpha"/>
<feOffset dy="6.7831"/>
<feGaussianBlur stdDeviation="2.54366"/>
<feColorMatrix type="matrix" values="0 0 0 0 0.141181 0 0 0 0 0.190317 0 0 0 0 0.316667 0 0 0 0.51 0"/>
<feBlend mode="normal" in2="BackgroundImageFix" result="effect1_dropShadow_281_63"/>
<feBlend mode="normal" in="SourceGraphic" in2="effect1_dropShadow_281_63" result="shape"/>
</filter>
<filter id="filter6_f_281_63" x="58.6747" y="48.2808" width="595.811" height="525.793" filterUnits="userSpaceOnUse" color-interpolation-filters="sRGB">
<feFlood flood-opacity="0" result="BackgroundImageFix"/>
<feBlend mode="normal" in="SourceGraphic" in2="BackgroundImageFix" result="shape"/>
<feGaussianBlur stdDeviation="0.127183" result="effect1_foregroundBlur_281_63"/>
</filter>
<filter id="filter7_i_281_63" x="84.6254" y="70.3145" width="547.56" height="482.562" filterUnits="userSpaceOnUse" color-interpolation-filters="sRGB">
<feFlood flood-opacity="0" result="BackgroundImageFix"/>
<feBlend mode="normal" in="SourceGraphic" in2="BackgroundImageFix" result="shape"/>
<feColorMatrix in="SourceAlpha" type="matrix" values="0 0 0 0 0 0 0 0 0 0 0 0 0 0 0 0 0 0 127 0" result="hardAlpha"/>
<feOffset/>
<feGaussianBlur stdDeviation="5.70131"/>
<feComposite in2="hardAlpha" operator="arithmetic" k2="-1" k3="1"/>
<feColorMatrix type="matrix" values="0 0 0 0 0.297222 0 0 0 0 0.329917 0 0 0 0 0.445833 0 0 0 1 0"/>
<feBlend mode="normal" in2="shape" result="effect1_innerShadow_281_63"/>
</filter>
<filter id="filter8_d_281_63" x="170.899" y="124.59" width="375.9" height="375.9" filterUnits="userSpaceOnUse" color-interpolation-filters="sRGB">
<feFlood flood-opacity="0" result="BackgroundImageFix"/>
<feColorMatrix in="SourceAlpha" type="matrix" values="0 0 0 0 0 0 0 0 0 0 0 0 0 0 0 0 0 0 127 0" result="hardAlpha"/>
<feOffset dx="2" dy="3"/>
<feGaussianBlur stdDeviation="15"/>
<feComposite in2="hardAlpha" operator="out"/>
<feColorMatrix type="matrix" values="0 0 0 0 0.415686 0 0 0 0 0.529412 0 0 0 0 0.764706 0 0 0 1 0"/>
<feBlend mode="normal" in2="BackgroundImageFix" result="effect1_dropShadow_281_63"/>
<feBlend mode="normal" in="SourceGraphic" in2="effect1_dropShadow_281_63" result="shape"/>
</filter>
<linearGradient id="paint0_linear_281_63" x1="286.884" y1="606.776" x2="196.584" y2="625.103" gradientUnits="userSpaceOnUse">
<stop stop-color="#91B1E3"/>
<stop offset="0.208702" stop-color="#F0F6FF"/>
<stop offset="0.514766" stop-color="#A4BFE9"/>
<stop offset="0.728274" stop-color="#8BADE0"/>
<stop offset="0.971703" stop-color="#D0DEF3"/>
</linearGradient>
<linearGradient id="paint1_linear_281_63" x1="208.943" y1="623.44" x2="251.932" y2="606.635" gradientUnits="userSpaceOnUse">
<stop stop-color="#FAFCFF"/>
<stop offset="0.309893" stop-color="#D7E6FC"/>
<stop offset="0.523799" stop-color="#C1D8F4"/>
<stop offset="0.77229" stop-color="#BBD6FF"/>
<stop offset="1" stop-color="white"/>
</linearGradient>
<linearGradient id="paint2_linear_281_63" x1="430.007" y1="606.776" x2="520.307" y2="625.103" gradientUnits="userSpaceOnUse">
<stop stop-color="#91B1E3"/>
<stop offset="0.208702" stop-color="#F0F6FF"/>
<stop offset="0.514766" stop-color="#A4BFE9"/>
<stop offset="0.728274" stop-color="#8BADE0"/>
<stop offset="0.971703" stop-color="#D0DEF3"/>
</linearGradient>
<linearGradient id="paint3_linear_281_63" x1="507.951" y1="623.44" x2="464.962" y2="606.635" gradientUnits="userSpaceOnUse">
<stop stop-color="#FAFCFF"/>
<stop offset="0.309893" stop-color="#D7E6FC"/>
<stop offset="0.523799" stop-color="#C1D8F4"/>
<stop offset="0.77229" stop-color="#BBD6FF"/>
<stop offset="1" stop-color="white"/>
</linearGradient>
<linearGradient id="paint4_linear_281_63" x1="261.529" y1="644.182" x2="455.406" y2="698.464" gradientUnits="userSpaceOnUse">
<stop stop-color="#91B1E3"/>
<stop offset="0.208702" stop-color="#F0F6FF"/>
<stop offset="0.648432" stop-color="#A4BFE9"/>
<stop offset="0.780206" stop-color="#8BADE0"/>
<stop offset="0.971703" stop-color="#93B3E4"/>
</linearGradient>
<linearGradient id="paint5_linear_281_63" x1="356.998" y1="688.082" x2="356.998" y2="724.381" gradientUnits="userSpaceOnUse">
<stop stop-color="#6A88C3"/>
<stop offset="0.479167" stop-color="#E4EFFD"/>
<stop offset="1" stop-color="#E1ECFD"/>
</linearGradient>
<linearGradient id="paint6_linear_281_63" x1="346.53" y1="689.013" x2="346.53" y2="717.981" gradientUnits="userSpaceOnUse">
<stop stop-color="#E2F5FF" stop-opacity="0"/>
<stop offset="0.479167" stop-color="#B6CAFE"/>
<stop offset="1" stop-color="#CCD7FF"/>
</linearGradient>
<linearGradient id="paint7_linear_281_63" x1="367.476" y1="689.013" x2="367.476" y2="717.981" gradientUnits="userSpaceOnUse">
<stop stop-color="#E2F5FF" stop-opacity="0"/>
<stop offset="0.479167" stop-color="#B6CAFE"/>
<stop offset="1" stop-color="#CCD7FF"/>
</linearGradient>
<linearGradient id="paint8_linear_281_63" x1="354.041" y1="720.006" x2="322.691" y2="724.872" gradientUnits="userSpaceOnUse">
<stop stop-color="#C9DEFC"/>
<stop offset="0.309893" stop-color="#ECF4FF"/>
<stop offset="0.523799" stop-color="#EAF6FF"/>
<stop offset="0.613641" stop-color="#CCE7FF"/>
<stop offset="1" stop-color="#CEE4F9"/>
</linearGradient>
<linearGradient id="paint9_linear_281_63" x1="209.58" y1="75.6128" x2="410.291" y2="598.458" gradientUnits="userSpaceOnUse">
<stop stop-color="#FAFAFA"/>
<stop offset="1" stop-color="#C2C4CD"/>
</linearGradient>
<linearGradient id="paint10_linear_281_63" x1="206.773" y1="115.23" x2="381.818" y2="538.784" gradientUnits="userSpaceOnUse">
<stop stop-color="#CDCFD6"/>
<stop offset="1" stop-color="#EFEFF1"/>
</linearGradient>
<linearGradient id="paint11_linear_281_63" x1="236.257" y1="101.31" x2="425.628" y2="548.028" gradientUnits="userSpaceOnUse">
<stop stop-color="#DDDFE2"/>
<stop offset="1" stop-color="white"/>
</linearGradient>
<radialGradient id="paint12_radial_281_63" cx="0" cy="0" r="1" gradientUnits="userSpaceOnUse" gradientTransform="translate(358.405 311.595) rotate(90) scale(242.408 273.78)">
<stop stop-color="#F5F7FF"/>
<stop offset="1" stop-color="#B3B5C5"/>
</radialGradient>
<linearGradient id="paint13_linear_281_63" x1="358.407" y1="59.5879" x2="358.407" y2="563.58" gradientUnits="userSpaceOnUse">
<stop stop-color="white"/>
<stop offset="1" stop-color="#F2EDED" stop-opacity="0"/>
</linearGradient>
<linearGradient id="paint14_linear_281_63" x1="20.3961" y1="105.187" x2="235.029" y2="592.642" gradientUnits="userSpaceOnUse">
<stop stop-color="white"/>
<stop offset="1" stop-color="#F2EDED" stop-opacity="0"/>
</linearGradient>
<linearGradient id="paint15_linear_281_63" x1="671.802" y1="105.187" x2="457.17" y2="592.642" gradientUnits="userSpaceOnUse">
<stop stop-color="white"/>
<stop offset="1" stop-color="#F2EDED" stop-opacity="0"/>
</linearGradient>
<linearGradient id="paint16_linear_281_63" x1="358.409" y1="400.385" x2="357.448" y2="537.184" gradientUnits="userSpaceOnUse">
<stop stop-color="white" stop-opacity="0"/>
<stop offset="1" stop-color="#D0DBFF"/>
</linearGradient>
</defs>
</svg>
