<svg width="28" height="28" viewBox="0 0 28 28" fill="none" xmlns="http://www.w3.org/2000/svg">
<g opacity="0.99">
<path d="M21.5483 19.635L22.0033 23.3217C22.12 24.29 21.0816 24.9667 20.2533 24.465L16.2166 22.0617C15.9366 21.8983 15.8666 21.5483 16.0183 21.2683C16.6016 20.195 16.9166 18.9817 16.9166 17.7683C16.9166 13.4983 13.2533 10.0217 8.74997 10.0217C7.8283 10.0217 6.92997 10.1617 6.08997 10.4417C5.99065 10.4723 5.885 10.4761 5.78373 10.4527C5.68246 10.4293 5.58918 10.3796 5.51336 10.3085C5.43754 10.2374 5.38187 10.1475 5.352 10.048C5.32213 9.94844 5.31913 9.84276 5.3433 9.74168C6.40497 5.49501 10.4883 2.33334 15.365 2.33334C21.0583 2.33334 25.6666 6.63834 25.6666 11.9467C25.6666 15.0967 24.045 17.885 21.5483 19.635Z" fill="#FEECFC"/>
<path d="M15.1666 17.7683C15.1666 19.1567 14.6533 20.44 13.7899 21.455C12.6349 22.855 10.8033 23.7533 8.74992 23.7533L5.70492 25.5617C5.19159 25.8767 4.53825 25.445 4.60825 24.85L4.89992 22.5517C3.33659 21.4667 2.33325 19.7283 2.33325 17.7683C2.33325 15.715 3.42992 13.9067 5.10992 12.8333C6.14825 12.1567 7.39658 11.7717 8.74992 11.7717C12.2966 11.7717 15.1666 14.455 15.1666 17.7683Z" fill="#FEECFC"/>
</g>
</svg>
