<svg width="26" height="26" viewBox="0 0 26 26" fill="none" xmlns="http://www.w3.org/2000/svg">
<path d="M18.8342 4.40248C17.6208 3.73081 16.0717 3.90415 14.49 4.88998L11.3267 6.87248C11.11 7.00248 10.8608 7.07831 10.6117 7.07831H9.0625C6.44083 7.07831 5 8.51915 5 11.1408V15.4741C5 18.0958 6.44083 19.5366 9.0625 19.5366H10.6117C10.8608 19.5366 11.11 19.6125 11.3267 19.7425L14.49 21.725C15.4433 22.3208 16.375 22.6133 17.2417 22.6133C17.7981 22.6182 18.3464 22.4802 18.8342 22.2125C20.0367 21.5408 20.7083 20.1433 20.7083 18.28V8.33498C20.7083 6.47165 20.0367 5.07415 18.8342 4.40248Z" fill="#FEECFC"/>
</svg>
