<svg width="18" height="24" viewBox="0 0 18 24" fill="none" xmlns="http://www.w3.org/2000/svg">
<path opacity="0.99" d="M9.00002 0.333313C5.94335 0.333313 3.45835 2.81831 3.45835 5.87498C3.45835 8.87331 5.80335 11.3 8.86002 11.405C8.95335 11.3933 9.04668 11.3933 9.11668 11.405H9.19835C10.6326 11.3571 11.992 10.7534 12.9892 9.72137C13.9863 8.68937 14.5431 7.31003 14.5417 5.87498C14.5417 2.81831 12.0567 0.333313 9.00002 0.333313ZM14.9267 14.5071C11.6717 12.3371 6.36335 12.3371 3.08502 14.5071C1.60335 15.4988 0.786682 16.8405 0.786682 18.2755C0.786682 19.7105 1.60335 21.0405 3.07335 22.0205C4.70668 23.1171 6.85335 23.6655 9.00002 23.6655C11.1467 23.6655 13.2933 23.1171 14.9267 22.0205C16.3967 21.0288 17.2134 19.6988 17.2134 18.2521C17.2017 16.8171 16.3967 15.4871 14.9267 14.5071Z" fill="#FEECFC"/>
</svg>
