<svg width="411" height="425" viewBox="0 0 411 425" fill="none" xmlns="http://www.w3.org/2000/svg">
<path d="M129.108 219.088H284.995V389.465L207.043 423.57C206.416 423.844 205.703 423.843 205.077 423.567L129.108 390.05V219.088Z" fill="#BB9986" stroke="#D8B697" stroke-width="1.69577"/>
<path fill-rule="evenodd" clip-rule="evenodd" d="M117.916 219.087V386.133L52.2112 356.746C51.3316 356.353 50.7654 355.479 50.7654 354.516V219.087H117.916Z" fill="#8C685C" stroke="#D8B697" stroke-width="1.69577"/>
<path fill-rule="evenodd" clip-rule="evenodd" d="M295.379 219.088V386.134L361.084 356.747C361.963 356.354 362.53 355.48 362.53 354.517V219.088H295.379Z" fill="#8C685C" stroke="#D8B697" stroke-width="1.69577"/>
<path d="M356.934 291.614V349.513C353.47 349.716 346.382 351.951 345.743 359.264L301.776 378.767V312.336" stroke="#D8B697" stroke-width="0.847887"/>
<path fill-rule="evenodd" clip-rule="evenodd" d="M276.995 323.916H278.594V384.159L277.926 384.244C275.57 384.544 273.558 384.977 271.832 386.154C270.1 387.336 268.557 389.337 267.378 392.933L267.295 393.186L207.894 418.89L207.448 418.992V418.993H205.638L146.001 393.187L145.918 392.934C144.739 389.338 143.196 387.337 141.464 386.155C139.738 384.978 137.726 384.544 135.37 384.245L134.703 384.16V323.916H136.301V383.133C138.508 383.448 140.648 383.963 142.53 385.247C144.547 386.623 146.174 388.816 147.384 392.384L206.06 417.774H207.235L265.912 392.383C267.123 388.816 268.749 386.622 270.766 385.246C272.648 383.962 274.788 383.448 276.995 383.132V323.916Z" fill="url(#paint0_linear_281_63)"/>
<path d="M57.1609 291.614V349.513C60.6249 349.716 67.7129 351.951 68.3524 359.264L112.319 378.767V312.336" stroke="#D8B697" stroke-width="0.847887"/>
<g filter="url(#filter0_d_281_63)">
<path d="M200.327 3.18963L14.8921 80.0972C9.50913 82.3297 6.00006 87.584 6.00005 93.4116L6 262.493C6 268.32 9.50909 273.574 14.8921 275.807L200.327 352.715C203.863 354.181 207.836 354.181 211.371 352.715L396.806 275.807C402.189 273.574 405.698 268.32 405.698 262.493L405.698 93.4116C405.698 87.584 402.189 82.3297 396.806 80.0972L211.371 3.18962C207.836 1.72337 203.863 1.72337 200.327 3.18963Z" fill="url(#paint1_linear_281_63)"/>
<path d="M200.109 29.9979L45.2365 94.23C39.8737 96.4541 36.3779 101.689 36.3779 107.494L36.3778 247.795C36.3778 253.601 39.8737 258.835 45.2364 261.059L200.109 325.292C203.631 326.752 207.59 326.752 211.112 325.292L365.984 261.059C371.347 258.835 374.843 253.601 374.843 247.795L374.843 107.494C374.843 101.689 371.347 96.4541 365.984 94.23L211.112 29.9979C207.59 28.5372 203.631 28.5372 200.109 29.9979Z" fill="url(#paint2_linear_281_63)"/>
<g filter="url(#filter1_f_281_63)">
<path d="M200.109 29.9979L45.2365 94.23C39.8737 96.4541 36.3779 101.689 36.3779 107.494L36.3778 247.795C36.3778 253.601 39.8737 258.835 45.2364 261.059L200.109 325.292C203.631 326.752 207.59 326.752 211.112 325.292L365.984 261.059C371.347 258.835 374.843 253.601 374.843 247.795L374.843 107.494C374.843 101.689 371.347 96.4541 365.984 94.23L211.112 29.9979C207.59 28.5372 203.631 28.5372 200.109 29.9979Z" stroke="url(#paint3_linear_281_63)" stroke-width="0.847887"/>
</g>
<g opacity="0.5">
<mask id="mask0_281_63" style="mask-type:alpha" maskUnits="userSpaceOnUse" x="50" y="41" width="313" height="274">
<path d="M201.419 42.0715L59.1959 101.004C54.0926 103.119 50.7654 108.099 50.7654 113.623L50.7654 242.14C50.7654 247.664 54.0926 252.645 59.1959 254.759L201.419 313.692C204.767 315.079 208.529 315.079 211.877 313.692L354.1 254.759C359.203 252.645 362.53 247.664 362.53 242.14L362.53 113.623C362.53 108.099 359.203 103.119 354.1 101.004L211.877 42.0715C208.529 40.6842 204.767 40.6842 201.419 42.0715Z" fill="#A6D3DE"/>
</mask>
<g mask="url(#mask0_281_63)">
<path d="M201.419 42.0715L59.1959 101.004C54.0926 103.119 50.7654 108.099 50.7654 113.623L50.7654 242.14C50.7654 247.664 54.0926 252.645 59.1959 254.759L201.419 313.692C204.767 315.079 208.529 315.079 211.877 313.692L354.1 254.759C359.203 252.645 362.53 247.664 362.53 242.14L362.53 113.623C362.53 108.099 359.203 103.119 354.1 101.004L211.877 42.0715C208.529 40.6842 204.767 40.6842 201.419 42.0715Z" fill="url(#paint4_radial_281_63)"/>
<path opacity="0.5" d="M180.588 321.31L174.396 34.4409H238.899L232.706 321.31H180.588Z" fill="url(#paint5_linear_281_63)"/>
<path opacity="0.5" d="M179.759 318.765L-13.7373 72.6895L42.124 48.1007L224.895 298.897L179.759 318.765Z" fill="url(#paint6_linear_281_63)"/>
<path opacity="0.5" d="M174.383 298.898L357.155 48.1016L413.016 72.6903L219.519 318.766L174.383 298.898Z" fill="url(#paint7_linear_281_63)"/>
<rect x="50.7654" y="161.483" width="311.765" height="154.363" fill="url(#paint8_linear_281_63)"/>
<g filter="url(#filter2_i_281_63)">
<path d="M201.419 42.0715L59.1959 101.004C54.0926 103.119 50.7654 108.099 50.7654 113.623L50.7654 242.14C50.7654 247.664 54.0926 252.645 59.1959 254.759L201.419 313.692C204.767 315.079 208.529 315.079 211.877 313.692L354.1 254.759C359.203 252.645 362.53 247.664 362.53 242.14L362.53 113.623C362.53 108.099 359.203 103.119 354.1 101.004L211.877 42.0715C208.529 40.6842 204.767 40.6842 201.419 42.0715Z" fill="#F5C4AF" fill-opacity="0.03"/>
</g>
</g>
</g>
</g>
<g filter="url(#filter3_d_281_63)">
<path d="M205.341 98.8247V183.75L178.255 147.502L199.45 102.631C200.73 100.165 203.087 98.8247 205.341 98.8247Z" fill="#E4C095"/>
<path d="M285.116 159.522L205.437 183.758L232.515 147.511L279.814 154.696C282.469 155.206 284.331 157.154 285.116 159.522Z" fill="#CFAC88"/>
<path d="M254.605 257.378L205.351 183.749L249.114 201.309L257.158 250.604C257.74 253.481 256.561 255.939 254.605 257.378Z" fill="#DBB48B"/>
<path d="M205.342 183.749V234.581L163.048 257.888C160.597 259.22 158.044 258.808 156.08 257.378L205.342 183.749Z" fill="#B98E68"/>
<path d="M232.427 147.502L205.341 183.75V98.8247C207.108 98.8247 208.876 99.5399 210.148 100.979C210.345 101.184 210.541 101.488 210.737 101.801C210.934 102.113 211.13 102.417 211.224 102.722L232.427 147.502Z" fill="#DBB48B"/>
<path d="M284.92 164.142C284.723 164.553 284.527 164.964 284.33 165.375C284.032 165.786 283.741 166.091 283.451 166.502L249.208 201.417L205.444 183.857L285.124 159.621C285.124 159.719 285.218 159.826 285.218 159.933C285.218 160.04 285.32 160.139 285.32 160.344C285.32 160.451 285.32 160.451 285.32 160.451C285.32 160.55 285.32 160.656 285.32 160.755C285.32 160.961 285.32 161.068 285.32 161.265C285.415 162.186 285.312 163.213 284.92 164.142Z" fill="#D1A67E"/>
<path d="M254.603 257.378C254.116 257.789 253.527 258.093 252.836 258.299C252.742 258.299 252.742 258.299 252.64 258.397C251.068 258.907 249.301 258.808 247.635 257.888L205.341 234.581V183.749L254.603 257.378Z" fill="#B98E68"/>
<path d="M205.34 183.749L156.085 257.378C155.991 257.271 155.889 257.172 155.795 257.066C155.7 256.967 155.598 256.86 155.496 256.753C155.402 256.655 155.3 256.548 155.103 256.342C155.001 256.243 154.907 256.137 154.805 256.03C154.703 255.923 154.711 255.931 154.711 255.824C154.616 255.726 154.514 255.619 154.514 255.512C154.318 255.208 154.121 254.895 154.027 254.591C153.933 254.492 153.933 254.279 153.831 254.081C153.736 253.876 153.736 253.769 153.634 253.572C153.54 253.366 153.54 253.062 153.54 252.856C153.54 252.758 153.54 252.544 153.54 252.445C153.54 252.24 153.54 252.034 153.54 251.829C153.54 251.418 153.54 251.007 153.634 250.596L161.678 201.301L205.34 183.749Z" fill="#D4AC84"/>
<path d="M205.342 183.75L125.663 159.514C125.663 159.415 125.757 159.309 125.757 159.202C125.851 158.996 125.851 158.791 125.953 158.692C126.15 158.281 126.346 157.977 126.543 157.664C126.637 157.459 126.739 157.352 126.935 157.155C127.037 157.056 127.132 156.842 127.328 156.744C127.422 156.645 127.627 156.439 127.721 156.332C127.815 156.226 128.012 156.127 128.114 156.02C128.31 155.921 128.506 155.708 128.703 155.609C128.797 155.51 128.994 155.403 129.19 155.403C129.488 155.305 129.677 155.198 129.975 155.091C130.07 155.091 130.172 154.992 130.368 154.992C130.565 154.894 130.855 154.894 131.154 154.787L178.453 147.602L205.342 183.75Z" fill="#FBDFC8"/>
<path d="M205.342 183.75L161.68 201.409L127.437 166.494C127.045 166.182 126.848 165.779 126.557 165.368C126.361 164.957 126.07 164.546 125.968 164.134C125.874 163.929 125.772 163.723 125.772 163.518C125.576 162.901 125.473 162.186 125.473 161.569C125.473 161.364 125.473 161.158 125.473 160.953C125.473 160.649 125.473 160.443 125.576 160.131C125.576 160.032 125.67 159.925 125.67 159.72C125.67 159.621 125.764 159.514 125.764 159.416L205.342 183.75Z" fill="#D4AC84"/>
</g>
<defs>
<filter id="filter0_d_281_63" x="0.912676" y="2.08984" width="409.873" height="363.595" filterUnits="userSpaceOnUse" color-interpolation-filters="sRGB">
<feFlood flood-opacity="0" result="BackgroundImageFix"/>
<feColorMatrix in="SourceAlpha" type="matrix" values="0 0 0 0 0 0 0 0 0 0 0 0 0 0 0 0 0 0 127 0" result="hardAlpha"/>
<feOffset dy="6.7831"/>
<feGaussianBlur stdDeviation="2.54366"/>
<feColorMatrix type="matrix" values="0 0 0 0 0.491667 0 0 0 0 0.276808 0 0 0 0 0.208958 0 0 0 0.54 0"/>
<feBlend mode="normal" in2="BackgroundImageFix" result="effect1_dropShadow_281_63"/>
<feBlend mode="normal" in="SourceGraphic" in2="effect1_dropShadow_281_63" result="shape"/>
</filter>
<filter id="filter1_f_281_63" x="35.4451" y="27.9698" width="340.331" height="299.35" filterUnits="userSpaceOnUse" color-interpolation-filters="sRGB">
<feFlood flood-opacity="0" result="BackgroundImageFix"/>
<feBlend mode="normal" in="SourceGraphic" in2="BackgroundImageFix" result="shape"/>
<feGaussianBlur stdDeviation="0.254366" result="effect1_foregroundBlur_281_63"/>
</filter>
<filter id="filter2_i_281_63" x="50.7654" y="41.0312" width="311.765" height="273.701" filterUnits="userSpaceOnUse" color-interpolation-filters="sRGB">
<feFlood flood-opacity="0" result="BackgroundImageFix"/>
<feBlend mode="normal" in="SourceGraphic" in2="BackgroundImageFix" result="shape"/>
<feColorMatrix in="SourceAlpha" type="matrix" values="0 0 0 0 0 0 0 0 0 0 0 0 0 0 0 0 0 0 127 0" result="hardAlpha"/>
<feOffset/>
<feGaussianBlur stdDeviation="5.70131"/>
<feComposite in2="hardAlpha" operator="arithmetic" k2="-1" k3="1"/>
<feColorMatrix type="matrix" values="0 0 0 0 0.283333 0 0 0 0 0.158667 0 0 0 0 0.0566667 0 0 0 1 0"/>
<feBlend mode="normal" in2="shape" result="effect1_innerShadow_281_63"/>
</filter>
<filter id="filter3_d_281_63" x="97.4734" y="71.8247" width="219.88" height="219.879" filterUnits="userSpaceOnUse" color-interpolation-filters="sRGB">
<feFlood flood-opacity="0" result="BackgroundImageFix"/>
<feColorMatrix in="SourceAlpha" type="matrix" values="0 0 0 0 0 0 0 0 0 0 0 0 0 0 0 0 0 0 127 0" result="hardAlpha"/>
<feOffset dx="2" dy="3"/>
<feGaussianBlur stdDeviation="15"/>
<feComposite in2="hardAlpha" operator="out"/>
<feColorMatrix type="matrix" values="0 0 0 0 0.54902 0 0 0 0 0.407843 0 0 0 0 0.360784 0 0 0 1 0"/>
<feBlend mode="normal" in2="BackgroundImageFix" result="effect1_dropShadow_281_63"/>
<feBlend mode="normal" in="SourceGraphic" in2="effect1_dropShadow_281_63" result="shape"/>
</filter>
<linearGradient id="paint0_linear_281_63" x1="137.9" y1="351.951" x2="254.517" y2="414.654" gradientUnits="userSpaceOnUse">
<stop offset="0.192454" stop-color="#DFCBB9"/>
<stop offset="0.475371" stop-color="#D8B290"/>
<stop offset="0.678187" stop-color="#DEBFA4"/>
<stop offset="0.866423" stop-color="#DFCBB9"/>
</linearGradient>
<linearGradient id="paint1_linear_281_63" x1="121.913" y1="43.562" x2="236.129" y2="341.186" gradientUnits="userSpaceOnUse">
<stop stop-color="#F1DCC1"/>
<stop offset="1" stop-color="#BD8A65"/>
</linearGradient>
<linearGradient id="paint2_linear_281_63" x1="120.314" y1="66.1126" x2="219.927" y2="307.219" gradientUnits="userSpaceOnUse">
<stop stop-color="#BF8E69"/>
<stop offset="1" stop-color="#E4C196"/>
</linearGradient>
<linearGradient id="paint3_linear_281_63" x1="137.102" y1="58.1896" x2="244.867" y2="312.483" gradientUnits="userSpaceOnUse">
<stop stop-color="#EBD4B7"/>
<stop offset="1" stop-color="#FFE3CE"/>
</linearGradient>
<radialGradient id="paint4_radial_281_63" cx="0" cy="0" r="1" gradientUnits="userSpaceOnUse" gradientTransform="translate(206.648 177.882) rotate(90) scale(137.977 155.882)">
<stop stop-color="#E3C29C"/>
<stop offset="1" stop-color="#D1A479"/>
</radialGradient>
<linearGradient id="paint5_linear_281_63" x1="206.647" y1="34.4409" x2="206.647" y2="321.31" gradientUnits="userSpaceOnUse">
<stop stop-color="white"/>
<stop offset="1" stop-color="#F2EDED" stop-opacity="0"/>
</linearGradient>
<linearGradient id="paint6_linear_281_63" x1="14.1933" y1="60.3951" x2="136.335" y2="337.879" gradientUnits="userSpaceOnUse">
<stop stop-color="white"/>
<stop offset="1" stop-color="#F2EDED" stop-opacity="0"/>
</linearGradient>
<linearGradient id="paint7_linear_281_63" x1="385.085" y1="60.3959" x2="262.944" y2="337.88" gradientUnits="userSpaceOnUse">
<stop stop-color="white"/>
<stop offset="1" stop-color="#F2EDED" stop-opacity="0"/>
</linearGradient>
<linearGradient id="paint8_linear_281_63" x1="206.648" y1="228.419" x2="206.101" y2="306.285" gradientUnits="userSpaceOnUse">
<stop offset="0.291667" stop-color="#FFFAF7" stop-opacity="0"/>
<stop offset="1" stop-color="#E4CBAD"/>
</linearGradient>
</defs>
</svg>
