<svg width="24" height="24" viewBox="0 0 24 24" fill="none" xmlns="http://www.w3.org/2000/svg">
<g opacity="0.4">
<path d="M21.25 9.14999C18.94 5.51999 15.56 3.42999 12 3.42999C10.22 3.42999 8.49 3.94999 6.91 4.91999C5.33 5.89999 3.91 7.32999 2.75 9.14999C1.75 10.72 1.75 13.27 2.75 14.84C5.06 18.48 8.44 20.56 12 20.56C13.78 20.56 15.51 20.04 17.09 19.07C18.67 18.09 20.09 16.66 21.25 14.84C22.25 13.28 22.25 10.72 21.25 9.14999ZM12 16.04C9.76 16.04 7.96 14.23 7.96 12C7.96 9.76999 9.76 7.95999 12 7.95999C14.24 7.95999 16.04 9.76999 16.04 12C16.04 14.23 14.24 16.04 12 16.04Z" fill="#FF0000"/>
<path d="M11.9999 9.14001C10.4299 9.14001 9.1499 10.42 9.1499 12C9.1499 13.57 10.4299 14.85 11.9999 14.85C13.5699 14.85 14.8599 13.57 14.8599 12C14.8599 10.43 13.5699 9.14001 11.9999 9.14001Z" fill="#FF0000"/>
</g>
</svg>
