<svg width="28" height="28" viewBox="0 0 28 28" fill="none" xmlns="http://www.w3.org/2000/svg">
<path d="M13.4166 24.5C19.5377 24.5 24.4999 19.5378 24.4999 13.4166C24.4999 7.29549 19.5377 2.33331 13.4166 2.33331C7.29543 2.33331 2.33325 7.29549 2.33325 13.4166C2.33325 19.5378 7.29543 24.5 13.4166 24.5Z" fill="#FEECFC"/>
<path d="M24.85 25.6667C24.64 25.6667 24.43 25.585 24.2783 25.4333L22.1083 23.2633C21.7933 22.9483 21.7933 22.435 22.1083 22.1083C22.4233 21.7933 22.9367 21.7933 23.2633 22.1083L25.4333 24.2783C25.7483 24.5933 25.7483 25.1067 25.4333 25.4333C25.27 25.585 25.06 25.6667 24.85 25.6667Z" fill="#FEECFC"/>
</svg>
