<svg width="20" height="20" viewBox="0 0 20 20" fill="none" xmlns="http://www.w3.org/2000/svg">
<path d="M10 20C15.51 20 20 15.51 20 10C20 4.49 15.51 0 10 0C4.49 0 0 4.49 0 10C0 15.51 4.49 20 10 20ZM5.94 10.73L9.47 7.2C9.62 7.05 9.81 6.98 10 6.98C10.19 6.98 10.38 7.05 10.53 7.2L14.06 10.73C14.1995 10.8711 14.2777 11.0616 14.2777 11.26C14.2777 11.4584 14.1995 11.6489 14.06 11.79C13.77 12.08 13.29 12.08 13 11.79L10 8.79L7 11.79C6.71 12.08 6.23 12.08 5.94 11.79C5.65 11.5 5.65 11.03 5.94 10.73Z" fill="#FEECFC"/>
</svg>
