<svg width="24" height="24" viewBox="0 0 24 24" fill="none" xmlns="http://www.w3.org/2000/svg">
<path d="M16.8 2H14.2C11 2 9 4 9 7.2V11.25H15.25C15.66 11.25 16 11.59 16 12C16 12.41 15.66 12.75 15.25 12.75H9V16.8C9 20 11 22 14.2 22H16.79C19.99 22 21.99 20 21.99 16.8V7.2C22 4 20 2 16.8 2Z" fill="#FEECFC"/>
<path d="M4.56092 11.25L6.63092 9.18005C6.78092 9.03005 6.85092 8.84004 6.85092 8.65004C6.85092 8.46004 6.78092 8.26005 6.63092 8.12005C6.48978 7.98056 6.29935 7.90234 6.10092 7.90234C5.90249 7.90234 5.71206 7.98056 5.57092 8.12005L2.22092 11.47C1.93092 11.76 1.93092 12.24 2.22092 12.53L5.57092 15.88C5.86092 16.17 6.34092 16.17 6.63092 15.88C6.92092 15.59 6.92092 15.11 6.63092 14.82L4.56092 12.75H9.00092V11.25H4.56092Z" fill="#FEECFC"/>
</svg>
