<svg width="28" height="28" viewBox="0 0 28 28" fill="none" xmlns="http://www.w3.org/2000/svg">
<path d="M13.9998 5.42259C8.4231 5.42259 3.88477 9.96092 3.88477 15.5376C3.88477 21.1143 8.4231 25.6643 13.9998 25.6643C19.5764 25.6643 24.1148 21.1259 24.1148 15.5493C24.1148 9.97259 19.5764 5.42259 13.9998 5.42259ZM14.8748 15.1643C14.8748 15.6426 14.4781 16.0393 13.9998 16.0393C13.5214 16.0393 13.1248 15.6426 13.1248 15.1643V9.33092C13.1248 8.85259 13.5214 8.45592 13.9998 8.45592C14.4781 8.45592 14.8748 8.85259 14.8748 9.33092V15.1643ZM17.3714 4.02492H10.6281C10.1614 4.02492 9.7881 3.65159 9.7881 3.18492C9.7881 2.71825 10.1614 2.33325 10.6281 2.33325H17.3714C17.8381 2.33325 18.2114 2.70659 18.2114 3.17325C18.2114 3.63992 17.8381 4.02492 17.3714 4.02492Z" fill="#FEECFC"/>
</svg>
