<svg width="26" height="26" viewBox="0 0 26 26" fill="none" xmlns="http://www.w3.org/2000/svg">
<g clip-path="url(#clip0_571_494)">
<path d="M21.6667 6.5C21.9428 6.50031 22.2084 6.60604 22.4092 6.79559C22.6099 6.98514 22.7308 7.2442 22.747 7.51984C22.7631 7.79549 22.6735 8.06691 22.4962 8.27865C22.319 8.49039 22.0676 8.62647 21.7934 8.65908L21.6667 8.66667H21.5789L20.5834 20.5833C20.5834 21.4123 20.2667 22.21 19.698 22.8131C19.1293 23.4163 18.3516 23.7793 17.524 23.8279L17.3334 23.8333H8.66669C6.93552 23.8333 5.52069 22.4803 5.42535 20.8542L5.41994 20.6733L4.42002 8.66667H4.33335C4.05723 8.66636 3.79165 8.56063 3.59087 8.37108C3.39009 8.18153 3.26927 7.92247 3.25308 7.64682C3.2369 7.37118 3.32658 7.09976 3.50381 6.88801C3.68103 6.67627 3.93242 6.5402 4.2066 6.50758L4.33335 6.5H21.6667Z" fill="#FEECFC"/>
<path d="M15.1666 2.16669C15.7413 2.16669 16.2924 2.39496 16.6987 2.80129C17.105 3.20762 17.3333 3.75872 17.3333 4.33335C17.333 4.60947 17.2273 4.87506 17.0377 5.07584C16.8482 5.27662 16.5891 5.39744 16.3134 5.41362C16.0378 5.42981 15.7664 5.34012 15.5546 5.1629C15.3429 4.98568 15.2068 4.73429 15.1742 4.4601L15.1666 4.33335H10.8333L10.8257 4.4601C10.7931 4.73429 10.657 4.98568 10.4453 5.1629C10.2335 5.34012 9.96212 5.42981 9.68647 5.41362C9.41083 5.39744 9.15176 5.27662 8.96221 5.07584C8.77266 4.87506 8.66693 4.60947 8.66663 4.33335C8.66645 3.78673 8.8729 3.26024 9.24458 2.85943C9.61626 2.45861 10.1257 2.2131 10.6708 2.1721L10.8333 2.16669H15.1666Z" fill="#FEECFC"/>
</g>
<defs>
<clipPath id="clip0_571_494">
<rect width="26" height="26" fill="white"/>
</clipPath>
</defs>
</svg>
