<svg width="28" height="28" viewBox="0 0 28 28" fill="none" xmlns="http://www.w3.org/2000/svg">
<path opacity="0.99" d="M14 2.33325C10.9433 2.33325 8.45829 4.81825 8.45829 7.87492C8.45829 10.8733 10.8033 13.2999 13.86 13.4049C13.9533 13.3933 14.0466 13.3933 14.1166 13.4049H14.1983C15.6325 13.3571 16.992 12.7533 17.9891 11.7213C18.9863 10.6893 19.543 9.30996 19.5416 7.87492C19.5416 4.81825 17.0566 2.33325 14 2.33325ZM19.9266 16.5071C16.6716 14.3371 11.3633 14.3371 8.08495 16.5071C6.60329 17.4988 5.78662 18.8404 5.78662 20.2754C5.78662 21.7104 6.60329 23.0404 8.07329 24.0204C9.70662 25.1171 11.8533 25.6654 14 25.6654C16.1466 25.6654 18.2933 25.1171 19.9266 24.0204C21.3966 23.0288 22.2133 21.6988 22.2133 20.2521C22.2016 18.8171 21.3966 17.4871 19.9266 16.5071Z" fill="#FEECFC"/>
<line x1="4.37629" y1="1.67075" x2="25.3763" y2="25.6707" stroke="#FCEAFA"/>
</svg>
