<svg width="447" height="463" viewBox="0 0 447 463" fill="none" xmlns="http://www.w3.org/2000/svg">
<path d="M53.9697 456.777V285.229H199.552V408.231L57.3713 459.171C55.7144 459.765 53.9697 458.537 53.9697 456.777Z" fill="#8C7A79"/>
<path d="M407.029 456.777V285.229H261.447V408.231L403.627 459.171C405.284 459.765 407.029 458.537 407.029 456.777Z" fill="#8C7A79"/>
<g filter="url(#filter0_d_281_63)">
<path d="M216.791 3.36005L13.2682 102.231C8.30392 104.642 5.15253 109.677 5.15253 115.196L5.15247 337.717C5.15247 343.236 8.30387 348.271 13.2681 350.682L216.791 449.553C220.768 451.485 225.411 451.485 229.388 449.553L432.911 350.682C437.875 348.271 441.027 343.236 441.027 337.717L441.027 115.196C441.027 109.677 437.875 104.642 432.911 102.231L229.388 3.36005C225.411 1.42816 220.768 1.42816 216.791 3.36005Z" fill="url(#paint0_linear_281_63)"/>
<path d="M216.554 37.6024L46.3646 120.28C41.419 122.682 38.2795 127.698 38.2795 133.196L38.2794 318.931C38.2794 324.429 41.419 329.445 46.3645 331.847L216.554 414.525C220.516 416.449 225.142 416.449 229.104 414.525L399.293 331.847C404.239 329.445 407.378 324.429 407.378 318.931L407.378 133.196C407.378 127.698 404.239 122.682 399.293 120.28L229.104 37.6024C225.142 35.6778 220.516 35.6778 216.554 37.6024Z" fill="url(#paint1_linear_281_63)"/>
<g filter="url(#filter1_f_281_63)">
<path d="M216.554 37.6024L46.3646 120.28C41.419 122.682 38.2795 127.698 38.2795 133.196L38.2794 318.931C38.2794 324.429 41.419 329.445 46.3645 331.847L216.554 414.525C220.516 416.449 225.142 416.449 229.104 414.525L399.293 331.847C404.239 329.445 407.378 324.429 407.378 318.931L407.378 133.196C407.378 127.698 404.239 122.682 399.293 120.28L229.104 37.6024C225.142 35.6778 220.516 35.6778 216.554 37.6024Z" stroke="#C9C2C3" stroke-width="0.847887"/>
</g>
<g opacity="0.5">
<mask id="mask0_281_63" style="mask-type:alpha" maskUnits="userSpaceOnUse" x="53" y="51" width="341" height="351">
<path d="M217.996 53.0189L61.6648 128.896C56.9581 131.18 53.9698 135.953 53.9698 141.184L53.9697 311.55C53.9697 316.782 56.9581 321.554 61.6648 323.839L217.996 399.716C221.763 401.544 226.159 401.544 229.925 399.716L386.257 323.839C390.963 321.554 393.952 316.782 393.952 311.55L393.952 141.184C393.952 135.953 390.963 131.18 386.257 128.896L229.925 53.0189C226.159 51.1909 221.763 51.1909 217.996 53.0189Z" fill="#A6D3DE"/>
</mask>
<g mask="url(#mask0_281_63)">
<path d="M217.996 53.0189L61.6648 128.896C56.9581 131.18 53.9698 135.953 53.9698 141.184L53.9697 311.55C53.9697 316.782 56.9581 321.554 61.6648 323.839L217.996 399.716C221.763 401.544 226.159 401.544 229.925 399.716L386.257 323.839C390.963 321.554 393.952 316.782 393.952 311.55L393.952 141.184C393.952 135.953 390.963 131.18 386.257 128.896L229.925 53.0189C226.159 51.1909 221.763 51.1909 217.996 53.0189Z" fill="url(#paint2_radial_281_63)"/>
<path opacity="0.5" d="M195.542 409.573L188.79 43.1445H259.131L252.378 409.573H195.542Z" fill="url(#paint3_linear_281_63)"/>
<path opacity="0.5" d="M194.639 406.323L-16.3707 92.0015L44.5465 60.5933L243.86 380.945L194.639 406.323Z" fill="url(#paint4_linear_281_63)"/>
<path opacity="0.5" d="M188.777 380.945L388.09 60.5933L449.007 92.0014L237.998 406.323L188.777 380.945Z" fill="url(#paint5_linear_281_63)"/>
<rect x="53.9706" y="205.421" width="339.982" height="197.174" fill="url(#paint6_linear_281_63)"/>
<g filter="url(#filter2_i_281_63)">
<path d="M217.996 53.0189L61.6648 128.896C56.9581 131.18 53.9698 135.953 53.9698 141.184L53.9697 311.55C53.9697 316.782 56.9581 321.554 61.6648 323.839L217.996 399.716C221.763 401.544 226.159 401.544 229.925 399.716L386.257 323.839C390.963 321.554 393.952 316.782 393.952 311.55L393.952 141.184C393.952 135.953 390.963 131.18 386.257 128.896L229.925 53.0189C226.159 51.1909 221.763 51.1909 217.996 53.0189Z" fill="#BCB0AE" fill-opacity="0.03"/>
</g>
</g>
</g>
</g>
<g filter="url(#filter3_d_281_63)">
<path d="M223.031 161.574V231.033L200.878 201.387L218.213 164.687C219.26 162.67 221.187 161.574 223.031 161.574Z" fill="#EBE6E7"/>
<path d="M288.277 211.217L223.108 231.039L245.255 201.394L283.94 207.27C286.112 207.687 287.634 209.281 288.277 211.217Z" fill="#C9C1C2"/>
<path d="M263.323 291.253L223.038 231.033L258.832 245.396L265.411 285.712C265.886 288.066 264.923 290.076 263.323 291.253Z" fill="#C6BEBF"/>
<path d="M223.032 231.033V272.607L188.439 291.67C186.435 292.759 184.347 292.423 182.741 291.253L223.032 231.033Z" fill="#AEA4A3"/>
<path d="M245.185 201.387L223.031 231.033V161.574C224.477 161.574 225.923 162.159 226.964 163.336C227.124 163.504 227.285 163.753 227.445 164.008C227.606 164.264 227.767 164.513 227.844 164.761L245.185 201.387Z" fill="#D4CDCE"/>
<path d="M288.116 214.996C287.956 215.332 287.795 215.668 287.634 216.004C287.39 216.34 287.153 216.589 286.915 216.925L258.908 245.482L223.115 231.12L288.283 211.297C288.283 211.378 288.361 211.465 288.361 211.553C288.361 211.64 288.444 211.721 288.444 211.889C288.444 211.976 288.444 211.976 288.444 211.976C288.444 212.057 288.444 212.145 288.444 212.225C288.444 212.393 288.444 212.481 288.444 212.642C288.521 213.395 288.438 214.236 288.116 214.996Z" fill="#AEA4A3"/>
<path d="M263.322 291.253C262.924 291.589 262.442 291.838 261.877 292.006C261.8 292.006 261.8 292.006 261.716 292.087C260.431 292.504 258.985 292.423 257.623 291.67L223.031 272.607V231.033L263.322 291.253Z" fill="#AEA4A3"/>
<path d="M223.031 231.033L182.747 291.253C182.67 291.166 182.586 291.085 182.509 290.997C182.432 290.917 182.348 290.829 182.265 290.742C182.188 290.661 182.104 290.574 181.943 290.406C181.86 290.325 181.783 290.238 181.699 290.15C181.616 290.063 181.622 290.07 181.622 289.982C181.545 289.901 181.462 289.814 181.462 289.727C181.301 289.478 181.14 289.222 181.063 288.974C180.986 288.893 180.986 288.718 180.903 288.557C180.826 288.389 180.826 288.301 180.742 288.14C180.665 287.972 180.665 287.723 180.665 287.555C180.665 287.474 180.665 287.299 180.665 287.219C180.665 287.05 180.665 286.882 180.665 286.714C180.665 286.378 180.665 286.042 180.742 285.706L187.321 245.389L223.031 231.033Z" fill="#C6BEBF"/>
<path d="M223.032 231.033L157.863 211.211C157.863 211.13 157.94 211.043 157.94 210.955C158.017 210.787 158.017 210.619 158.101 210.538C158.261 210.202 158.422 209.953 158.583 209.698C158.66 209.53 158.743 209.442 158.904 209.281C158.987 209.2 159.064 209.025 159.225 208.945C159.302 208.864 159.469 208.696 159.546 208.609C159.623 208.521 159.784 208.441 159.868 208.353C160.028 208.272 160.189 208.098 160.349 208.017C160.426 207.936 160.587 207.849 160.748 207.849C160.992 207.768 161.146 207.681 161.39 207.593C161.467 207.593 161.551 207.513 161.711 207.513C161.872 207.432 162.11 207.432 162.354 207.345L201.039 201.468L223.032 231.033Z" fill="#EDE9EA"/>
<path d="M223.031 231.032L187.321 245.475L159.315 216.919C158.994 216.663 158.833 216.334 158.595 215.998C158.435 215.661 158.197 215.325 158.113 214.989C158.036 214.821 157.953 214.653 157.953 214.485C157.792 213.98 157.709 213.395 157.709 212.891C157.709 212.723 157.709 212.555 157.709 212.387C157.709 212.138 157.709 211.97 157.792 211.714C157.792 211.634 157.869 211.546 157.869 211.378C157.869 211.297 157.946 211.21 157.946 211.129L223.031 231.032Z" fill="#BDB5B4"/>
</g>
<defs>
<filter id="filter0_d_281_63" x="0.0651417" y="1.91113" width="446.049" height="460.961" filterUnits="userSpaceOnUse" color-interpolation-filters="sRGB">
<feFlood flood-opacity="0" result="BackgroundImageFix"/>
<feColorMatrix in="SourceAlpha" type="matrix" values="0 0 0 0 0 0 0 0 0 0 0 0 0 0 0 0 0 0 127 0" result="hardAlpha"/>
<feOffset dy="6.7831"/>
<feGaussianBlur stdDeviation="2.54366"/>
<feColorMatrix type="matrix" values="0 0 0 0 0.475 0 0 0 0 0.425521 0 0 0 0 0.425521 0 0 0 0.35 0"/>
<feBlend mode="normal" in2="BackgroundImageFix" result="effect1_dropShadow_281_63"/>
<feBlend mode="normal" in="SourceGraphic" in2="effect1_dropShadow_281_63" result="shape"/>
</filter>
<filter id="filter1_f_281_63" x="37.6011" y="35.4805" width="370.456" height="381.166" filterUnits="userSpaceOnUse" color-interpolation-filters="sRGB">
<feFlood flood-opacity="0" result="BackgroundImageFix"/>
<feBlend mode="normal" in="SourceGraphic" in2="BackgroundImageFix" result="shape"/>
<feGaussianBlur stdDeviation="0.127183" result="effect1_foregroundBlur_281_63"/>
</filter>
<filter id="filter2_i_281_63" x="53.9697" y="51.6479" width="339.982" height="349.439" filterUnits="userSpaceOnUse" color-interpolation-filters="sRGB">
<feFlood flood-opacity="0" result="BackgroundImageFix"/>
<feBlend mode="normal" in="SourceGraphic" in2="BackgroundImageFix" result="shape"/>
<feColorMatrix in="SourceAlpha" type="matrix" values="0 0 0 0 0 0 0 0 0 0 0 0 0 0 0 0 0 0 127 0" result="hardAlpha"/>
<feOffset/>
<feGaussianBlur stdDeviation="5.70131"/>
<feComposite in2="hardAlpha" operator="arithmetic" k2="-1" k3="1"/>
<feColorMatrix type="matrix" values="0 0 0 0 0.508333 0 0 0 0 0.437506 0 0 0 0 0.415139 0 0 0 1 0"/>
<feBlend mode="normal" in2="shape" result="effect1_innerShadow_281_63"/>
</filter>
<filter id="filter3_d_281_63" x="129.709" y="134.574" width="190.762" height="190.763" filterUnits="userSpaceOnUse" color-interpolation-filters="sRGB">
<feFlood flood-opacity="0" result="BackgroundImageFix"/>
<feColorMatrix in="SourceAlpha" type="matrix" values="0 0 0 0 0 0 0 0 0 0 0 0 0 0 0 0 0 0 127 0" result="hardAlpha"/>
<feOffset dx="2" dy="3"/>
<feGaussianBlur stdDeviation="15"/>
<feComposite in2="hardAlpha" operator="out"/>
<feColorMatrix type="matrix" values="0 0 0 0 0.54902 0 0 0 0 0.478431 0 0 0 0 0.47451 0 0 0 1 0"/>
<feBlend mode="normal" in2="BackgroundImageFix" result="effect1_dropShadow_281_63"/>
<feBlend mode="normal" in="SourceGraphic" in2="effect1_dropShadow_281_63" result="shape"/>
</filter>
<linearGradient id="paint0_linear_281_63" x1="131.556" y1="54.7948" x2="294.656" y2="417.635" gradientUnits="userSpaceOnUse">
<stop stop-color="#EDE9EA"/>
<stop offset="1" stop-color="#BEB5B6"/>
</linearGradient>
<linearGradient id="paint1_linear_281_63" x1="129.813" y1="83.5993" x2="271.183" y2="375.729" gradientUnits="userSpaceOnUse">
<stop stop-color="#C3BBBB"/>
<stop offset="1" stop-color="#ECE8E9"/>
</linearGradient>
<radialGradient id="paint2_radial_281_63" cx="0" cy="0" r="1" gradientUnits="userSpaceOnUse" gradientTransform="translate(223.961 226.367) rotate(90) scale(176.243 169.991)">
<stop stop-color="#DFD6D5"/>
<stop offset="1" stop-color="#918888"/>
</radialGradient>
<linearGradient id="paint3_linear_281_63" x1="223.96" y1="43.1445" x2="223.96" y2="409.573" gradientUnits="userSpaceOnUse">
<stop stop-color="white"/>
<stop offset="1" stop-color="#F2EDED" stop-opacity="0"/>
</linearGradient>
<linearGradient id="paint4_linear_281_63" x1="14.0879" y1="76.2974" x2="186.428" y2="410.556" gradientUnits="userSpaceOnUse">
<stop stop-color="white"/>
<stop offset="1" stop-color="#F2EDED" stop-opacity="0"/>
</linearGradient>
<linearGradient id="paint5_linear_281_63" x1="418.549" y1="76.2974" x2="246.209" y2="410.556" gradientUnits="userSpaceOnUse">
<stop stop-color="white"/>
<stop offset="1" stop-color="#F2EDED" stop-opacity="0"/>
</linearGradient>
<linearGradient id="paint6_linear_281_63" x1="223.962" y1="290.921" x2="223.144" y2="390.38" gradientUnits="userSpaceOnUse">
<stop stop-color="#DEDADA" stop-opacity="0"/>
<stop offset="1" stop-color="#DECFCF"/>
</linearGradient>
</defs>
</svg>
