<svg width="26" height="26" viewBox="0 0 26 26" fill="none" xmlns="http://www.w3.org/2000/svg">
<path d="M16.2479 7.41669C18.2372 7.41572 20.1473 8.1965 21.5663 9.59072C22.9853 10.9849 23.7997 12.8809 23.8338 14.87C23.8679 16.8591 23.119 18.7819 21.7486 20.2239C20.3782 21.666 18.4961 22.5118 16.5079 22.579L16.2479 22.5834H9.7522C7.76285 22.5843 5.85278 21.8035 4.43376 20.4093C3.01473 19.0151 2.20038 17.1191 2.16628 15.13C2.13217 13.141 2.88103 11.2182 4.25142 9.77612C5.62181 8.33407 7.50399 7.48826 9.4922 7.42102L9.75111 7.41669H16.2468H16.2479ZM15.9792 15.5417C15.62 15.5417 15.2756 15.6844 15.0217 15.9383C14.7677 16.1923 14.625 16.5367 14.625 16.8959C14.625 17.255 14.7677 17.5994 15.0217 17.8534C15.2756 18.1074 15.62 18.25 15.9792 18.25C16.3383 18.25 16.6828 18.1074 16.9367 17.8534C17.1907 17.5994 17.3334 17.255 17.3334 16.8959C17.3334 16.5367 17.1907 16.1923 16.9367 15.9383C16.6828 15.6844 16.3383 15.5417 15.9792 15.5417ZM8.6667 11.75C8.47036 11.75 8.28066 11.8211 8.13269 11.9502C7.98472 12.0792 7.88848 12.2575 7.86178 12.452L7.8542 12.5625V14.1854H6.2292C6.02187 14.1832 5.82158 14.2605 5.66935 14.4012C5.51711 14.542 5.42444 14.7356 5.41032 14.9425C5.3962 15.1493 5.46169 15.3538 5.59338 15.5139C5.72508 15.674 5.91301 15.7778 6.1187 15.8039L6.2292 15.8114L7.8542 15.8104V17.4375C7.85426 17.6434 7.93246 17.8415 8.073 17.992C8.21354 18.1424 8.40594 18.2339 8.61132 18.2479C8.8167 18.2619 9.01975 18.1975 9.17944 18.0676C9.33913 17.9376 9.44355 17.752 9.47161 17.548L9.4792 17.4375V15.8104H11.1042C11.3088 15.8084 11.5051 15.7294 11.6539 15.5891C11.8028 15.4487 11.8932 15.2574 11.9072 15.0533C11.9211 14.8492 11.8576 14.6473 11.7292 14.4881C11.6008 14.3288 11.4171 14.2238 11.2147 14.194L11.1042 14.1864L9.4792 14.1854V12.5625C9.4792 12.347 9.39359 12.1404 9.24122 11.988C9.08885 11.8356 8.88218 11.75 8.6667 11.75ZM18.1459 11.75C17.7867 11.75 17.4423 11.8927 17.1883 12.1466C16.9344 12.4006 16.7917 12.745 16.7917 13.1042C16.7917 13.4633 16.9344 13.8078 17.1883 14.0617C17.4423 14.3157 17.7867 14.4584 18.1459 14.4584C18.505 14.4584 18.8494 14.3157 19.1034 14.0617C19.3574 13.8078 19.5 13.4633 19.5 13.1042C19.5 12.745 19.3574 12.4006 19.1034 12.1466C18.8494 11.8927 18.505 11.75 18.1459 11.75Z" fill="#FEECFC"/>
</svg>
