<svg width="866" height="912" viewBox="0 0 866 912" fill="none" xmlns="http://www.w3.org/2000/svg">
<g filter="url(#filter0_d_281_63)">
<path d="M101.688 717.971V489.131H277.686V791.016L103.277 720.328C102.317 719.939 101.688 719.007 101.688 717.971Z" fill="#ECD8BA"/>
<path d="M101.688 717.971V489.131H277.686V791.016L103.277 720.328C102.317 719.939 101.688 719.007 101.688 717.971Z" stroke="url(#paint0_linear_281_63)" stroke-width="0.847887"/>
</g>
<path fill-rule="evenodd" clip-rule="evenodd" d="M121.06 708.577V603.772H118.774V709.997L119.729 710.115C122.89 710.508 126.405 711.902 129.275 713.94C132.142 715.976 134.265 718.58 134.791 721.326L134.878 721.782L227.38 754.078V638.741H225.093V751.398L136.953 720.625C136.201 717.586 133.836 714.825 130.852 712.706C127.989 710.673 124.47 709.171 121.06 708.577Z" fill="url(#paint1_linear_281_63)"/>
<path fill-rule="evenodd" clip-rule="evenodd" d="M224.965 745.161C227.431 742.053 227.572 737.646 227.381 734.798L225.097 734.883C225.287 737.718 225.085 741.662 222.997 744.293C221.985 745.568 220.552 746.508 218.491 746.894C216.393 747.286 213.494 747.134 209.506 745.978L208.677 747.566C212.92 748.796 216.327 749.056 219.048 748.547C221.804 748.031 223.701 746.754 224.965 745.161Z" fill="#D4B195"/>
<g filter="url(#filter1_d_281_63)">
<path d="M766.382 717.971V489.131H590.384V791.016L764.793 720.328C765.753 719.939 766.382 719.007 766.382 717.971Z" fill="#ECD8BA"/>
<path d="M766.382 717.971V489.131H590.384V791.016L764.793 720.328C765.753 719.939 766.382 719.007 766.382 717.971Z" stroke="url(#paint2_linear_281_63)" stroke-width="0.847887"/>
</g>
<path fill-rule="evenodd" clip-rule="evenodd" d="M747.003 708.577V603.773H749.289V709.997L748.334 710.116C745.173 710.509 741.659 711.903 738.788 713.94C735.921 715.976 733.799 718.581 733.272 721.327L733.185 721.783L640.683 754.079V638.741H642.97V751.398L731.11 720.625C731.862 717.587 734.227 714.825 737.211 712.706C740.075 710.673 743.594 709.171 747.003 708.577Z" fill="url(#paint3_linear_281_63)"/>
<path fill-rule="evenodd" clip-rule="evenodd" d="M643.098 745.161C640.632 742.054 640.492 737.646 640.682 734.799L642.966 734.884C642.776 737.718 642.978 741.662 645.066 744.293C646.078 745.569 647.511 746.508 649.572 746.894C651.67 747.287 654.569 747.134 658.558 745.978L659.386 747.567C655.143 748.797 651.736 749.056 649.016 748.547C646.259 748.031 644.362 746.755 643.098 745.161Z" fill="#D4B195"/>
<g filter="url(#filter2_d_281_63)">
<path d="M245.22 476.393H621.138V832.25L431.658 904.053C431.098 904.265 430.479 904.264 429.92 904.05L245.22 833.473V476.393Z" fill="url(#paint4_linear_281_63)"/>
<path d="M245.22 476.393H621.138V832.25L431.658 904.053C431.098 904.265 430.479 904.264 429.92 904.05L245.22 833.473V476.393Z" stroke="url(#paint5_linear_281_63)" stroke-width="1.69577"/>
</g>
<path fill-rule="evenodd" clip-rule="evenodd" d="M487.855 880.208L431.658 901.503C431.098 901.716 430.479 901.715 429.92 901.501L371.662 879.24V619.056H487.855V880.208Z" fill="url(#paint6_linear_281_63)"/>
<path fill-rule="evenodd" clip-rule="evenodd" d="M265.724 667.459H271.17V826.732L431.829 888.64L595.187 826.725V667.459H600.633V828.168L431.805 891.644L265.724 828.162V667.459Z" fill="url(#paint7_linear_281_63)"/>
<path fill-rule="evenodd" clip-rule="evenodd" d="M432.945 833.053V879.273H429.974V833.053H432.945Z" fill="url(#paint8_linear_281_63)"/>
<path fill-rule="evenodd" clip-rule="evenodd" d="M422.561 862.871C416.648 867.954 409.445 869.086 404.485 868.47L404.973 866.285C408.925 866.776 415.089 865.915 420.316 861.42C425.564 856.909 429.979 848.63 429.979 834.161H432.95C432.95 848.922 428.453 857.805 422.561 862.871Z" fill="url(#paint9_linear_281_63)"/>
<path fill-rule="evenodd" clip-rule="evenodd" d="M440.368 862.871C446.28 867.954 453.484 869.086 458.444 868.47L457.955 866.285C454.004 866.776 447.839 865.915 442.612 861.42C437.364 856.909 432.95 848.63 432.95 834.161H429.979C429.979 848.922 434.476 857.805 440.368 862.871Z" fill="url(#paint10_linear_281_63)"/>
<path fill-rule="evenodd" clip-rule="evenodd" d="M430.837 880.28L397.295 866.27L404.721 866.271L431.459 878.057L458.192 866.171H464.747L432.071 880.282C431.679 880.415 431.229 880.414 430.837 880.28Z" fill="url(#paint11_linear_281_63)"/>
<g filter="url(#filter3_d_281_63)">
<path d="M427.763 2.19661L14.9974 169.582C9.5586 171.787 6.00012 177.07 6.00012 182.939L6 557.138C6 563.007 9.55848 568.29 14.9973 570.496L427.763 737.881C431.237 739.289 435.122 739.289 438.596 737.881L851.362 570.496C856.8 568.29 860.359 563.007 860.359 557.138L860.359 182.939C860.359 177.07 856.801 171.787 851.362 169.582L438.596 2.19662C435.122 0.787917 431.237 0.787911 427.763 2.19661Z" fill="url(#paint12_linear_281_63)"/>
<path d="M427.27 58.2347L79.8936 199.103C74.4752 201.3 70.9302 206.564 70.9302 212.41L70.9301 526.381C70.9301 532.228 74.4752 537.491 79.8935 539.688L427.27 680.556C430.731 681.96 434.602 681.96 438.063 680.556L785.439 539.688C790.857 537.491 794.402 532.228 794.402 526.381L794.402 212.41C794.402 206.564 790.857 201.3 785.439 199.103L438.063 58.2347C434.602 56.8313 430.731 56.8313 427.27 58.2347Z" fill="url(#paint13_linear_281_63)"/>
<g filter="url(#filter4_f_281_63)">
<path d="M427.27 58.2347L79.8936 199.103C74.4752 201.3 70.9302 206.564 70.9302 212.41L70.9301 526.381C70.9301 532.228 74.4752 537.491 79.8935 539.688L427.27 680.556C430.731 681.96 434.602 681.96 438.063 680.556L785.439 539.688C790.857 537.491 794.402 532.228 794.402 526.381L794.402 212.41C794.402 206.564 790.857 201.3 785.439 199.103L438.063 58.2347C434.602 56.8313 430.731 56.8313 427.27 58.2347Z" stroke="url(#paint14_linear_281_63)" stroke-width="0.847887"/>
</g>
<g opacity="0.5">
<mask id="mask0_281_63" style="mask-type:alpha" maskUnits="userSpaceOnUse" x="101" y="82" width="668" height="576">
<path d="M429.757 83.5996L110.217 213.064C105.061 215.153 101.687 220.16 101.687 225.723L101.687 514.061C101.687 519.624 105.061 524.632 110.217 526.721L429.757 656.185C433.047 657.518 436.726 657.518 440.016 656.185L759.556 526.721C764.712 524.632 768.086 519.624 768.086 514.061L768.087 225.723C768.087 220.16 764.713 215.153 759.556 213.064L440.016 83.5996C436.726 82.2668 433.047 82.2668 429.757 83.5996Z" fill="#A6D3DE"/>
</mask>
<g mask="url(#mask0_281_63)">
<path d="M429.757 83.5996L110.217 213.064C105.061 215.153 101.687 220.16 101.687 225.723L101.687 514.061C101.687 519.624 105.061 524.632 110.217 526.721L429.757 656.185C433.047 657.518 436.726 657.518 440.016 656.185L759.556 526.721C764.712 524.632 768.086 519.624 768.086 514.061L768.087 225.723C768.087 220.16 764.713 215.153 759.556 213.064L440.016 83.5996C436.726 82.2668 433.047 82.2668 429.757 83.5996Z" fill="url(#paint15_radial_281_63)"/>
<path opacity="0.5" d="M379.179 669.655L365.943 70.1011H503.818L490.582 669.655H379.179Z" fill="url(#paint16_linear_281_63)"/>
<path opacity="0.5" d="M377.41 664.334L-36.1912 150.039L83.2128 98.6482L473.888 622.811L377.41 664.334Z" fill="url(#paint17_linear_281_63)"/>
<path opacity="0.5" d="M365.916 622.815L756.591 98.6523L875.995 150.043L462.394 664.338L365.916 622.815Z" fill="url(#paint18_linear_281_63)"/>
<rect x="101.683" y="335.618" width="666.4" height="322.617" fill="url(#paint19_linear_281_63)"/>
<g filter="url(#filter5_i_281_63)">
<path d="M429.757 83.5996L110.217 213.064C105.061 215.153 101.687 220.16 101.687 225.723L101.687 514.061C101.687 519.624 105.061 524.632 110.217 526.721L429.757 656.185C433.047 657.518 436.726 657.518 440.016 656.185L759.556 526.721C764.712 524.632 768.086 519.624 768.086 514.061L768.087 225.723C768.087 220.16 764.713 215.153 759.556 213.064L440.016 83.5996C436.726 82.2668 433.047 82.2668 429.757 83.5996Z" fill="#6052B4" fill-opacity="0.01"/>
</g>
</g>
</g>
</g>
<g filter="url(#filter6_d_281_63)">
<path d="M436.156 175.143V379.362L371.022 292.198L421.988 184.296C425.067 178.366 430.734 175.143 436.156 175.143Z" fill="#EACFA0"/>
<path d="M627.991 321.102L436.386 379.383L501.501 292.219L615.24 309.498C621.625 310.724 626.102 315.409 627.991 321.102Z" fill="#DBAF6E"/>
<path d="M554.622 556.417L436.179 379.361L541.418 421.589L560.761 540.127C562.159 547.046 559.326 552.957 554.622 556.417Z" fill="#E7C188"/>
<path d="M436.159 379.361V501.596L334.453 557.642C328.559 560.845 322.42 559.857 317.697 556.417L436.159 379.361Z" fill="#CB9F60"/>
<path d="M501.289 292.198L436.155 379.362V175.143C440.406 175.143 444.656 176.863 447.716 180.323C448.188 180.817 448.661 181.548 449.133 182.3C449.605 183.051 450.077 183.782 450.304 184.514L501.289 292.198Z" fill="#DBAF6E"/>
<path d="M627.519 332.213C627.046 333.202 626.574 334.19 626.102 335.178C625.384 336.167 624.685 336.898 623.986 337.887L541.643 421.848L436.404 379.62L628.01 321.34C628.01 321.577 628.236 321.834 628.236 322.091C628.236 322.348 628.482 322.585 628.482 323.08C628.482 323.337 628.482 323.337 628.482 323.337C628.482 323.574 628.482 323.831 628.482 324.068C628.482 324.562 628.482 324.819 628.482 325.294C628.709 327.508 628.463 329.979 627.519 332.213Z" fill="#E7C188"/>
<path d="M554.618 556.417C553.447 557.405 552.03 558.137 550.368 558.631C550.141 558.631 550.141 558.631 549.895 558.868C546.117 560.094 541.867 559.857 537.862 557.642L436.156 501.596V379.361L554.618 556.417Z" fill="#CB9F60"/>
<path d="M436.153 379.361L317.71 556.417C317.484 556.16 317.238 555.923 317.011 555.665C316.785 555.428 316.539 555.171 316.294 554.914C316.067 554.677 315.821 554.42 315.349 553.926C315.104 553.689 314.877 553.432 314.631 553.175C314.386 552.918 314.405 552.937 314.405 552.68C314.178 552.443 313.932 552.186 313.932 551.929C313.46 551.198 312.988 550.446 312.761 549.715C312.534 549.478 312.534 548.964 312.289 548.489C312.062 547.995 312.062 547.738 311.817 547.263C311.59 546.769 311.59 546.038 311.59 545.544C311.59 545.306 311.59 544.792 311.59 544.555C311.59 544.061 311.59 543.567 311.59 543.072C311.59 542.084 311.59 541.095 311.817 540.107L331.16 421.569L436.153 379.361Z" fill="#E7C287"/>
<path d="M436.157 379.362L244.552 321.082C244.552 320.845 244.778 320.588 244.778 320.331C245.005 319.837 245.005 319.342 245.251 319.105C245.723 318.117 246.195 317.385 246.668 316.634C246.894 316.14 247.14 315.883 247.612 315.408C247.858 315.171 248.084 314.657 248.557 314.42C248.783 314.182 249.274 313.688 249.501 313.431C249.728 313.174 250.2 312.937 250.446 312.68C250.918 312.443 251.39 311.929 251.862 311.691C252.089 311.454 252.561 311.197 253.034 311.197C253.751 310.96 254.205 310.703 254.923 310.446C255.149 310.446 255.395 310.209 255.867 310.209C256.339 309.972 257.038 309.972 257.756 309.715L371.495 292.436L436.157 379.362Z" fill="#EACFA0"/>
<path d="M436.157 379.363L331.164 421.828L248.821 337.867C247.877 337.116 247.404 336.147 246.705 335.158C246.233 334.17 245.534 333.181 245.289 332.193C245.062 331.699 244.816 331.204 244.816 330.71C244.344 329.227 244.099 327.508 244.099 326.025C244.099 325.531 244.099 325.036 244.099 324.542C244.099 323.811 244.099 323.316 244.344 322.565C244.344 322.328 244.571 322.071 244.571 321.577C244.571 321.339 244.798 321.082 244.798 320.845L436.157 379.363Z" fill="#E7C287"/>
</g>
<defs>
<filter id="filter0_d_281_63" x="94.4813" y="481.924" width="190.412" height="316.505" filterUnits="userSpaceOnUse" color-interpolation-filters="sRGB">
<feFlood flood-opacity="0" result="BackgroundImageFix"/>
<feColorMatrix in="SourceAlpha" type="matrix" values="0 0 0 0 0 0 0 0 0 0 0 0 0 0 0 0 0 0 127 0" result="hardAlpha"/>
<feOffset/>
<feGaussianBlur stdDeviation="3.39155"/>
<feColorMatrix type="matrix" values="0 0 0 0 0.7 0 0 0 0 0.561568 0 0 0 0 0.32375 0 0 0 0.78 0"/>
<feBlend mode="normal" in2="BackgroundImageFix" result="effect1_dropShadow_281_63"/>
<feBlend mode="normal" in="SourceGraphic" in2="effect1_dropShadow_281_63" result="shape"/>
</filter>
<filter id="filter1_d_281_63" x="583.177" y="481.924" width="190.412" height="316.505" filterUnits="userSpaceOnUse" color-interpolation-filters="sRGB">
<feFlood flood-opacity="0" result="BackgroundImageFix"/>
<feColorMatrix in="SourceAlpha" type="matrix" values="0 0 0 0 0 0 0 0 0 0 0 0 0 0 0 0 0 0 127 0" result="hardAlpha"/>
<feOffset/>
<feGaussianBlur stdDeviation="3.39155"/>
<feColorMatrix type="matrix" values="0 0 0 0 0.7 0 0 0 0 0.561568 0 0 0 0 0.32375 0 0 0 0.78 0"/>
<feBlend mode="normal" in2="BackgroundImageFix" result="effect1_dropShadow_281_63"/>
<feBlend mode="normal" in="SourceGraphic" in2="effect1_dropShadow_281_63" result="shape"/>
</filter>
<filter id="filter2_d_281_63" x="237.589" y="468.762" width="391.18" height="443.08" filterUnits="userSpaceOnUse" color-interpolation-filters="sRGB">
<feFlood flood-opacity="0" result="BackgroundImageFix"/>
<feColorMatrix in="SourceAlpha" type="matrix" values="0 0 0 0 0 0 0 0 0 0 0 0 0 0 0 0 0 0 127 0" result="hardAlpha"/>
<feOffset/>
<feGaussianBlur stdDeviation="3.39155"/>
<feColorMatrix type="matrix" values="0 0 0 0 0.7 0 0 0 0 0.561568 0 0 0 0 0.32375 0 0 0 0.78 0"/>
<feBlend mode="normal" in2="BackgroundImageFix" result="effect1_dropShadow_281_63"/>
<feBlend mode="normal" in="SourceGraphic" in2="effect1_dropShadow_281_63" result="shape"/>
</filter>
<filter id="filter3_d_281_63" x="0.912676" y="1.14014" width="864.534" height="749.668" filterUnits="userSpaceOnUse" color-interpolation-filters="sRGB">
<feFlood flood-opacity="0" result="BackgroundImageFix"/>
<feColorMatrix in="SourceAlpha" type="matrix" values="0 0 0 0 0 0 0 0 0 0 0 0 0 0 0 0 0 0 127 0" result="hardAlpha"/>
<feOffset dy="6.7831"/>
<feGaussianBlur stdDeviation="2.54366"/>
<feColorMatrix type="matrix" values="0 0 0 0 0.4375 0 0 0 0 0.287401 0 0 0 0 0.111198 0 0 0 0.6 0"/>
<feBlend mode="normal" in2="BackgroundImageFix" result="effect1_dropShadow_281_63"/>
<feBlend mode="normal" in="SourceGraphic" in2="effect1_dropShadow_281_63" result="shape"/>
</filter>
<filter id="filter4_f_281_63" x="70.2517" y="56.5039" width="724.829" height="625.783" filterUnits="userSpaceOnUse" color-interpolation-filters="sRGB">
<feFlood flood-opacity="0" result="BackgroundImageFix"/>
<feBlend mode="normal" in="SourceGraphic" in2="BackgroundImageFix" result="shape"/>
<feGaussianBlur stdDeviation="0.127183" result="effect1_foregroundBlur_281_63"/>
</filter>
<filter id="filter5_i_281_63" x="101.687" y="82.6001" width="666.4" height="574.584" filterUnits="userSpaceOnUse" color-interpolation-filters="sRGB">
<feFlood flood-opacity="0" result="BackgroundImageFix"/>
<feBlend mode="normal" in="SourceGraphic" in2="BackgroundImageFix" result="shape"/>
<feColorMatrix in="SourceAlpha" type="matrix" values="0 0 0 0 0 0 0 0 0 0 0 0 0 0 0 0 0 0 127 0" result="hardAlpha"/>
<feOffset/>
<feGaussianBlur stdDeviation="5.70131"/>
<feComposite in2="hardAlpha" operator="arithmetic" k2="-1" k3="1"/>
<feColorMatrix type="matrix" values="0 0 0 0 0.458333 0 0 0 0 0.256743 0 0 0 0 0.0706597 0 0 0 1 0"/>
<feBlend mode="normal" in2="shape" result="effect1_innerShadow_281_63"/>
</filter>
<filter id="filter6_d_281_63" x="216.099" y="148.143" width="444.462" height="444.461" filterUnits="userSpaceOnUse" color-interpolation-filters="sRGB">
<feFlood flood-opacity="0" result="BackgroundImageFix"/>
<feColorMatrix in="SourceAlpha" type="matrix" values="0 0 0 0 0 0 0 0 0 0 0 0 0 0 0 0 0 0 127 0" result="hardAlpha"/>
<feOffset dx="2" dy="3"/>
<feGaussianBlur stdDeviation="15"/>
<feComposite in2="hardAlpha" operator="out"/>
<feColorMatrix type="matrix" values="0 0 0 0 0.615686 0 0 0 0 0.439216 0 0 0 0 0.32549 0 0 0 1 0"/>
<feBlend mode="normal" in2="BackgroundImageFix" result="effect1_dropShadow_281_63"/>
<feBlend mode="normal" in="SourceGraphic" in2="effect1_dropShadow_281_63" result="shape"/>
</filter>
<linearGradient id="paint0_linear_281_63" x1="101.688" y1="694.88" x2="275.626" y2="747.599" gradientUnits="userSpaceOnUse">
<stop stop-color="#8D664F"/>
<stop offset="0.208702" stop-color="#C49F7D"/>
<stop offset="0.648432" stop-color="#FFF1DC"/>
<stop offset="0.827985" stop-color="#B38368"/>
<stop offset="0.971703" stop-color="#8C5F4C"/>
</linearGradient>
<linearGradient id="paint1_linear_281_63" x1="123.899" y1="690.389" x2="185.256" y2="665.852" gradientUnits="userSpaceOnUse">
<stop stop-color="#C7A383"/>
<stop offset="0.309893" stop-color="#D5B198"/>
<stop offset="0.523799" stop-color="#CBA68C"/>
<stop offset="0.77229" stop-color="#BB9478"/>
<stop offset="1" stop-color="#D7B49B"/>
</linearGradient>
<linearGradient id="paint2_linear_281_63" x1="766.382" y1="694.88" x2="592.444" y2="747.599" gradientUnits="userSpaceOnUse">
<stop stop-color="#8D664F"/>
<stop offset="0.208702" stop-color="#C49F7D"/>
<stop offset="0.648432" stop-color="#FFF1DC"/>
<stop offset="0.827985" stop-color="#B38368"/>
<stop offset="0.971703" stop-color="#8C5F4C"/>
</linearGradient>
<linearGradient id="paint3_linear_281_63" x1="744.164" y1="690.39" x2="682.807" y2="665.852" gradientUnits="userSpaceOnUse">
<stop stop-color="#C7A383"/>
<stop offset="0.309893" stop-color="#D5B198"/>
<stop offset="0.523799" stop-color="#CBA68C"/>
<stop offset="0.77229" stop-color="#BB9478"/>
<stop offset="1" stop-color="#D7B49B"/>
</linearGradient>
<linearGradient id="paint4_linear_281_63" x1="433.179" y1="664.912" x2="433.179" y2="904.382" gradientUnits="userSpaceOnUse">
<stop stop-color="#B58D70"/>
<stop offset="0.2286" stop-color="#B58D70"/>
<stop offset="0.47675" stop-color="#D8B59B"/>
<stop offset="0.88344" stop-color="#B58D70"/>
<stop offset="1" stop-color="#B58D70"/>
</linearGradient>
<linearGradient id="paint5_linear_281_63" x1="245.22" y1="768.088" x2="580.876" y2="921.361" gradientUnits="userSpaceOnUse">
<stop stop-color="#8D664F"/>
<stop offset="0.208702" stop-color="#FFF5E6"/>
<stop offset="0.648432" stop-color="#ECD8BA"/>
<stop offset="0.780206" stop-color="#D0A568"/>
<stop offset="0.971703" stop-color="#8C5F4C"/>
</linearGradient>
<linearGradient id="paint6_linear_281_63" x1="429.758" y1="619.056" x2="429.758" y2="901.662" gradientUnits="userSpaceOnUse">
<stop stop-color="#DDBFA9"/>
<stop offset="0.22229" stop-color="#DDBFA9"/>
<stop offset="0.669825" stop-color="#EBD4C4"/>
<stop offset="0.898796" stop-color="#DDBFA9"/>
<stop offset="1" stop-color="#DDBFA9"/>
</linearGradient>
<linearGradient id="paint7_linear_281_63" x1="584.828" y1="800.796" x2="479.335" y2="691.145" gradientUnits="userSpaceOnUse">
<stop stop-color="#ECD8BA"/>
<stop offset="0.309893" stop-color="#EBD3AE"/>
<stop offset="0.523799" stop-color="#E2C69C"/>
<stop offset="0.77229" stop-color="#E3C8A0"/>
<stop offset="1" stop-color="#ECD8BA"/>
</linearGradient>
<linearGradient id="paint8_linear_281_63" x1="431.459" y1="833.053" x2="431.459" y2="876.234" gradientUnits="userSpaceOnUse">
<stop stop-color="#FAECD8"/>
<stop offset="0.491891" stop-color="#F9EBD7"/>
<stop offset="1" stop-color="#ECD5B4"/>
</linearGradient>
<linearGradient id="paint9_linear_281_63" x1="418.717" y1="834.161" x2="418.717" y2="868.622" gradientUnits="userSpaceOnUse">
<stop stop-color="#F9EBD7"/>
<stop offset="0.479167" stop-color="#FAEDD9"/>
<stop offset="1" stop-color="#F8E9D4"/>
</linearGradient>
<linearGradient id="paint10_linear_281_63" x1="444.211" y1="834.161" x2="444.211" y2="868.622" gradientUnits="userSpaceOnUse">
<stop stop-color="#FAEDD8"/>
<stop offset="0.479167" stop-color="#FAECD8"/>
<stop offset="1" stop-color="#EAD4B2"/>
</linearGradient>
<linearGradient id="paint11_linear_281_63" x1="427.862" y1="871.03" x2="389.748" y2="877.082" gradientUnits="userSpaceOnUse">
<stop stop-color="#E5CBA6"/>
<stop offset="0.309893" stop-color="#FAEDDA"/>
<stop offset="0.523799" stop-color="#F3E2C9"/>
<stop offset="0.613641" stop-color="#EFDCC0"/>
<stop offset="1" stop-color="#EFDCC0"/>
</linearGradient>
<linearGradient id="paint12_linear_281_63" x1="253.764" y1="89.1644" x2="488.494" y2="714.727" gradientUnits="userSpaceOnUse">
<stop stop-color="#FFF5DE"/>
<stop offset="1" stop-color="#CFA365"/>
</linearGradient>
<linearGradient id="paint13_linear_281_63" x1="250.345" y1="136.294" x2="455.22" y2="643.455" gradientUnits="userSpaceOnUse">
<stop stop-color="#D2A86C"/>
<stop offset="1" stop-color="#F8E6C0"/>
</linearGradient>
<linearGradient id="paint14_linear_281_63" x1="286.229" y1="119.735" x2="507.934" y2="654.787" gradientUnits="userSpaceOnUse">
<stop stop-color="#FFF6E7"/>
<stop offset="1" stop-color="#FFF8EC"/>
</linearGradient>
<radialGradient id="paint15_radial_281_63" cx="0" cy="0" r="1" gradientUnits="userSpaceOnUse" gradientTransform="translate(434.887 369.892) rotate(90) scale(288.371 333.2)">
<stop stop-color="#FFE4BA"/>
<stop offset="1" stop-color="#DEA44D"/>
</radialGradient>
<linearGradient id="paint16_linear_281_63" x1="434.881" y1="70.1011" x2="434.881" y2="669.655" gradientUnits="userSpaceOnUse">
<stop stop-color="white"/>
<stop offset="1" stop-color="#F2EDED" stop-opacity="0"/>
</linearGradient>
<linearGradient id="paint17_linear_281_63" x1="23.5108" y1="124.343" x2="274.905" y2="708.451" gradientUnits="userSpaceOnUse">
<stop stop-color="white"/>
<stop offset="1" stop-color="#F2EDED" stop-opacity="0"/>
</linearGradient>
<linearGradient id="paint18_linear_281_63" x1="816.293" y1="124.348" x2="564.899" y2="708.455" gradientUnits="userSpaceOnUse">
<stop stop-color="white"/>
<stop offset="1" stop-color="#F2EDED" stop-opacity="0"/>
</linearGradient>
<linearGradient id="paint19_linear_281_63" x1="434.883" y1="475.514" x2="433.765" y2="638.252" gradientUnits="userSpaceOnUse">
<stop stop-color="white" stop-opacity="0"/>
<stop offset="1" stop-color="#FFF1E3"/>
</linearGradient>
</defs>
</svg>

