<svg width="26" height="26" viewBox="0 0 26 26" fill="none" xmlns="http://www.w3.org/2000/svg">
<path d="M13 2.16669C7.03079 2.16669 2.16663 7.03085 2.16663 13C2.16663 18.9692 7.03079 23.8334 13 23.8334C18.9691 23.8334 23.8333 18.9692 23.8333 13C23.8333 7.03085 18.9691 2.16669 13 2.16669ZM17.3333 13.8125H13.8125V17.3334C13.8125 17.7775 13.4441 18.1459 13 18.1459C12.5558 18.1459 12.1875 17.7775 12.1875 17.3334V13.8125H8.66663C8.22246 13.8125 7.85413 13.4442 7.85413 13C7.85413 12.5559 8.22246 12.1875 8.66663 12.1875H12.1875V8.66669C12.1875 8.22252 12.5558 7.85419 13 7.85419C13.4441 7.85419 13.8125 8.22252 13.8125 8.66669V12.1875H17.3333C17.7775 12.1875 18.1458 12.5559 18.1458 13C18.1458 13.4442 17.7775 13.8125 17.3333 13.8125Z" fill="#FEECFC"/>
</svg>
