<svg width="420" height="433" viewBox="0 0 420 433" fill="none" xmlns="http://www.w3.org/2000/svg">
<path d="M51.6973 359.991V217.971H369.937V358.758C369.937 359.72 369.373 360.593 368.495 360.987L209.798 432.277C209.159 432.564 208.427 432.563 207.789 432.274L53.1325 362.216C52.2586 361.82 51.6973 360.95 51.6973 359.991Z" fill="#84B7C4"/>
<path fill-rule="evenodd" clip-rule="evenodd" d="M144.191 217.971V403.464L53.1325 362.216C52.2586 361.82 51.6973 360.95 51.6973 359.991V217.971H144.191Z" fill="#6B9BAA"/>
<path fill-rule="evenodd" clip-rule="evenodd" d="M141.057 402.045V217.972H144.192V403.465L141.057 402.045Z" fill="#B0D2DD"/>
<path fill-rule="evenodd" clip-rule="evenodd" d="M277.443 216.743V402.237L368.502 360.989C369.375 360.593 369.937 359.722 369.937 358.763V216.743H277.443Z" fill="#6B9BAA"/>
<path fill-rule="evenodd" clip-rule="evenodd" d="M280.578 400.817V216.743H277.442V402.237L280.578 400.817Z" fill="#B0D2DD"/>
<g filter="url(#filter0_d_281_63)">
<path d="M204.353 3.24468L14.7668 83.9772C9.4506 86.241 6.00006 91.4608 6.00006 97.2389L6 275.57C6 281.349 9.45055 286.568 14.7668 288.832L204.353 369.565C207.961 371.101 212.039 371.101 215.647 369.565L405.233 288.832C410.549 286.568 414 281.349 414 275.57L414 97.2389C414 91.4608 410.549 86.241 405.233 83.9772L215.647 3.24468C212.039 1.70821 207.961 1.70821 204.353 3.24468Z" fill="url(#paint0_linear_281_63)"/>
<path d="M204.13 31.3416L45.7421 98.7887C40.4459 101.044 37.0083 106.244 37.0083 112.001L37.0083 260.164C37.0083 265.921 40.4459 271.121 45.7421 273.376L204.13 340.823C207.724 342.354 211.787 342.354 215.382 340.823L373.769 273.376C379.066 271.121 382.503 265.921 382.503 260.164L382.503 112.001C382.503 106.244 379.066 101.044 373.769 98.7887L215.382 31.3416C211.787 29.8109 207.724 29.8109 204.13 31.3416Z" fill="url(#paint1_linear_281_63)"/>
<g filter="url(#filter1_f_281_63)">
<path d="M204.13 31.3416L45.7421 98.7887C40.4459 101.044 37.0083 106.244 37.0083 112.001L37.0083 260.164C37.0083 265.921 40.4459 271.121 45.7421 273.376L204.13 340.823C207.724 342.354 211.787 342.354 215.382 340.823L373.769 273.376C379.066 271.121 382.503 265.921 382.503 260.164L382.503 112.001C382.503 106.244 379.066 101.044 373.769 98.7887L215.382 31.3416C211.787 29.8109 207.724 29.8109 204.13 31.3416Z" stroke="#D0ECF2" stroke-width="0.847887"/>
</g>
<g opacity="0.5">
<mask id="mask0_281_63" style="mask-type:alpha" maskUnits="userSpaceOnUse" x="51" y="42" width="319" height="288">
<path d="M205.47 43.9968L60.0091 105.884C54.9691 108.028 51.6973 112.975 51.6973 118.453L51.6973 254.212C51.6973 259.689 54.969 264.636 60.0091 266.781L205.47 328.668C208.887 330.121 212.748 330.121 216.165 328.668L361.625 266.781C366.665 264.636 369.937 259.689 369.937 254.212L369.937 118.453C369.937 112.975 366.665 108.028 361.625 105.884L216.165 43.9968C212.748 42.5431 208.887 42.5431 205.47 43.9968Z" fill="#A6D3DE"/>
</mask>
<g mask="url(#mask0_281_63)">
<path d="M205.47 43.9968L60.0091 105.884C54.9691 108.028 51.6973 112.975 51.6973 118.453L51.6973 254.212C51.6973 259.689 54.969 264.636 60.0091 266.781L205.47 328.668C208.887 330.121 212.748 330.121 216.165 328.668L361.625 266.781C366.665 264.636 369.937 259.689 369.937 254.212L369.937 118.453C369.937 112.975 366.665 108.028 361.625 105.884L216.165 43.9968C212.748 42.5431 208.887 42.5431 205.47 43.9968Z" fill="url(#paint2_radial_281_63)"/>
<path opacity="0.5" d="M184.217 336.655L177.896 35.9941H243.739L237.418 336.655H184.217Z" fill="url(#paint3_linear_281_63)"/>
<path opacity="0.5" d="M183.372 333.987L-14.1436 76.0811L42.8779 50.3101L229.445 313.164L183.372 333.987Z" fill="url(#paint4_linear_281_63)"/>
<path opacity="0.5" d="M177.884 313.165L364.451 50.311L421.473 76.082L223.957 333.988L177.884 313.165Z" fill="url(#paint5_linear_281_63)"/>
<rect x="51.6992" y="169.144" width="318.24" height="161.784" fill="url(#paint6_linear_281_63)"/>
<g filter="url(#filter2_i_281_63)">
<path d="M205.47 43.9968L60.0091 105.884C54.9691 108.028 51.6973 112.975 51.6973 118.453L51.6973 254.212C51.6973 259.689 54.969 264.636 60.0091 266.781L205.47 328.668C208.887 330.121 212.748 330.121 216.165 328.668L361.625 266.781C366.665 264.636 369.937 259.689 369.937 254.212L369.937 118.453C369.937 112.975 366.665 108.028 361.625 105.884L216.165 43.9968C212.748 42.5431 208.887 42.5431 205.47 43.9968Z" fill="#AFF5F1" fill-opacity="0.03"/>
</g>
</g>
</g>
</g>
<g filter="url(#filter3_d_281_63)">
<path d="M209.935 115.08V190.933L185.743 158.558L204.673 118.48C205.817 116.277 207.922 115.08 209.935 115.08Z" fill="#C4E3EA"/>
<path d="M281.189 169.293L210.021 190.941L234.207 158.565L276.453 164.983C278.824 165.438 280.487 167.179 281.189 169.293Z" fill="#A9D9E3"/>
<path d="M253.937 256.696L209.944 190.933L249.033 206.617L256.218 250.645C256.737 253.215 255.685 255.411 253.937 256.696Z" fill="#B1DCE4"/>
<path d="M209.937 190.933V236.334L172.161 257.151C169.971 258.341 167.691 257.974 165.937 256.696L209.937 190.933Z" fill="#97C8D6"/>
<path d="M234.129 158.558L209.937 190.933V115.08C211.515 115.08 213.094 115.719 214.231 117.004C214.406 117.188 214.582 117.459 214.757 117.738C214.932 118.017 215.108 118.289 215.192 118.561L234.129 158.558Z" fill="#B1DCE4"/>
<path d="M281.014 173.42C280.838 173.787 280.663 174.154 280.487 174.521C280.221 174.889 279.961 175.16 279.701 175.527L249.117 206.713L210.028 191.028L281.196 169.381C281.196 169.469 281.28 169.565 281.28 169.66C281.28 169.756 281.371 169.844 281.371 170.028C281.371 170.123 281.371 170.123 281.371 170.123C281.371 170.211 281.371 170.307 281.371 170.395C281.371 170.578 281.371 170.674 281.371 170.85C281.456 171.672 281.364 172.59 281.014 173.42Z" fill="#98C8D7"/>
<path d="M253.937 256.696C253.502 257.063 252.976 257.335 252.359 257.518C252.275 257.518 252.275 257.518 252.183 257.607C250.78 258.062 249.201 257.974 247.714 257.151L209.937 236.334V190.933L253.937 256.696Z" fill="#98C8D7"/>
<path d="M209.935 190.933L165.942 256.696C165.858 256.601 165.767 256.512 165.682 256.417C165.598 256.329 165.507 256.233 165.416 256.138C165.332 256.05 165.24 255.954 165.065 255.771C164.974 255.683 164.89 255.587 164.798 255.492C164.707 255.396 164.714 255.404 164.714 255.308C164.63 255.22 164.539 255.125 164.539 255.029C164.363 254.758 164.188 254.478 164.104 254.207C164.02 254.119 164.02 253.928 163.928 253.752C163.844 253.568 163.844 253.472 163.753 253.296C163.669 253.113 163.669 252.841 163.669 252.657C163.669 252.569 163.669 252.378 163.669 252.29C163.669 252.107 163.669 251.923 163.669 251.74C163.669 251.372 163.669 251.005 163.753 250.638L170.938 206.61L209.935 190.933Z" fill="#ABDAE4"/>
<path d="M209.936 190.932L138.769 169.285C138.769 169.197 138.853 169.101 138.853 169.006C138.937 168.822 138.937 168.639 139.028 168.551C139.204 168.184 139.379 167.912 139.554 167.633C139.639 167.449 139.73 167.354 139.905 167.178C139.996 167.089 140.081 166.898 140.256 166.81C140.34 166.722 140.523 166.539 140.607 166.443C140.691 166.348 140.866 166.26 140.958 166.164C141.133 166.076 141.309 165.885 141.484 165.797C141.568 165.709 141.744 165.613 141.919 165.613C142.186 165.525 142.354 165.43 142.621 165.334C142.705 165.334 142.796 165.246 142.971 165.246C143.147 165.158 143.406 165.158 143.673 165.063L185.919 158.645L209.936 190.932Z" fill="#E0F5F9"/>
<path d="M209.936 190.933L170.939 206.706L140.354 175.52C140.003 175.241 139.828 174.881 139.568 174.514C139.393 174.147 139.133 173.78 139.042 173.413C138.958 173.229 138.867 173.045 138.867 172.862C138.691 172.311 138.6 171.672 138.6 171.122C138.6 170.938 138.6 170.754 138.6 170.571C138.6 170.299 138.6 170.116 138.691 169.837C138.691 169.748 138.776 169.653 138.776 169.469C138.776 169.381 138.86 169.286 138.86 169.198L209.936 190.933Z" fill="#ABDAE4"/>
</g>
<defs>
<filter id="filter0_d_281_63" x="0.912676" y="2.09229" width="418.175" height="380.495" filterUnits="userSpaceOnUse" color-interpolation-filters="sRGB">
<feFlood flood-opacity="0" result="BackgroundImageFix"/>
<feColorMatrix in="SourceAlpha" type="matrix" values="0 0 0 0 0 0 0 0 0 0 0 0 0 0 0 0 0 0 127 0" result="hardAlpha"/>
<feOffset dy="6.7831"/>
<feGaussianBlur stdDeviation="2.54366"/>
<feColorMatrix type="matrix" values="0 0 0 0 0.208958 0 0 0 0 0.389892 0 0 0 0 0.491667 0 0 0 0.54 0"/>
<feBlend mode="normal" in2="BackgroundImageFix" result="effect1_dropShadow_281_63"/>
<feBlend mode="normal" in="SourceGraphic" in2="effect1_dropShadow_281_63" result="shape"/>
</filter>
<filter id="filter1_f_281_63" x="36.3301" y="29.5152" width="346.851" height="313.134" filterUnits="userSpaceOnUse" color-interpolation-filters="sRGB">
<feFlood flood-opacity="0" result="BackgroundImageFix"/>
<feBlend mode="normal" in="SourceGraphic" in2="BackgroundImageFix" result="shape"/>
<feGaussianBlur stdDeviation="0.127183" result="effect1_foregroundBlur_281_63"/>
</filter>
<filter id="filter2_i_281_63" x="51.6973" y="42.9067" width="318.24" height="286.851" filterUnits="userSpaceOnUse" color-interpolation-filters="sRGB">
<feFlood flood-opacity="0" result="BackgroundImageFix"/>
<feBlend mode="normal" in="SourceGraphic" in2="BackgroundImageFix" result="shape"/>
<feColorMatrix in="SourceAlpha" type="matrix" values="0 0 0 0 0 0 0 0 0 0 0 0 0 0 0 0 0 0 127 0" result="hardAlpha"/>
<feOffset/>
<feGaussianBlur stdDeviation="5.70131"/>
<feComposite in2="hardAlpha" operator="arithmetic" k2="-1" k3="1"/>
<feColorMatrix type="matrix" values="0 0 0 0 0.37849 0 0 0 0 0.586923 0 0 0 0 0.704167 0 0 0 1 0"/>
<feBlend mode="normal" in2="shape" result="effect1_innerShadow_281_63"/>
</filter>
<filter id="filter3_d_281_63" x="110.6" y="88.0801" width="202.801" height="202.8" filterUnits="userSpaceOnUse" color-interpolation-filters="sRGB">
<feFlood flood-opacity="0" result="BackgroundImageFix"/>
<feColorMatrix in="SourceAlpha" type="matrix" values="0 0 0 0 0 0 0 0 0 0 0 0 0 0 0 0 0 0 127 0" result="hardAlpha"/>
<feOffset dx="2" dy="3"/>
<feGaussianBlur stdDeviation="15"/>
<feComposite in2="hardAlpha" operator="out"/>
<feColorMatrix type="matrix" values="0 0 0 0 0.419608 0 0 0 0 0.607843 0 0 0 0 0.666667 0 0 0 1 0"/>
<feBlend mode="normal" in2="BackgroundImageFix" result="effect1_dropShadow_281_63"/>
<feBlend mode="normal" in="SourceGraphic" in2="effect1_dropShadow_281_63" result="shape"/>
</filter>
<linearGradient id="paint0_linear_281_63" x1="124.32" y1="45.5535" x2="246.381" y2="355.33" gradientUnits="userSpaceOnUse">
<stop stop-color="#D8ECF1"/>
<stop offset="1" stop-color="#82B3BF"/>
</linearGradient>
<linearGradient id="paint1_linear_281_63" x1="122.688" y1="69.1881" x2="229.042" y2="319.904" gradientUnits="userSpaceOnUse">
<stop stop-color="#A1C9D3"/>
<stop offset="1" stop-color="#D0ECF2"/>
</linearGradient>
<radialGradient id="paint2_radial_281_63" cx="0" cy="0" r="1" gradientUnits="userSpaceOnUse" gradientTransform="translate(210.817 186.332) rotate(90) scale(144.61 159.12)">
<stop stop-color="#D0EBF2"/>
<stop offset="1" stop-color="#8DD3E2"/>
</radialGradient>
<linearGradient id="paint3_linear_281_63" x1="210.817" y1="35.9941" x2="210.817" y2="336.655" gradientUnits="userSpaceOnUse">
<stop stop-color="white"/>
<stop offset="1" stop-color="#F2EDED" stop-opacity="0"/>
</linearGradient>
<linearGradient id="paint4_linear_281_63" x1="14.3672" y1="63.1956" x2="144.659" y2="351.483" gradientUnits="userSpaceOnUse">
<stop stop-color="white"/>
<stop offset="1" stop-color="#F2EDED" stop-opacity="0"/>
</linearGradient>
<linearGradient id="paint5_linear_281_63" x1="392.962" y1="63.1965" x2="262.67" y2="351.484" gradientUnits="userSpaceOnUse">
<stop stop-color="white"/>
<stop offset="1" stop-color="#F2EDED" stop-opacity="0"/>
</linearGradient>
<linearGradient id="paint6_linear_281_63" x1="210.819" y1="239.298" x2="210.231" y2="320.907" gradientUnits="userSpaceOnUse">
<stop stop-color="#EEFFFF" stop-opacity="0"/>
<stop offset="1" stop-color="#B5EBFB"/>
</linearGradient>
</defs>
</svg>
