<svg width="20" height="20" viewBox="0 0 20 20" fill="none" xmlns="http://www.w3.org/2000/svg">
<path d="M14.8425 4.57508V5.19175L11.8925 3.48341C10.7758 2.84175 9.21751 2.84175 8.10918 3.48341L5.15918 5.20008V4.57508C5.15918 2.70008 6.18418 1.66675 8.05918 1.66675H11.9425C13.8175 1.66675 14.8425 2.70008 14.8425 4.57508Z" fill="#FEECFC"/>
<path d="M14.8667 6.63991L14.75 6.58158L13.6167 5.93158L11.2667 4.57324C10.55 4.15658 9.44999 4.15658 8.73332 4.57324L6.38332 5.92324L5.24999 6.58991L5.09999 6.66491C3.64166 7.64824 3.54166 7.83158 3.54166 9.40658V13.1732C3.54166 14.7482 3.64166 14.9316 5.13332 15.9399L8.73332 18.0149C9.09166 18.2316 9.54166 18.3232 9.99999 18.3232C10.45 18.3232 10.9083 18.2232 11.2667 18.0149L14.9 15.9149C16.3667 14.9316 16.4583 14.7566 16.4583 13.1732V9.40658C16.4583 7.83158 16.3583 7.64824 14.8667 6.63991ZM12.325 11.2482L11.8167 11.8732C11.7333 11.9649 11.675 12.1399 11.6833 12.2649L11.7333 13.0649C11.7667 13.5566 11.4167 13.8066 10.9583 13.6316L10.2167 13.3316C10.0781 13.2899 9.93026 13.2899 9.79166 13.3316L9.04999 13.6232C8.59166 13.8066 8.24166 13.5482 8.27499 13.0566L8.32499 12.2566C8.3281 12.1144 8.28088 11.9757 8.19166 11.8649L7.67499 11.2482C7.35832 10.8732 7.49999 10.4566 7.97499 10.3316L8.74999 10.1316C8.87499 10.0982 9.01666 9.98158 9.08332 9.88158L9.51666 9.21491C9.78332 8.79824 10.2083 8.79824 10.4833 9.21491L10.9167 9.88158C10.9833 9.98991 11.1333 10.0982 11.25 10.1316L12.025 10.3316C12.5 10.4566 12.6417 10.8732 12.325 11.2482Z" fill="#FEECFC"/>
</svg>
