<svg width="30" height="30" viewBox="0 0 30 30" fill="none" xmlns="http://www.w3.org/2000/svg">
<g opacity="0.4">
<path d="M15.0013 21.6875C15.5416 21.6875 16.0599 21.4728 16.442 21.0907C16.8241 20.7086 17.0388 20.1904 17.0388 19.65C17.0388 19.1096 16.8241 18.5914 16.442 18.2093C16.0599 17.8272 15.5416 17.6125 15.0013 17.6125C14.4609 17.6125 13.9426 17.8272 13.5605 18.2093C13.1784 18.5914 12.9638 19.1096 12.9638 19.65C12.9638 20.1904 13.1784 20.7086 13.5605 21.0907C13.9426 21.4728 14.4609 21.6875 15.0013 21.6875Z" fill="#FEECFC"/>
<path d="M22.85 11.9125V10.35C22.85 6.975 22.0375 2.5 15 2.5C7.9625 2.5 7.15 6.975 7.15 10.35V11.9125C3.65 12.35 2.5 14.125 2.5 18.4875V20.8125C2.5 25.9375 4.0625 27.5 9.1875 27.5H20.8125C25.9375 27.5 27.5 25.9375 27.5 20.8125V18.4875C27.5 14.125 26.35 12.35 22.85 11.9125ZM15 23.425C12.9125 23.425 11.225 21.725 11.225 19.65C11.225 17.5625 12.925 15.875 15 15.875C16.0002 15.8783 16.9585 16.2771 17.6657 16.9843C18.3729 17.6915 18.7717 18.6498 18.775 19.65C18.775 21.7375 17.0875 23.425 15 23.425ZM9.1875 11.8H8.9V10.35C8.9 6.6875 9.9375 4.25 15 4.25C20.0625 4.25 21.1 6.6875 21.1 10.35V11.8125H9.1875V11.8Z" fill="#FEECFC"/>
</g>
</svg>
