<svg width="24" height="24" viewBox="0 0 24 24" fill="none" xmlns="http://www.w3.org/2000/svg">
<g opacity="0.99" clip-path="url(#clip0_493_424)">
<path d="M12.0001 0C11.5104 0 11.0408 0.194505 10.6946 0.540726C10.3484 0.886947 10.1539 1.35652 10.1539 1.84615V11.0769C10.1539 11.5666 10.3484 12.0361 10.6946 12.3824C11.0408 12.7286 11.5104 12.9231 12.0001 12.9231C12.4897 12.9231 12.9593 12.7286 13.3055 12.3824C13.6517 12.0361 13.8462 11.5666 13.8462 11.0769V1.84615C13.8462 1.35652 13.6517 0.886947 13.3055 0.540726C12.9593 0.194505 12.4897 0 12.0001 0ZM5.39451 2.39446C5.1282 2.4281 4.87742 2.53842 4.67267 2.712C3.26877 3.81876 2.1344 5.22975 1.35506 6.83863C0.575728 8.44751 0.171755 10.2123 0.17359 12C0.17359 18.5151 5.48313 23.8274 12.0001 23.8274C18.517 23.8274 23.8274 18.5151 23.8274 12C23.8274 8.24031 22.0717 4.87662 19.3274 2.71108C19.1854 2.59743 19.0223 2.51288 18.8476 2.46226C18.6728 2.41163 18.4898 2.39592 18.309 2.41602C18.1282 2.43612 17.9531 2.49164 17.7937 2.57941C17.6344 2.66717 17.4938 2.78547 17.3802 2.92754C17.2666 3.06961 17.182 3.23267 17.1314 3.40742C17.0808 3.58216 17.0651 3.76517 17.0851 3.94598C17.1052 4.1268 17.1608 4.30189 17.2485 4.46125C17.3363 4.62061 17.4546 4.76113 17.5967 4.87477C18.6761 5.72223 19.5487 6.80409 20.1485 8.03852C20.7482 9.27295 21.0592 10.6276 21.0582 12C21.0611 13.1904 20.8288 14.3696 20.3746 15.4699C19.9205 16.5702 19.2534 17.5699 18.4116 18.4116C17.5699 19.2533 16.5702 19.9204 15.4699 20.3746C14.3696 20.8288 13.1904 21.0611 12.0001 21.0582C10.8097 21.0611 9.6305 20.8288 8.53019 20.3746C7.42989 19.9204 6.43016 19.2533 5.58845 18.4116C4.74674 17.5699 4.07964 16.5702 3.62546 15.4699C3.17128 14.3696 2.93898 13.1904 2.9419 12C2.94112 10.6277 3.25234 9.27309 3.85202 8.0387C4.45171 6.80432 5.32416 5.72241 6.40344 4.87477C6.64789 4.69116 6.8247 4.4318 6.90628 4.13716C6.98787 3.84251 6.96964 3.52915 6.85444 3.24596C6.73925 2.96276 6.53356 2.72565 6.26946 2.57162C6.00537 2.41759 5.69772 2.3553 5.39451 2.39446Z" fill="#FEECFC"/>
</g>
<defs>
<clipPath id="clip0_493_424">
<rect width="24" height="24" fill="white"/>
</clipPath>
</defs>
</svg>
