<svg width="50" height="48" viewBox="0 0 50 48" fill="none" xmlns="http://www.w3.org/2000/svg">
<path d="M22.5635 0C28.5477 0 34.2868 2.29372 38.5183 6.37658C42.7497 10.4594 45.127 15.997 45.127 21.771C45.127 25.2773 44.2695 28.5865 42.7447 31.5198L48.5946 37.1666C49.0399 37.5963 49.29 38.1791 49.29 38.7868C49.29 39.3944 49.0399 39.9772 48.5946 40.407L41.8778 46.8879C41.6572 47.1009 41.3953 47.27 41.1069 47.3853C40.8186 47.5006 40.5096 47.56 40.1974 47.56C39.8853 47.56 39.5762 47.5006 39.2879 47.3853C38.9996 47.27 38.7376 47.1009 38.517 46.8879L32.6672 41.2435C29.5313 42.76 26.0711 43.5471 22.5635 43.542C16.5793 43.542 10.8402 41.2483 6.60869 37.1654C2.37722 33.0826 0 27.545 0 21.771C0 15.997 2.37722 10.4594 6.60869 6.37658C10.8402 2.29372 16.5793 8.60398e-08 22.5635 0ZM35.1586 30.6811L31.8003 33.9215L40.1986 42.0226L43.557 38.7822L35.1586 30.6811ZM39.5858 16.6903L17.2979 38.1955C19.0036 38.7027 20.7786 38.9599 22.5635 38.9586C24.7904 38.9615 26.998 38.5604 29.0713 37.7761L26.7627 35.544C26.3174 35.1143 26.0673 34.5315 26.0673 33.9238C26.0673 33.3161 26.3174 32.7333 26.7627 32.3036L33.4795 25.8227C33.9248 25.3931 34.5289 25.1517 35.1586 25.1517C35.7884 25.1517 36.3924 25.3931 36.8378 25.8227L39.1512 28.0502C39.964 26.0498 40.3797 23.9197 40.3767 21.771C40.3767 20.0018 40.0989 18.2968 39.5858 16.6903ZM22.5635 4.58337C18.734 4.58298 15.0064 5.77332 11.9333 7.9779C8.86018 10.1825 6.60517 13.2839 5.50262 16.8224C4.40006 20.3609 4.50867 24.148 5.81232 27.6222C7.11598 31.0965 9.54528 34.0728 12.74 36.1101L37.4245 12.2926C35.8018 9.92159 33.5947 7.97615 31.001 6.63067C28.4074 5.2852 25.5082 4.58174 22.5635 4.58337Z" fill="#D8EA10"/>
</svg>
