<svg width="30" height="30" viewBox="0 0 30 30" fill="none" xmlns="http://www.w3.org/2000/svg">
<g opacity="0.4">
<path d="M15 15C16.6576 15 18.2473 14.3415 19.4194 13.1694C20.5915 11.9973 21.25 10.4076 21.25 8.75C21.25 7.0924 20.5915 5.50269 19.4194 4.33058C18.2473 3.15848 16.6576 2.5 15 2.5C13.3423 2.5 11.7526 3.15848 10.5805 4.33058C9.40843 5.50269 8.74995 7.0924 8.74995 8.75C8.74995 10.4076 9.40843 11.9973 10.5805 13.1694C11.7526 14.3415 13.3423 15 15 15ZM15 18.125C8.73745 18.125 3.63745 22.325 3.63745 27.5C3.63745 27.85 3.91245 28.125 4.26245 28.125H25.7375C26.0875 28.125 26.3625 27.85 26.3625 27.5C26.3625 22.325 21.2625 18.125 15 18.125Z" fill="#FF0000"/>
</g>
</svg>
