<svg width="26" height="26" viewBox="0 0 26 26" fill="none" xmlns="http://www.w3.org/2000/svg">
<g clip-path="url(#clip0_571_547)">
<path d="M15.8672 4.42107C15.8963 4.54103 15.9532 4.65243 16.0335 4.74623C16.1137 4.84002 16.2149 4.91355 16.329 4.96085C16.443 5.00814 16.5665 5.02786 16.6896 5.0184C16.8127 5.00894 16.9318 4.97057 17.0372 4.9064C19.6795 3.29765 22.703 6.32015 21.0943 8.9624C21.0301 9.06777 20.9917 9.18679 20.9822 9.30979C20.9727 9.4328 20.9923 9.55631 21.0395 9.67031C21.0866 9.7843 21.16 9.88555 21.2537 9.96585C21.3474 10.0461 21.4587 10.1032 21.5785 10.1324C24.5848 10.8615 24.5848 15.1374 21.5785 15.8676C21.4586 15.8966 21.3472 15.9536 21.2534 16.0338C21.1596 16.1141 21.086 16.2153 21.0388 16.3293C20.9915 16.4433 20.9717 16.5669 20.9812 16.69C20.9907 16.813 21.029 16.9321 21.0932 17.0376C22.702 19.6798 19.6795 22.7034 17.0372 21.0947C16.9318 21.0305 16.8128 20.9921 16.6898 20.9826C16.5668 20.973 16.4433 20.9926 16.3293 21.0398C16.2153 21.087 16.114 21.1604 16.0338 21.2541C15.9535 21.3477 15.8964 21.459 15.8672 21.5789C15.1381 24.5852 10.8622 24.5852 10.132 21.5789C10.103 21.4589 10.046 21.3475 9.96577 21.2537C9.88553 21.1599 9.78429 21.0864 9.67028 21.0391C9.55627 20.9918 9.43271 20.9721 9.30964 20.9816C9.18658 20.991 9.06748 21.0294 8.96204 21.0936C6.31979 22.7023 3.2962 19.6798 4.90495 17.0376C4.96912 16.9322 5.00753 16.8132 5.01705 16.6902C5.02658 16.5672 5.00696 16.4437 4.95977 16.3297C4.91259 16.2157 4.83919 16.1144 4.74552 16.0341C4.65186 15.9538 4.54057 15.8968 4.4207 15.8676C1.41445 15.1385 1.41445 10.8626 4.4207 10.1324C4.54066 10.1033 4.65207 10.0464 4.74586 9.96613C4.83966 9.8859 4.91319 9.78466 4.96048 9.67065C5.00777 9.55664 5.02749 9.43308 5.01803 9.31001C5.00857 9.18694 4.9702 9.06784 4.90604 8.9624C3.29729 6.32015 6.31979 3.29657 8.96204 4.90532C9.0673 4.96997 9.18638 5.00877 9.30952 5.01855C9.43267 5.02832 9.55638 5.00878 9.67052 4.96154C9.78466 4.9143 9.88599 4.84069 9.96621 4.74675C10.0464 4.65281 10.1033 4.5412 10.132 4.42107C10.8611 1.41482 15.137 1.41482 15.8672 4.42107ZM12.9996 9.74999C12.1377 9.74999 11.311 10.0924 10.7015 10.7019C10.092 11.3114 9.74962 12.138 9.74962 13C9.74962 13.8619 10.092 14.6886 10.7015 15.2981C11.311 15.9076 12.1377 16.25 12.9996 16.25C13.8616 16.25 14.6882 15.9076 15.2977 15.2981C15.9072 14.6886 16.2496 13.8619 16.2496 13C16.2496 12.138 15.9072 11.3114 15.2977 10.7019C14.6882 10.0924 13.8616 9.74999 12.9996 9.74999Z" fill="#FEECFC"/>
</g>
<defs>
<clipPath id="clip0_571_547">
<rect width="26" height="26" fill="white"/>
</clipPath>
</defs>
</svg>
