<svg width="75" height="120" viewBox="0 0 75 120" fill="none" xmlns="http://www.w3.org/2000/svg">
<path fill-rule="evenodd" clip-rule="evenodd" d="M36.0165 0.332412C33.5247 1.49277 33.5059 4.45078 35.9828 5.66356C37.1481 6.23408 37.1443 6.18663 36.3045 9.46301C33.9313 18.7288 31.6989 22.0907 27.9072 22.1072C24.7654 22.121 21.6739 19.3286 17.2372 12.4685C16.2346 10.9175 16.2456 11.174 17.1406 10.2498C18.2375 9.11761 18.2982 8.08415 17.3321 6.98393C15.413 4.79839 11.3802 6.47134 12.1019 9.15237C12.4285 10.3657 13.1706 10.8728 15.0836 11.19L15.7766 11.3054L16.0933 12.4144C17.1803 16.2199 17.4419 21.0914 16.66 22.9719C14.9534 27.0748 10.5707 26.2135 5.10165 20.7002C3.6185 19.2044 3.66375 19.3015 4.13165 18.6135C5.3538 16.8142 3.19144 14.8041 1.15377 15.8453C-1.00032 16.946 0.0888702 19.8003 2.55139 19.509C3.19199 19.4328 3.25986 19.456 3.62899 19.872C3.84584 20.1165 4.32807 20.6594 4.70107 21.0788C7.10234 23.7774 9.92021 28.0006 11.7841 31.6925L13.1431 34.3851L37.5432 34.3862L61.9433 34.3879L62.9381 32.343C65.0216 28.0602 67.6899 24.0445 70.6242 20.7758C71.1103 20.2351 71.56 19.7038 71.6235 19.5951C71.7123 19.4439 71.9126 19.4202 72.4842 19.4913C74.8093 19.7816 75.9576 17.0189 74.0115 15.816C72.1223 14.6485 69.7397 16.8274 70.9531 18.6135C71.4254 19.3076 71.4905 19.1856 69.6983 20.9728C64.2717 26.384 59.9752 26.9181 58.241 22.3958C57.5899 20.6991 57.9717 15.7388 59.0173 12.3002L59.3175 11.3125L60.2858 11.1669C63.3376 10.7078 64.1283 7.68688 61.5389 6.38086C58.4595 4.82819 55.6604 8.00801 58.0192 10.3795L58.7491 11.1128L58.2305 12.1104C55.8182 16.7502 50.0881 21.7376 46.7146 22.1337C43.5364 22.5073 39.7762 15.8486 38.1761 7.01483C38.0127 6.11049 38.0199 6.09449 38.7207 5.82688C41.5512 4.74542 41.7289 1.64727 39.0385 0.298756C38.218 -0.111756 36.9407 -0.0979639 36.0165 0.332412ZM4.47816 49.3109V59.6592L14.7371 69.9231L24.9961 80.1865V84.8754C24.9961 87.7131 24.9447 89.5643 24.8653 89.5643C24.7936 89.5643 22.4855 86.6532 19.7361 83.096L14.7371 76.6271V75.1577V73.6884L9.70888 68.664C6.94289 65.9008 4.63486 63.6396 4.57913 63.6396C4.5234 63.6396 4.47816 67.3409 4.47816 71.8654V80.0911L5.62196 81.5554C6.25098 82.3605 8.01 84.6326 9.53066 86.6041C11.0513 88.575 13.7919 92.1223 15.621 94.4855C17.4496 96.8492 19.7896 99.8751 20.8209 101.209C21.8521 102.544 23.6387 104.852 24.7908 106.339C25.9429 107.826 27.9679 110.446 29.291 112.162C30.6136 113.877 32.0184 115.686 32.4123 116.182C32.8057 116.677 33.5594 117.642 34.0875 118.326L35.047 119.569L35.0823 97.6703L35.1171 75.7718L24.8923 65.5118L14.6676 55.2523L14.7051 52.2369L14.7426 49.2215H19.8691H24.9961V55.4956V61.7697L30.0563 66.8283L35.1165 71.8869V55.425V38.9625H19.7973H4.47816V49.3109ZM39.8297 48.9108V58.8586L49.3956 68.4212C54.6567 73.6812 58.9616 78.0341 58.9616 78.0948C58.9616 78.3232 50.2553 89.5643 50.0787 89.5643C50.0015 89.5643 49.9502 86.2212 49.9502 81.1422L49.9496 72.72L44.8899 67.6615L39.8297 62.6023V91.149V119.695L40.7881 118.459C41.315 117.778 43.1668 115.381 44.9021 113.132C46.6379 110.883 48.7153 108.2 49.5187 107.171C50.322 106.142 51.5779 104.519 52.3101 103.566C53.0417 102.613 54.4012 100.851 55.331 99.65C58.5792 95.4522 60.4249 93.0658 63.8794 88.5937C68.5308 82.5723 69.0412 81.9141 69.8098 80.938L70.4681 80.1015V77.5198V74.9376L60.2091 64.6792L49.9502 54.4213V51.8214V49.2215H55.0799H60.2091V55.0796V60.9377L65.2351 65.9626C67.9995 68.7258 70.3081 70.9875 70.3649 70.9875C70.4217 70.9875 70.4681 63.7815 70.4681 54.9747V38.9625H55.1489H39.8297V48.9108Z" fill="#D8EA10"/>
</svg>
